<?xml version="1.0" encoding="UTF-8" standalone="no"?>
<!DOCTYPE svg PUBLIC "-//W3C//DTD SVG 1.1//EN" "http://www.w3.org/Graphics/SVG/1.1/DTD/svg11.dtd">
<!-- 由 Microsoft Visio, SVG Export 生成 W3F.svg Page-1 -->
<svg xmlns="http://www.w3.org/2000/svg" xmlns:xlink="http://www.w3.org/1999/xlink" xmlns:ev="http://www.w3.org/2001/xml-events"
		xmlns:v="http://schemas.microsoft.com/visio/2003/SVGExtensions/" width="10.7865in" height="5.0345in"
		viewBox="0 0 776.629 362.484" xml:space="preserve" color-interpolation-filters="sRGB" class="st23">
	<v:documentProperties v:langID="2052" v:metric="true" v:viewMarkup="false">
		<v:userDefs>
			<v:ud v:nameU="msvSubprocessMaster" v:prompt="" v:val="VT4(Rectangle)"/>
			<v:ud v:nameU="msvNoAutoConnect" v:val="VT0(1):26"/>
		</v:userDefs>
	</v:documentProperties>

	<style type="text/css">
	<![CDATA[
		.st1 {fill:#e2efd9;stroke:#538135;stroke-dasharray:1.75,1.25,0.01,1.25;stroke-width:0.25}
		.st2 {fill:#375623;font-family:Calibri;font-size:0.916672em;font-weight:bold}
		.st3 {font-size:1em}
		.st4 {fill:#fff2cc;stroke:#bf9000;stroke-dasharray:1.75,1.25,0.01,1.25;stroke-width:0.25}
		.st5 {fill:#7f6000;font-family:Calibri;font-size:0.916672em;font-weight:bold}
		.st6 {fill:#9cc3e5;stroke:#4672c4;stroke-width:0.25}
		.st7 {fill:#1e4e79;font-family:Calibri;font-size:0.916672em}
		.st8 {fill:#deebf6;stroke:#4672c4;stroke-width:0.25}
		.st9 {marker-end:url(#mrkr5-21);stroke:#7f7f7f;stroke-linecap:round;stroke-linejoin:round;stroke-width:2.25}
		.st10 {fill:#7f7f7f;fill-opacity:1;stroke:#7f7f7f;stroke-opacity:1;stroke-width:0.47169811320755}
		.st11 {fill:none;stroke:none;stroke-width:0.25}
		.st12 {fill:#000000;font-family:Calibri;font-size:1.00001em}
		.st13 {fill:#ffd965;stroke:#bf9000;stroke-width:0.25}
		.st14 {fill:#7f6000;font-family:Calibri;font-size:0.916672em}
		.st15 {fill:#7f6000;stroke:none;stroke-linecap:butt;stroke-width:6.375}
		.st16 {fill:#7f6000;stroke:none;stroke-linecap:butt;stroke-width:0.75}
		.st17 {marker-start:url(#mrkr5-74);stroke:#7f7f7f;stroke-linecap:round;stroke-linejoin:round;stroke-width:2.25}
		.st18 {fill:#7f6000;font-family:Calibri;font-size:0.833336em}
		.st19 {fill:#a8d08d;stroke:#538135;stroke-width:0.25}
		.st20 {fill:#375623;font-family:Calibri;font-size:0.916672em}
		.st21 {stroke:#c7c8c8;stroke-width:0.25}
		.st22 {fill:#000000;font-family:Calibri;font-size:1.33333em;font-weight:bold}
		.st23 {fill:none;fill-rule:evenodd;font-size:12px;overflow:visible;stroke-linecap:square;stroke-miterlimit:3}
	]]>
	</style>

	<defs id="Markers">
		<g id="lend5">
			<path d="M 2 1 L 0 0 L 1.98117 -0.993387 C 1.67173 -0.364515 1.67301 0.372641 1.98465 1.00043 " style="stroke:none"/>
		</g>
		<marker id="mrkr5-21" class="st10" v:arrowType="5" v:arrowSize="2" v:setback="3.71" refX="-3.71" orient="auto"
				markerUnits="strokeWidth" overflow="visible">
			<use xlink:href="#lend5" transform="scale(-2.12,-2.12) "/>
		</marker>
		<marker id="mrkr5-74" class="st10" v:arrowType="5" v:arrowSize="2" v:setback="3.55" refX="3.55" orient="auto"
				markerUnits="strokeWidth" overflow="visible">
			<use xlink:href="#lend5" transform="scale(2.12) "/>
		</marker>
	</defs>
	<g v:mID="0" v:index="1" v:groupContext="foregroundPage">
		<v:userDefs>
			<v:ud v:nameU="msvThemeOrder" v:val="VT0(0):26"/>
		</v:userDefs>
		<title>页-1</title>
		<v:pageProperties v:drawingScale="0.0393701" v:pageScale="0.0393701" v:drawingUnits="24" v:shadowOffsetX="8.50394"
				v:shadowOffsetY="-8.50394"/>
		<g id="shape182-1" v:mID="182" v:groupContext="shape" transform="translate(18.6698,-68.3891)">
			<title>矩形.182</title>
			<desc>Data Rendering</desc>
			<v:userDefs>
				<v:ud v:nameU="visVersion" v:val="VT0(15):26"/>
			</v:userDefs>
			<v:textBlock v:margins="rect(4,4,4,4)" v:tabSpace="42.5197" v:verticalAlign="0"/>
			<v:textRect cx="60.9449" cy="255.368" width="121.89" height="214.232"/>
			<path d="M0 362.48 L121.89 362.48 L121.89 148.25 L0 148.25 L0 362.48 Z" class="st1"/>
			<text x="25.5" y="162.15" class="st2" v:langID="1033"><v:paragraph v:horizAlign="1"/><v:tabList/>Data <tspan
						class="st3" v:langID="2052">R</tspan>endering</text>		</g>
		<g id="shape178-5" v:mID="178" v:groupContext="shape" transform="translate(149.894,-68.1227)">
			<title>矩形.178</title>
			<desc>Data Processing</desc>
			<v:userDefs>
				<v:ud v:nameU="visVersion" v:val="VT0(15):26"/>
			</v:userDefs>
			<v:textBlock v:margins="rect(4,4,4,4)" v:tabSpace="42.5197" v:verticalAlign="0"/>
			<v:textRect cx="217.017" cy="255.368" width="434.04" height="214.232"/>
			<path d="M0 362.48 L434.03 362.48 L434.03 148.25 L0 148.25 L0 362.48 Z" class="st4"/>
			<text x="180.76" y="162.15" class="st5" v:langID="2052"><v:paragraph v:horizAlign="1"/><v:tabList/>D<tspan class="st3"
						v:langID="1033">ata </tspan>P<tspan class="st3" v:langID="1033">rocessing</tspan></text>		</g>
		<g id="shape119-10" v:mID="119" v:groupContext="shape" transform="translate(539.384,-18.25)">
			<title>矩形.119</title>
			<desc>Blockchain Network</desc>
			<v:userDefs>
				<v:ud v:nameU="visVersion" v:val="VT0(15):26"/>
			</v:userDefs>
			<v:textBlock v:margins="rect(4,4,4,4)" v:tabSpace="42.5197"/>
			<v:textRect cx="109.498" cy="348.311" width="219" height="28.3465"/>
			<rect x="0" y="334.138" width="218.995" height="28.3465" rx="14.1732" ry="14.1732" class="st6"/>
			<text x="64.89" y="351.61" class="st7" v:langID="2052"><v:paragraph v:horizAlign="1"/><v:tabList/>Blockchain Network</text>		</g>
		<g id="shape120-13" v:mID="120" v:groupContext="shape" transform="translate(304.472,-18.25)">
			<title>矩形.120</title>
			<desc>Node Service</desc>
			<v:userDefs>
				<v:ud v:nameU="visVersion" v:val="VT0(15):26"/>
			</v:userDefs>
			<v:textBlock v:margins="rect(4,4,4,4)" v:tabSpace="42.5197"/>
			<v:textRect cx="60.9449" cy="348.311" width="121.89" height="28.3465"/>
			<rect x="0" y="334.138" width="121.89" height="28.3465" rx="14.1732" ry="14.1732" class="st8"/>
			<text x="31.63" y="351.61" class="st7" v:langID="2052"><v:paragraph v:horizAlign="1"/><v:tabList/>Node Service</text>		</g>
		<g id="shape121-16" v:mID="121" v:groupContext="shape" transform="translate(539.384,692.545) rotate(180)">
			<title>工作表.121</title>
			<path d="M0 362.48 L104.67 362.48" class="st9"/>
		</g>
		<g id="shape122-22" v:mID="122" v:groupContext="shape" transform="translate(2.93324,316.438) rotate(-90.0869)">
			<title>工作表.122</title>
			<path d="M0 362.48 L44.5 362.48" class="st9"/>
		</g>
		<g id="shape123-27" v:mID="123" v:groupContext="shape" transform="translate(469.652,-31.8563)">
			<title>工作表.123</title>
			<desc>①</desc>
			<v:textBlock v:margins="rect(4,4,4,4)" v:tabSpace="42.5197"/>
			<v:textRect cx="19.1339" cy="351.854" width="38.27" height="21.2598"/>
			<rect x="0" y="341.224" width="38.2677" height="21.2598" class="st11"/>
			<text x="11.17" y="355.45" class="st12" v:langID="2052"><v:paragraph v:horizAlign="1"/><v:tabList/>①</text>		</g>
		<g id="shape124-30" v:mID="124" v:groupContext="shape" transform="translate(308.141,-99.4424)">
			<title>矩形.124</title>
			<desc>Data Crawling</desc>
			<v:userDefs>
				<v:ud v:nameU="visVersion" v:val="VT0(15):26"/>
			</v:userDefs>
			<v:textBlock v:margins="rect(4,4,4,4)" v:tabSpace="42.5197"/>
			<v:textRect cx="56.6611" cy="340.192" width="113.33" height="44.5849"/>
			<rect x="0" y="317.899" width="113.322" height="44.5849" rx="14.1732" ry="14.1732" class="st13"/>
			<text x="47.01" y="343.49" class="st14" v:langID="1033"><v:paragraph v:horizAlign="2"/><v:tabList/>Data <tspan
						class="st3" v:langID="2052">C</tspan>rawling</text>		</g>
		<g id="shape126-34" v:mID="126" v:groupContext="shape" transform="translate(364.345,-71.9058)">
			<title>工作表.126</title>
			<desc>②</desc>
			<v:textBlock v:margins="rect(4,4,4,4)" v:tabSpace="42.5197"/>
			<v:textRect cx="19.1339" cy="351.854" width="38.27" height="21.2598"/>
			<rect x="0" y="341.224" width="38.2677" height="21.2598" class="st11"/>
			<text x="11.17" y="355.45" class="st12" v:langID="2052"><v:paragraph v:horizAlign="1"/><v:tabList/>②</text>		</g>
		<g id="group127-37" transform="translate(317.092,-111.127)" v:mID="127" v:groupContext="group">
			<title>工作表.127</title>
			<g id="shape128-38" v:mID="128" v:groupContext="shape">
				<title>工作表.128</title>
				<path d="M23.24 355.05 C23.34 352.16 23.24 349.53 21.69 346.99 C19.96 344.14 17.2 342.03 13.85 341.63 C10.51 341.22
							 7.13 342.09 4.37 344.01 C2.01 345.75 0 348.88 0 351.89 C0.37 349.59 1.67 347.55 3.63 346.24 C5.58 344.94
							 7.96 344.54 10.23 345.1 C12.37 345.59 14.13 347.24 15.31 349.07 C16.49 350.89 16.43 352.94 16.43 355.05
							 L12.4 355.05 L19.83 362.48 C19.83 362.48 26 356.32 27.27 355.05 L23.24 355.05 Z" class="st15"/>
			</g>
		</g>
		<g id="shape129-40" v:mID="129" v:groupContext="shape" transform="translate(421.214,-121.735) rotate(-0.0393494)">
			<title>工作表.129</title>
			<path d="M0 362.48 L91.79 362.48" class="st9"/>
		</g>
		<g id="shape130-45" v:mID="130" v:groupContext="shape" transform="translate(522.488,-84.5539)">
			<title>矩形.130</title>
			<desc>Buffer Queue</desc>
			<v:userDefs>
				<v:ud v:nameU="visVersion" v:val="VT0(15):26"/>
			</v:userDefs>
			<v:textBlock v:margins="rect(4,4,4,4)" v:tabSpace="42.5197" v:verticalAlign="2"/>
			<v:textRect cx="19.1339" cy="274.564" width="38.27" height="175.84"/>
			<rect x="0" y="186.644" width="38.2677" height="175.84" rx="14.1732" ry="14.1732" class="st13"/>
			<text x="5.24" y="315.58" class="st14" v:langID="1033"><v:paragraph v:horizAlign="1"/><v:tabList/>Buffer <tspan
						x="4.18" dy="1.2em" class="st3" v:langID="2052">Queue</tspan><v:newlineChar/><v:newlineChar/></text>		</g>
		<g id="shape131-49" v:mID="131" v:groupContext="shape" transform="translate(449.78,-122.767)">
			<title>工作表.131</title>
			<desc>③</desc>
			<v:textBlock v:margins="rect(4,4,4,4)" v:tabSpace="42.5197"/>
			<v:textRect cx="19.1339" cy="351.854" width="38.27" height="21.2598"/>
			<rect x="0" y="341.224" width="38.2677" height="21.2598" class="st11"/>
			<text x="11.17" y="355.45" class="st12" v:langID="2052"><v:paragraph v:horizAlign="1"/><v:tabList/>③</text>		</g>
		<g id="group132-52" transform="translate(893.75,127.035) rotate(90)" v:mID="132" v:groupContext="group">
			<title>Chevron RTL</title>
			<g id="shape133-53" v:mID="133" v:groupContext="shape" transform="translate(9.41507,5.68434E-14)">
				<title>工作表.133</title>
				<path d="M0 351.5 L8.24 362.48 L13.14 362.48 L4.9 351.5 L13.14 340.52 L8.24 340.52 L0 351.5 Z" class="st16"/>
			</g>
			<g id="shape134-55" v:mID="134" v:groupContext="shape" transform="translate(18.8301,5.68434E-14)">
				<title>工作表.134</title>
				<path d="M4.9 351.5 L13.14 340.52 L8.24 340.52 L0 351.5 L8.24 362.48 L13.14 362.48 L4.9 351.5 Z" class="st16"/>
			</g>
			<g id="shape135-57" v:mID="135" v:groupContext="shape">
				<title>工作表.135</title>
				<path d="M0 351.5 L8.24 362.48 L13.14 362.48 L4.9 351.5 L13.14 340.52 L8.24 340.52 L0 351.5 Z" class="st16"/>
			</g>
		</g>
		<g id="shape136-59" v:mID="136" v:groupContext="shape" transform="translate(390.192,-184.173)">
			<title>矩形.136</title>
			<desc>Parser</desc>
			<v:userDefs>
				<v:ud v:nameU="visVersion" v:val="VT0(15):26"/>
			</v:userDefs>
			<v:textBlock v:margins="rect(4,4,4,4)" v:tabSpace="42.5197" v:verticalAlign="2"/>
			<v:textRect cx="34.6882" cy="335.555" width="69.38" height="53.8583"/>
			<rect x="0" y="308.626" width="69.3765" height="53.8583" rx="14.1732" ry="14.1732" class="st13"/>
			<text x="20.49" y="355.18" class="st14" v:langID="1033"><v:paragraph v:horizAlign="1"/><v:tabList/>Parser</text>		</g>
		<g id="group141-62" transform="translate(413.912,-205.306)" v:mID="141" v:groupContext="group">
			<title>工作表.141</title>
			<g id="shape142-63" v:mID="142" v:groupContext="shape" transform="translate(0,-0.080965)">
				<title>工作表.142</title>
				<path d="M2.4 360.95 C2.21 361.13 1.97 361.19 1.73 361.08 C1.48 360.97 1.35 360.76 1.35 360.51 C1.35 360.27 1.51
							 360.03 1.73 359.95 C1.97 359.84 2.21 359.89 2.4 360.08 C2.64 360.3 2.64 360.7 2.4 360.95 ZM21.46 343.16
							 L19.27 345.35 L17.54 344.89 L17.11 343.19 L19.3 341 C18 340.52 16.54 340.81 15.52 341.73 C14.49 342.67
							 14.09 344.08 14.44 345.43 L0.67 359.19 C0.19 359.65 0 360.35 0.16 361 C0.32 361.65 0.84 362.16 1.48
							 362.32 C2.13 362.48 2.81 362.3 3.29 361.81 L17.06 348.05 C18.41 348.4 19.81 347.99 20.75 346.97 C21.67
							 345.94 21.97 344.46 21.46 343.16 Z" class="st16"/>
			</g>
			<g id="shape143-65" v:mID="143" v:groupContext="shape" transform="translate(11.578,5.68434E-14)">
				<title>工作表.143</title>
				<path d="M9.77 359.11 L2.81 352.15 L0 354.95 L6.75 361.7 L6.99 361.94 L7.02 361.92 C7.8 362.48 8.88 362.38 9.55 361.7
							 C10.23 361 10.31 359.92 9.77 359.11 Z" class="st16"/>
			</g>
			<g id="shape144-67" v:mID="144" v:groupContext="shape" transform="translate(0.107953,-12.7115)">
				<title>工作表.144</title>
				<path d="M3.94 356.57 L3.97 356.55 L3.27 355.25 L0.94 353.39 L0 354.33 L1.86 356.65 L3.16 357.36 L3.18 357.33 L8.34
							 362.48 L9.1 361.73 L3.94 356.57 Z" class="st16"/>
			</g>
		</g>
		<g id="shape145-69" v:mID="145" v:groupContext="shape" transform="translate(462.34,-211.091) rotate(0.438017)">
			<title>工作表.145</title>
			<path d="M7.99 362.48 L8.35 362.48 L63.52 362.48" class="st17"/>
		</g>
		<g id="shape146-75" v:mID="146" v:groupContext="shape" transform="translate(474.431,-212.234)">
			<title>工作表.146</title>
			<desc>④</desc>
			<v:textBlock v:margins="rect(4,4,4,4)" v:tabSpace="42.5197"/>
			<v:textRect cx="19.1339" cy="351.854" width="38.27" height="21.2598"/>
			<rect x="0" y="341.224" width="38.2677" height="21.2598" class="st11"/>
			<text x="11.17" y="355.45" class="st12" v:langID="2052"><v:paragraph v:horizAlign="1"/><v:tabList/>④</text>		</g>
		<g id="shape147-78" v:mID="147" v:groupContext="shape" transform="translate(170.395,-84.6275)">
			<title>矩形.147</title>
			<desc>API Service</desc>
			<v:userDefs>
				<v:ud v:nameU="visVersion" v:val="VT0(15):26"/>
			</v:userDefs>
			<v:textBlock v:margins="rect(4,4,4,4)" v:tabSpace="42.5197" v:verticalAlign="2"/>
			<v:textRect cx="19.1339" cy="274.564" width="38.27" height="175.84"/>
			<rect x="0" y="186.644" width="38.2677" height="175.84" rx="14.1732" ry="14.1732" class="st13"/>
			<text x="12.4" y="319.48" class="st18" v:langID="2052"><v:paragraph v:horizAlign="1"/><v:tabList/>API<v:newlineChar/><tspan
						x="4.6" dy="1.2em" class="st3">Service</tspan><v:newlineChar/><v:newlineChar/></text>		</g>
		<g id="shape152-82" v:mID="152" v:groupContext="shape" transform="translate(340.454,-210.712) rotate(-0.0704894)">
			<title>工作表.152</title>
			<path d="M7.99 362.48 L8.35 362.48 L49.29 362.48" class="st17"/>
		</g>
		<g id="shape153-87" v:mID="153" v:groupContext="shape" transform="translate(271.523,-183.783)">
			<title>矩形.153</title>
			<desc>Data Storage</desc>
			<v:userDefs>
				<v:ud v:nameU="visVersion" v:val="VT0(15):26"/>
			</v:userDefs>
			<v:textBlock v:margins="rect(4,4,4,4)" v:tabSpace="42.5197" v:verticalAlign="2"/>
			<v:textRect cx="34.6882" cy="335.555" width="69.38" height="53.8583"/>
			<rect x="0" y="308.626" width="69.3765" height="53.8583" rx="14.1732" ry="14.1732" class="st13"/>
			<text x="5.8" y="355.18" class="st14" v:langID="2052"><v:paragraph v:horizAlign="1"/><v:tabList/>Data Storage</text>		</g>
		<g id="shape161-90" v:mID="161" v:groupContext="shape" transform="translate(346.476,-214.493)">
			<title>工作表.161</title>
			<desc>⑤</desc>
			<v:textBlock v:margins="rect(4,4,4,4)" v:tabSpace="42.5197"/>
			<v:textRect cx="19.1339" cy="351.854" width="38.27" height="21.2598"/>
			<rect x="0" y="341.224" width="38.2677" height="21.2598" class="st11"/>
			<text x="11.17" y="355.45" class="st12" v:langID="2052"><v:paragraph v:horizAlign="1"/><v:tabList/>⑤</text>		</g>
		<g id="shape162-93" v:mID="162" v:groupContext="shape" transform="translate(207.731,-210.712)">
			<title>工作表.162</title>
			<path d="M7.99 362.48 L8.35 362.48 L63.79 362.48" class="st17"/>
		</g>
		<g id="shape163-98" v:mID="163" v:groupContext="shape" transform="translate(224.695,-214.143)">
			<title>工作表.163</title>
			<desc>⑥</desc>
			<v:textBlock v:margins="rect(4,4,4,4)" v:tabSpace="42.5197"/>
			<v:textRect cx="19.1339" cy="351.854" width="38.27" height="21.2598"/>
			<rect x="0" y="341.224" width="38.2677" height="21.2598" class="st11"/>
			<text x="11.17" y="355.45" class="st12" v:langID="2052"><v:paragraph v:horizAlign="1"/><v:tabList/>⑥</text>		</g>
		<g id="group164-101" transform="translate(245.022,-46.2695)" v:mID="164" v:groupContext="group">
			<title>工作表.164</title>
		</g>
		<g id="group170-102" transform="translate(176.95,-209.296)" v:mID="170" v:groupContext="group">
			<title>工作表.170</title>
			<g id="shape171-103" v:mID="171" v:groupContext="shape">
				<title>工作表.171</title>
				<path d="M0 338.01 L0 362.48 L25.16 362.48 L25.16 338.01 L0 338.01 ZM23.12 349.23 L13.6 349.23 L13.6 340.05 L23.12
							 340.05 L23.12 349.23 ZM11.56 340.05 L11.56 349.23 L2.04 349.23 L2.04 340.05 L11.56 340.05 ZM2.04 351.27
							 L11.56 351.27 L11.56 360.44 L2.04 360.44 L2.04 351.27 ZM13.6 360.44 L13.6 351.27 L23.12 351.27 L23.12
							 360.44 L13.6 360.44 Z" class="st16"/>
			</g>
			<g id="shape172-105" v:mID="172" v:groupContext="shape" transform="translate(3.73963,-14.9585)">
				<title>工作表.172</title>
				<path d="M6.12 358.74 L3.74 358.74 L3.74 356.36 L2.38 356.36 L2.38 358.74 L0 358.74 L0 360.1 L2.38 360.1 L2.38 362.48
							 L3.74 362.48 L3.74 360.1 L6.12 360.1 L6.12 358.74 Z" class="st16"/>
			</g>
			<g id="shape173-107" v:mID="173" v:groupContext="shape" transform="translate(4.15438,-4.15438)">
				<title>工作表.173</title>
				<path d="M5.29 358.16 L4.33 357.19 L2.64 358.88 L0.96 357.19 L0 358.16 L1.68 359.84 L0 361.52 L0.96 362.48 L2.64
							 360.8 L4.33 362.48 L5.29 361.52 L3.61 359.84 L5.29 358.16 Z" class="st16"/>
			</g>
			<g id="shape174-109" v:mID="174" v:groupContext="shape" transform="translate(-341.066,345.146) rotate(-90)">
				<title>工作表.174</title>
				<rect x="0" y="356.365" width="1.35986" height="6.11939" class="st16"/>
			</g>
			<g id="shape175-111" v:mID="175" v:groupContext="shape" transform="translate(-341.066,356.705) rotate(-90)">
				<title>工作表.175</title>
				<rect x="0" y="356.365" width="1.35986" height="6.11939" class="st16"/>
			</g>
			<g id="shape176-113" v:mID="176" v:groupContext="shape" transform="translate(17.6782,-7.81922)">
				<title>工作表.176</title>
				<ellipse cx="0.679932" cy="361.804" rx="0.679932" ry="0.679932" class="st16"/>
			</g>
			<g id="shape177-115" v:mID="177" v:groupContext="shape" transform="translate(17.6782,-3.73963)">
				<title>工作表.177</title>
				<ellipse cx="0.679932" cy="361.804" rx="0.679932" ry="0.679932" class="st16"/>
			</g>
		</g>
		<g id="shape179-117" v:mID="179" v:groupContext="shape" transform="translate(170.395,487.033) rotate(180)">
			<title>工作表.179</title>
			<path d="M0 362.48 L41.03 362.48" class="st9"/>
		</g>
		<g id="shape181-122" v:mID="181" v:groupContext="shape" transform="translate(33.1855,-220.657)">
			<title>矩形.181</title>
			<desc>Blocks Info</desc>
			<v:userDefs>
				<v:ud v:nameU="visVersion" v:val="VT0(15):26"/>
			</v:userDefs>
			<v:textBlock v:margins="rect(4,4,4,4)" v:tabSpace="42.5197"/>
			<v:textRect cx="43.9161" cy="345.206" width="87.84" height="34.5562"/>
			<rect x="0" y="327.928" width="87.8321" height="34.5562" rx="14.1732" ry="14.1732" class="st19"/>
			<text x="19.69" y="348.51" class="st20" v:langID="2052"><v:paragraph v:horizAlign="1"/><v:tabList/>Blocks Info</text>		</g>
		<g id="shape183-125" v:mID="183" v:groupContext="shape" transform="translate(33.0036,-175.032)">
			<title>矩形.183</title>
			<desc>Transactions Info</desc>
			<v:userDefs>
				<v:ud v:nameU="visVersion" v:val="VT0(15):26"/>
			</v:userDefs>
			<v:textBlock v:margins="rect(4,4,4,4)" v:tabSpace="42.5197"/>
			<v:textRect cx="43.9161" cy="345.206" width="87.84" height="34.5562"/>
			<rect x="0" y="327.928" width="87.8321" height="34.5562" rx="14.1732" ry="14.1732" class="st19"/>
			<text x="5.54" y="348.51" class="st20" v:langID="2052"><v:paragraph v:horizAlign="1"/><v:tabList/>Transactions Info</text>		</g>
		<g id="shape184-128" v:mID="184" v:groupContext="shape" transform="translate(32.9555,-128.531)">
			<title>矩形.184</title>
			<desc>Address Info</desc>
			<v:userDefs>
				<v:ud v:nameU="visVersion" v:val="VT0(15):26"/>
			</v:userDefs>
			<v:textBlock v:margins="rect(4,4,4,4)" v:tabSpace="42.5197"/>
			<v:textRect cx="43.9161" cy="345.206" width="87.84" height="34.5562"/>
			<rect x="0" y="327.928" width="87.8321" height="34.5562" rx="14.1732" ry="14.1732" class="st19"/>
			<text x="15.9" y="348.51" class="st20" v:langID="2052"><v:paragraph v:horizAlign="1"/><v:tabList/>Address Info</text>		</g>
		<g id="shape185-131" v:mID="185" v:groupContext="shape" transform="translate(32.9555,-82.0295)">
			<title>矩形.185</title>
			<desc>Custom Info</desc>
			<v:userDefs>
				<v:ud v:nameU="visVersion" v:val="VT0(15):26"/>
			</v:userDefs>
			<v:textBlock v:margins="rect(4,4,4,4)" v:tabSpace="42.5197"/>
			<v:textRect cx="43.9161" cy="345.206" width="87.84" height="34.5562"/>
			<rect x="0" y="327.928" width="87.8321" height="34.5562" rx="14.1732" ry="14.1732" class="st19"/>
			<text x="16.71" y="348.51" class="st20" v:langID="2052"><v:paragraph v:horizAlign="1"/><v:tabList/>Custom Info</text>		</g>
		<g id="shape187-134" v:mID="187" v:groupContext="shape" transform="translate(125.978,-237.343)">
			<title>工作表.187</title>
			<desc>⑦</desc>
			<v:textBlock v:margins="rect(4,4,4,4)" v:tabSpace="42.5197"/>
			<v:textRect cx="19.1339" cy="351.854" width="38.27" height="21.2598"/>
			<rect x="0" y="341.224" width="38.2677" height="21.2598" class="st11"/>
			<text x="11.17" y="355.45" class="st12" v:langID="2052"><v:paragraph v:horizAlign="1"/><v:tabList/>⑦</text>		</g>
		<g id="shape188-137" v:mID="188" v:groupContext="shape" transform="translate(221.444,71.3389) rotate(-90)">
			<title>右括号</title>
			<v:userDefs>
				<v:ud v:nameU="visVersion" v:prompt="" v:val="VT0(15):26"/>
			</v:userDefs>
			<path d="M0 362.48 A37.9502 94.6663 -180 0 0 14.17 305.92 L14.17 79.64 L28.35 79.64 L14.17 79.64 L14.17 -146.63 A37.9502
						 94.6663 -180 0 0 -0 -203.19" class="st21"/>
		</g>
		<g id="shape189-140" v:mID="189" v:groupContext="shape" transform="translate(258.189,-322.974)">
			<title>工作表.189</title>
			<desc>Substats</desc>
			<v:textBlock v:margins="rect(4,4,4,4)" v:tabSpace="42.5197"/>
			<v:textRect cx="43.9161" cy="351.854" width="87.84" height="21.2598"/>
			<rect x="0" y="341.224" width="87.8321" height="21.2598" class="st11"/>
			<text x="15.67" y="356.65" class="st22" v:langID="2052"><v:paragraph v:horizAlign="1"/><v:tabList/>Substats</text>		</g>
		<g id="group190-143" transform="translate(296.099,-204.945)" v:mID="190" v:groupContext="group">
			<title>工作表.190</title>
			<g id="group191-144" v:mID="191" v:groupContext="group">
				<title>工作表.191</title>
				<g id="shape192-145" v:mID="192" v:groupContext="shape" transform="translate(0,-20.3059)">
					<title>工作表.192</title>
					<ellipse cx="9.4761" cy="359.777" rx="9.4761" ry="2.70746" class="st16"/>
				</g>
				<g id="shape193-147" v:mID="193" v:groupContext="shape" transform="translate(0,-13.5373)">
					<title>工作表.193</title>
					<path d="M16.24 359.78 C15.84 359.78 15.57 359.51 15.57 359.1 C15.57 358.69 15.84 358.42 16.24 358.42 C16.65
								 358.42 16.92 358.69 16.92 359.1 C16.92 359.51 16.65 359.78 16.24 359.78 ZM9.48 357.07 C4.26 357.07
								 0 355.85 0 354.36 L0 359.78 C0 361.27 4.26 362.48 9.48 362.48 C14.69 362.48 18.95 361.27 18.95 359.78
								 L18.95 354.36 C18.95 355.85 14.69 357.07 9.48 357.07 Z" class="st16"/>
				</g>
				<g id="shape194-149" v:mID="194" v:groupContext="shape" transform="translate(0,-6.76864)">
					<title>工作表.194</title>
					<path d="M16.24 359.78 C15.84 359.78 15.57 359.51 15.57 359.1 C15.57 358.69 15.84 358.42 16.24 358.42 C16.65
								 358.42 16.92 358.69 16.92 359.1 C16.92 359.51 16.65 359.78 16.24 359.78 ZM9.48 357.07 C4.26 357.07
								 0 355.85 0 354.36 L0 359.78 C0 361.27 4.26 362.48 9.48 362.48 C14.69 362.48 18.95 361.27 18.95 359.78
								 L18.95 354.36 C18.95 355.85 14.69 357.07 9.48 357.07 Z" class="st16"/>
				</g>
				<g id="shape195-151" v:mID="195" v:groupContext="shape">
					<title>工作表.195</title>
					<path d="M16.24 359.78 C15.84 359.78 15.57 359.51 15.57 359.1 C15.57 358.69 15.84 358.42 16.24 358.42 C16.65
								 358.42 16.92 358.69 16.92 359.1 C16.92 359.51 16.65 359.78 16.24 359.78 ZM9.48 357.07 C4.26 357.07
								 0 355.85 0 354.36 L0 359.78 C0 361.27 4.26 362.48 9.48 362.48 C14.69 362.48 18.95 361.27 18.95 359.78
								 L18.95 354.36 C18.95 355.85 14.69 357.07 9.48 357.07 Z" class="st16"/>
				</g>
			</g>
		</g>
	</g>
</svg>
