<?xml version="1.0" encoding="UTF-8" standalone="no"?>
<!DOCTYPE svg PUBLIC "-//W3C//DTD SVG 1.1//EN" "http://www.w3.org/Graphics/SVG/1.1/DTD/svg11.dtd">
<!-- 由 Microsoft Visio, SVG Export 生成 podr2-2.svg Page-1 -->
<svg xmlns="http://www.w3.org/2000/svg" xmlns:xlink="http://www.w3.org/1999/xlink" xmlns:ev="http://www.w3.org/2001/xml-events"
		xmlns:v="http://schemas.microsoft.com/visio/2003/SVGExtensions/" width="6.12215in" height="6.02625in"
		viewBox="0 0 440.795 433.89" xml:space="preserve" color-interpolation-filters="sRGB" class="st13">
	<v:documentProperties v:langID="2052" v:metric="true" v:viewMarkup="false"/>

	<style type="text/css">
	<![CDATA[
		.st1 {visibility:visible}
		.st2 {fill:#000000;fill-opacity:0.4;filter:url(#filter_2.6666667461395);stroke:none;stroke-linecap:butt}
		.st3 {fill:#fff2cc;stroke:none;stroke-linecap:butt;stroke-width:0.75}
		.st4 {fill:none;stroke:#bfbfbf;stroke-width:12}
		.st5 {fill:#0070c0;stroke:none;stroke-linecap:butt;stroke-width:0.75}
		.st6 {fill:#0070c0;stroke:none;stroke-linecap:butt;stroke-width:6.375}
		.st7 {fill:none;filter:url(#filter_2.6666667461395);stroke:#000000;stroke-linecap:butt;stroke-opacity:0.4}
		.st8 {stroke:#7f7f7f;stroke-linecap:butt;stroke-width:0.75}
		.st9 {fill:none;stroke:none;stroke-width:0.25}
		.st10 {fill:#000000;font-family:Calibri;font-size:1.00001em}
		.st11 {fill:#000000;font-family:Calibri;font-size:1.16666em}
		.st12 {fill:#fee599;stroke:none;stroke-width:6.375}
		.st13 {fill:none;fill-rule:evenodd;font-size:12px;overflow:visible;stroke-linecap:square;stroke-miterlimit:3}
	]]>
	</style>

	<defs id="Filters">
		<filter id="filter_2.6666667461395">
			<feGaussianBlur stdDeviation="2.6666667461395"/>
		</filter>
	</defs>
	<g v:mID="0" v:index="1" v:groupContext="foregroundPage">
		<title>页-1</title>
		<v:pageProperties v:drawingScale="0.0393701" v:pageScale="0.0393701" v:drawingUnits="24" v:shadowOffsetX="9"
				v:shadowOffsetY="-9"/>
		<g id="shape1-1" v:mID="1" v:groupContext="shape" transform="translate(86.0514,-120.69)">
			<title>十字箭头</title>
			<v:userDefs>
				<v:ud v:nameU="ArrowWidth" v:prompt="" v:val="VT0(0.39370078740157):24"/>
				<v:ud v:nameU="ArrowHeight" v:prompt="" v:val="VT0(0.19685039370079):24"/>
				<v:ud v:nameU="BarWidth" v:prompt="" v:val="VT0(0.19685039370079):24"/>
				<v:ud v:nameU="visVersion" v:prompt="" v:val="VT0(15):26"/>
				<v:ud v:nameU="BarWidth" v:prompt="" v:val="VT0(0.12602956):1"/>
			</v:userDefs>
			<g id="shadow1-2" v:groupContext="shadow" v:shadowOffsetX="2.12132" v:shadowOffsetY="-2.12132" v:shadowType="1"
					transform="matrix(1,0,0,1,2.12132,2.12132)" class="st1">
				<path d="M0 329.45 L14.17 343.63 L14.17 333.99 L114.81 333.99 L114.81 419.72 L105.18 419.72 L119.35 433.89 L133.52
							 419.72 L123.89 419.72 L123.89 333.99 L224.52 333.99 L224.52 343.63 L238.7 329.45 L224.52 315.28 L224.52
							 324.92 L123.89 324.92 L123.89 239.19 L133.52 239.19 L119.35 225.01 L105.18 239.19 L114.81 239.19 L114.81
							 324.92 L14.17 324.92 L14.17 315.28 L0 329.45 Z" class="st2"/>
			</g>
			<path d="M0 329.45 L14.17 343.63 L14.17 333.99 L114.81 333.99 L114.81 419.72 L105.18 419.72 L119.35 433.89 L133.52 419.72
						 L123.89 419.72 L123.89 333.99 L224.52 333.99 L224.52 343.63 L238.7 329.45 L224.52 315.28 L224.52 324.92
						 L123.89 324.92 L123.89 239.19 L133.52 239.19 L119.35 225.01 L105.18 239.19 L114.81 239.19 L114.81 324.92
						 L14.17 324.92 L14.17 315.28 L0 329.45 Z" class="st3"/>
		</g>
		<g id="shape2-6" v:mID="2" v:groupContext="shape" transform="translate(43.1195,-63.484)">
			<title>圆形.185</title>
			<v:userDefs>
				<v:ud v:nameU="visVersion" v:val="VT0(15):26"/>
			</v:userDefs>
			<path d="M0 271.61 A162.28 162.28 0 0 1 324.56 271.61 A162.28 162.28 0 0 1 0 271.61 Z" class="st4"/>
		</g>
		<g id="group3-8" transform="translate(184.363,-48.5796)" v:mID="3" v:groupContext="group">
			<title>工作表.3</title>
			<g id="group4-9" v:mID="4" v:groupContext="group">
				<title>工作表.4</title>
				<g id="shape5-10" v:mID="5" v:groupContext="shape" transform="translate(0,-41.5606)">
					<title>工作表.5</title>
					<g id="shadow5-11" v:groupContext="shadow" v:shadowOffsetX="2.12132" v:shadowOffsetY="-2.12132"
							v:shadowType="1" transform="matrix(1,0,0,1,2.12132,2.12132)" class="st1">
						<ellipse cx="19.3949" cy="428.349" rx="19.3949" ry="5.54141" class="st2"/>
					</g>
					<ellipse cx="19.3949" cy="428.349" rx="19.3949" ry="5.54141" class="st5"/>
				</g>
				<g id="shape6-15" v:mID="6" v:groupContext="shape" transform="translate(0,-27.7071)">
					<title>工作表.6</title>
					<g id="shadow6-16" v:groupContext="shadow" v:shadowOffsetX="2.12132" v:shadowOffsetY="-2.12132"
							v:shadowType="1" transform="matrix(1,0,0,1,2.12132,2.12132)" class="st1">
						<path d="M33.25 428.35 C32.42 428.35 31.86 427.79 31.86 426.96 C31.86 426.13 32.42 425.58 33.25 425.58 C34.08
									 425.58 34.63 426.13 34.63 426.96 C34.63 427.79 34.08 428.35 33.25 428.35 ZM19.39 422.81 C8.73
									 422.81 0 420.31 0 417.27 L0 428.35 C0 431.4 8.73 433.89 19.39 433.89 C30.06 433.89 38.79 431.4
									 38.79 428.35 L38.79 417.27 C38.79 420.31 30.06 422.81 19.39 422.81 Z" class="st2"/>
					</g>
					<path d="M33.25 428.35 C32.42 428.35 31.86 427.79 31.86 426.96 C31.86 426.13 32.42 425.58 33.25 425.58 C34.08
								 425.58 34.63 426.13 34.63 426.96 C34.63 427.79 34.08 428.35 33.25 428.35 ZM19.39 422.81 C8.73 422.81
								 0 420.31 0 417.27 L0 428.35 C0 431.4 8.73 433.89 19.39 433.89 C30.06 433.89 38.79 431.4 38.79 428.35
								 L38.79 417.27 C38.79 420.31 30.06 422.81 19.39 422.81 Z" class="st5"/>
				</g>
				<g id="shape7-20" v:mID="7" v:groupContext="shape" transform="translate(0,-13.8535)">
					<title>工作表.7</title>
					<g id="shadow7-21" v:groupContext="shadow" v:shadowOffsetX="2.12132" v:shadowOffsetY="-2.12132"
							v:shadowType="1" transform="matrix(1,0,0,1,2.12132,2.12132)" class="st1">
						<path d="M33.25 428.35 C32.42 428.35 31.86 427.79 31.86 426.96 C31.86 426.13 32.42 425.58 33.25 425.58 C34.08
									 425.58 34.63 426.13 34.63 426.96 C34.63 427.79 34.08 428.35 33.25 428.35 ZM19.39 422.81 C8.73
									 422.81 0 420.31 0 417.27 L0 428.35 C0 431.4 8.73 433.89 19.39 433.89 C30.06 433.89 38.79 431.4
									 38.79 428.35 L38.79 417.27 C38.79 420.31 30.06 422.81 19.39 422.81 Z" class="st2"/>
					</g>
					<path d="M33.25 428.35 C32.42 428.35 31.86 427.79 31.86 426.96 C31.86 426.13 32.42 425.58 33.25 425.58 C34.08
								 425.58 34.63 426.13 34.63 426.96 C34.63 427.79 34.08 428.35 33.25 428.35 ZM19.39 422.81 C8.73 422.81
								 0 420.31 0 417.27 L0 428.35 C0 431.4 8.73 433.89 19.39 433.89 C30.06 433.89 38.79 431.4 38.79 428.35
								 L38.79 417.27 C38.79 420.31 30.06 422.81 19.39 422.81 Z" class="st5"/>
				</g>
				<g id="shape8-25" v:mID="8" v:groupContext="shape">
					<title>工作表.8</title>
					<g id="shadow8-26" v:groupContext="shadow" v:shadowOffsetX="2.12132" v:shadowOffsetY="-2.12132"
							v:shadowType="1" transform="matrix(1,0,0,1,2.12132,2.12132)" class="st1">
						<path d="M33.25 428.35 C32.42 428.35 31.86 427.79 31.86 426.96 C31.86 426.13 32.42 425.58 33.25 425.58 C34.08
									 425.58 34.63 426.13 34.63 426.96 C34.63 427.79 34.08 428.35 33.25 428.35 ZM19.39 422.81 C8.73
									 422.81 0 420.31 0 417.27 L0 428.35 C0 431.4 8.73 433.89 19.39 433.89 C30.06 433.89 38.79 431.4
									 38.79 428.35 L38.79 417.27 C38.79 420.31 30.06 422.81 19.39 422.81 Z" class="st2"/>
					</g>
					<path d="M33.25 428.35 C32.42 428.35 31.86 427.79 31.86 426.96 C31.86 426.13 32.42 425.58 33.25 425.58 C34.08
								 425.58 34.63 426.13 34.63 426.96 C34.63 427.79 34.08 428.35 33.25 428.35 ZM19.39 422.81 C8.73 422.81
								 0 420.31 0 417.27 L0 428.35 C0 431.4 8.73 433.89 19.39 433.89 C30.06 433.89 38.79 431.4 38.79 428.35
								 L38.79 417.27 C38.79 420.31 30.06 422.81 19.39 422.81 Z" class="st5"/>
				</g>
			</g>
		</g>
		<g id="group9-30" transform="translate(341.014,-210.879)" v:mID="9" v:groupContext="group">
			<title>工作表.9</title>
			<g id="group10-31" v:mID="10" v:groupContext="group">
				<title>Icons</title>
				<g id="shape11-32" v:mID="11" v:groupContext="shape" transform="translate(14.9606,-14.9606)">
					<title>工作表.11</title>
					<g id="shadow11-33" v:groupContext="shadow" v:shadowOffsetX="2.12132" v:shadowOffsetY="-2.12132"
							v:shadowType="1" transform="matrix(1,0,0,1,2.12132,2.12132)" class="st1">
						<path d="M0 433.89 L26.77 433.89 L26.77 407.12 L0 407.12 L0 433.89 ZM1.57 408.69 L25.2 408.69 L25.2 432.32
									 L1.57 432.32 L1.57 408.69 Z" class="st2"/>
					</g>
					<path d="M0 433.89 L26.77 433.89 L26.77 407.12 L0 407.12 L0 433.89 ZM1.57 408.69 L25.2 408.69 L25.2 432.32 L1.57
								 432.32 L1.57 408.69 Z" class="st6"/>
				</g>
				<g id="shape12-37" v:mID="12" v:groupContext="shape">
					<title>工作表.12</title>
					<g id="shadow12-38" v:groupContext="shadow" v:shadowOffsetX="2.12132" v:shadowOffsetY="-2.12132"
							v:shadowType="1" transform="matrix(1,0,0,1,2.12132,2.12132)" class="st1">
						<path d="M56.69 390.58 L56.69 389.01 L49.61 389.01 L49.61 388.22 C49.6 386.05 47.84 384.29 45.67 384.28 L44.88
									 384.28 L44.88 377.2 L43.31 377.2 L43.31 384.28 L38.58 384.28 L38.58 377.2 L37.01 377.2 L37.01
									 384.28 L32.28 384.28 L32.28 377.2 L30.71 377.2 L30.71 384.28 L25.98 384.28 L25.98 377.2 L24.41
									 377.2 L24.41 384.28 L19.69 384.28 L19.69 377.2 L18.11 377.2 L18.11 384.28 L13.39 384.28 L13.39
									 377.2 L11.81 377.2 L11.81 384.28 L11.02 384.28 C8.85 384.29 7.09 386.05 7.09 388.22 L7.09 389.01
									 L0 389.01 L0 390.58 L7.09 390.58 L7.09 395.31 L0 395.31 L0 396.88 L7.09 396.88 L7.09 401.61
									 L0 401.61 L0 403.18 L7.09 403.18 L7.09 407.91 L0 407.91 L0 409.48 L7.09 409.48 L7.09 414.21
									 L0 414.21 L0 415.78 L7.09 415.78 L7.09 420.5 L0 420.5 L0 422.08 L7.09 422.08 L7.09 422.87 C7.09
									 425.04 8.85 426.8 11.02 426.8 L11.81 426.8 L11.81 433.89 L13.39 433.89 L13.39 426.8 L18.11 426.8
									 L18.11 433.89 L19.69 433.89 L19.69 426.8 L24.41 426.8 L24.41 433.89 L25.98 433.89 L25.98 426.8
									 L30.71 426.8 L30.71 433.89 L32.28 433.89 L32.28 426.8 L37.01 426.8 L37.01 433.89 L38.58 433.89
									 L38.58 426.8 L43.31 426.8 L43.31 433.89 L44.88 433.89 L44.88 426.8 L45.67 426.8 C47.84 426.8
									 49.6 425.04 49.61 422.87 L49.61 422.08 L56.69 422.08 L56.69 420.5 L49.61 420.5 L49.61 415.78
									 L56.69 415.78 L56.69 414.21 L49.61 414.21 L49.61 409.48 L56.69 409.48 L56.69 407.91 L49.61 407.91
									 L49.61 403.18 L56.69 403.18 L56.69 401.61 L49.61 401.61 L49.61 396.88 L56.69 396.88 L56.69 395.31
									 L49.61 395.31 L49.61 390.58 L56.69 390.58 ZM48.03 422.87 C48.03 424.17 46.97 425.23 45.67 425.23
									 L11.02 425.23 C9.72 425.23 8.66 424.17 8.66 422.87 L8.66 388.22 C8.66 386.92 9.72 385.86 11.02
									 385.86 L45.67 385.86 C46.97 385.86 48.03 386.92 48.03 388.22 L48.03 422.87 Z" class="st2"/>
					</g>
					<path d="M56.69 390.58 L56.69 389.01 L49.61 389.01 L49.61 388.22 C49.6 386.05 47.84 384.29 45.67 384.28 L44.88
								 384.28 L44.88 377.2 L43.31 377.2 L43.31 384.28 L38.58 384.28 L38.58 377.2 L37.01 377.2 L37.01 384.28
								 L32.28 384.28 L32.28 377.2 L30.71 377.2 L30.71 384.28 L25.98 384.28 L25.98 377.2 L24.41 377.2 L24.41
								 384.28 L19.69 384.28 L19.69 377.2 L18.11 377.2 L18.11 384.28 L13.39 384.28 L13.39 377.2 L11.81 377.2
								 L11.81 384.28 L11.02 384.28 C8.85 384.29 7.09 386.05 7.09 388.22 L7.09 389.01 L0 389.01 L0 390.58
								 L7.09 390.58 L7.09 395.31 L0 395.31 L0 396.88 L7.09 396.88 L7.09 401.61 L0 401.61 L0 403.18 L7.09
								 403.18 L7.09 407.91 L0 407.91 L0 409.48 L7.09 409.48 L7.09 414.21 L0 414.21 L0 415.78 L7.09 415.78
								 L7.09 420.5 L0 420.5 L0 422.08 L7.09 422.08 L7.09 422.87 C7.09 425.04 8.85 426.8 11.02 426.8 L11.81
								 426.8 L11.81 433.89 L13.39 433.89 L13.39 426.8 L18.11 426.8 L18.11 433.89 L19.69 433.89 L19.69 426.8
								 L24.41 426.8 L24.41 433.89 L25.98 433.89 L25.98 426.8 L30.71 426.8 L30.71 433.89 L32.28 433.89 L32.28
								 426.8 L37.01 426.8 L37.01 433.89 L38.58 433.89 L38.58 426.8 L43.31 426.8 L43.31 433.89 L44.88 433.89
								 L44.88 426.8 L45.67 426.8 C47.84 426.8 49.6 425.04 49.61 422.87 L49.61 422.08 L56.69 422.08 L56.69
								 420.5 L49.61 420.5 L49.61 415.78 L56.69 415.78 L56.69 414.21 L49.61 414.21 L49.61 409.48 L56.69
								 409.48 L56.69 407.91 L49.61 407.91 L49.61 403.18 L56.69 403.18 L56.69 401.61 L49.61 401.61 L49.61
								 396.88 L56.69 396.88 L56.69 395.31 L49.61 395.31 L49.61 390.58 L56.69 390.58 ZM48.03 422.87 C48.03
								 424.17 46.97 425.23 45.67 425.23 L11.02 425.23 C9.72 425.23 8.66 424.17 8.66 422.87 L8.66 388.22
								 C8.66 386.92 9.72 385.86 11.02 385.86 L45.67 385.86 C46.97 385.86 48.03 386.92 48.03 388.22 L48.03
								 422.87 Z" class="st6"/>
				</g>
			</g>
		</g>
		<g id="group13-42" transform="translate(176.53,-355.185)" v:mID="13" v:groupContext="group">
			<title>工作表.13</title>
			<g id="group14-43" v:mID="14" v:groupContext="group">
				<title>Icons</title>
				<g id="shape15-44" v:mID="15" v:groupContext="shape">
					<title>工作表.15</title>
					<g id="shadow15-45" v:groupContext="shadow" v:shadowOffsetX="2.12132" v:shadowOffsetY="-2.12132"
							v:shadowType="1" transform="matrix(1,0,0,1,2.12132,2.12132)" class="st1">
						<path d="M56.69 429.17 L34.65 429.17 L34.65 426.02 L29.13 426.02 L29.13 418.93 L50.39 418.93 C52.13 418.93
									 53.54 417.52 53.54 415.78 L53.54 407.91 C53.54 407 53.14 406.14 52.46 405.54 C53.14 404.95 53.54
									 404.09 53.54 403.18 L53.54 395.31 C53.54 394.4 53.14 393.54 52.46 392.95 C53.14 392.35 53.54
									 391.49 53.54 390.58 L53.54 382.71 C53.54 380.97 52.13 379.56 50.39 379.56 L6.3 379.56 C4.56
									 379.56 3.15 380.97 3.15 382.71 L3.15 390.58 C3.15 391.49 3.55 392.35 4.24 392.95 C3.55 393.54
									 3.15 394.4 3.15 395.31 L3.15 403.18 C3.15 404.09 3.55 404.95 4.24 405.54 C3.55 406.14 3.15 407
									 3.15 407.91 L3.15 415.78 C3.15 417.52 4.56 418.93 6.3 418.93 L27.56 418.93 L27.56 426.02 L22.05
									 426.02 L22.05 429.17 L0 429.17 L0 430.74 L22.05 430.74 L22.05 433.89 L34.65 433.89 L34.65 430.74
									 L56.69 430.74 L56.69 429.17 ZM4.72 390.58 L4.72 382.71 C4.72 381.84 5.43 381.13 6.3 381.13 L50.39
									 381.13 C51.26 381.13 51.97 381.84 51.97 382.71 L51.97 390.58 C51.97 391.45 51.26 392.16 50.39
									 392.16 L6.3 392.16 C5.43 392.16 4.72 391.45 4.72 390.58 ZM4.72 403.18 L4.72 395.31 C4.72 394.44
									 5.43 393.73 6.3 393.73 L50.39 393.73 C51.26 393.73 51.97 394.44 51.97 395.31 L51.97 403.18 C51.97
									 404.05 51.26 404.76 50.39 404.76 L6.3 404.76 C5.43 404.76 4.72 404.05 4.72 403.18 ZM4.72 415.78
									 L4.72 407.91 C4.72 407.04 5.43 406.33 6.3 406.33 L50.39 406.33 C51.26 406.33 51.97 407.04 51.97
									 407.91 L51.97 415.78 C51.97 416.65 51.26 417.35 50.39 417.35 L6.3 417.35 C5.43 417.35 4.72 416.65
									 4.72 415.78 ZM33.07 432.32 L23.62 432.32 L23.62 427.59 L33.07 427.59 L33.07 432.32 Z"
								class="st2"/>
					</g>
					<path d="M56.69 429.17 L34.65 429.17 L34.65 426.02 L29.13 426.02 L29.13 418.93 L50.39 418.93 C52.13 418.93 53.54
								 417.52 53.54 415.78 L53.54 407.91 C53.54 407 53.14 406.14 52.46 405.54 C53.14 404.95 53.54 404.09
								 53.54 403.18 L53.54 395.31 C53.54 394.4 53.14 393.54 52.46 392.95 C53.14 392.35 53.54 391.49 53.54
								 390.58 L53.54 382.71 C53.54 380.97 52.13 379.56 50.39 379.56 L6.3 379.56 C4.56 379.56 3.15 380.97
								 3.15 382.71 L3.15 390.58 C3.15 391.49 3.55 392.35 4.24 392.95 C3.55 393.54 3.15 394.4 3.15 395.31
								 L3.15 403.18 C3.15 404.09 3.55 404.95 4.24 405.54 C3.55 406.14 3.15 407 3.15 407.91 L3.15 415.78
								 C3.15 417.52 4.56 418.93 6.3 418.93 L27.56 418.93 L27.56 426.02 L22.05 426.02 L22.05 429.17 L0 429.17
								 L0 430.74 L22.05 430.74 L22.05 433.89 L34.65 433.89 L34.65 430.74 L56.69 430.74 L56.69 429.17 ZM4.72
								 390.58 L4.72 382.71 C4.72 381.84 5.43 381.13 6.3 381.13 L50.39 381.13 C51.26 381.13 51.97 381.84
								 51.97 382.71 L51.97 390.58 C51.97 391.45 51.26 392.16 50.39 392.16 L6.3 392.16 C5.43 392.16 4.72
								 391.45 4.72 390.58 ZM4.72 403.18 L4.72 395.31 C4.72 394.44 5.43 393.73 6.3 393.73 L50.39 393.73
								 C51.26 393.73 51.97 394.44 51.97 395.31 L51.97 403.18 C51.97 404.05 51.26 404.76 50.39 404.76 L6.3
								 404.76 C5.43 404.76 4.72 404.05 4.72 403.18 ZM4.72 415.78 L4.72 407.91 C4.72 407.04 5.43 406.33
								 6.3 406.33 L50.39 406.33 C51.26 406.33 51.97 407.04 51.97 407.91 L51.97 415.78 C51.97 416.65 51.26
								 417.35 50.39 417.35 L6.3 417.35 C5.43 417.35 4.72 416.65 4.72 415.78 ZM33.07 432.32 L23.62 432.32
								 L23.62 427.59 L33.07 427.59 L33.07 432.32 Z" class="st6"/>
				</g>
				<g id="shape16-49" v:mID="16" v:groupContext="shape" transform="translate(9.44882,-45.6693)">
					<title>工作表.16</title>
					<g id="shadow16-50" v:groupContext="shadow" v:shadowOffsetX="2.12132" v:shadowOffsetY="-2.12132"
							v:shadowType="1" transform="matrix(1,0,0,1,2.12132,2.12132)" class="st1">
						<ellipse cx="1.5748" cy="432.315" rx="1.5748" ry="1.5748" class="st2"/>
					</g>
					<ellipse cx="1.5748" cy="432.315" rx="1.5748" ry="1.5748" class="st6"/>
				</g>
				<g id="shape17-54" v:mID="17" v:groupContext="shape" transform="translate(17.3228,-45.6693)">
					<title>工作表.17</title>
					<g id="shadow17-55" v:groupContext="shadow" v:shadowOffsetX="2.12132" v:shadowOffsetY="-2.12132"
							v:shadowType="1" transform="matrix(1,0,0,1,2.12132,2.12132)" class="st1">
						<ellipse cx="1.5748" cy="432.315" rx="1.5748" ry="1.5748" class="st2"/>
					</g>
					<ellipse cx="1.5748" cy="432.315" rx="1.5748" ry="1.5748" class="st6"/>
				</g>
				<g id="shape18-59" v:mID="18" v:groupContext="shape" transform="translate(25.1969,-45.6693)">
					<title>工作表.18</title>
					<g id="shadow18-60" v:groupContext="shadow" v:shadowOffsetX="2.12132" v:shadowOffsetY="-2.12132"
							v:shadowType="1" transform="matrix(1,0,0,1,2.12132,2.12132)" class="st1">
						<ellipse cx="1.5748" cy="432.315" rx="1.5748" ry="1.5748" class="st2"/>
					</g>
					<ellipse cx="1.5748" cy="432.315" rx="1.5748" ry="1.5748" class="st6"/>
				</g>
				<g id="shape19-64" v:mID="19" v:groupContext="shape" transform="translate(9.44882,-33.0709)">
					<title>工作表.19</title>
					<g id="shadow19-65" v:groupContext="shadow" v:shadowOffsetX="2.12132" v:shadowOffsetY="-2.12132"
							v:shadowType="1" transform="matrix(1,0,0,1,2.12132,2.12132)" class="st1">
						<ellipse cx="1.5748" cy="432.315" rx="1.5748" ry="1.5748" class="st2"/>
					</g>
					<ellipse cx="1.5748" cy="432.315" rx="1.5748" ry="1.5748" class="st6"/>
				</g>
				<g id="shape20-69" v:mID="20" v:groupContext="shape" transform="translate(17.3228,-33.0709)">
					<title>工作表.20</title>
					<g id="shadow20-70" v:groupContext="shadow" v:shadowOffsetX="2.12132" v:shadowOffsetY="-2.12132"
							v:shadowType="1" transform="matrix(1,0,0,1,2.12132,2.12132)" class="st1">
						<ellipse cx="1.5748" cy="432.315" rx="1.5748" ry="1.5748" class="st2"/>
					</g>
					<ellipse cx="1.5748" cy="432.315" rx="1.5748" ry="1.5748" class="st6"/>
				</g>
				<g id="shape21-74" v:mID="21" v:groupContext="shape" transform="translate(25.1969,-33.0709)">
					<title>工作表.21</title>
					<g id="shadow21-75" v:groupContext="shadow" v:shadowOffsetX="2.12132" v:shadowOffsetY="-2.12132"
							v:shadowType="1" transform="matrix(1,0,0,1,2.12132,2.12132)" class="st1">
						<ellipse cx="1.5748" cy="432.315" rx="1.5748" ry="1.5748" class="st2"/>
					</g>
					<ellipse cx="1.5748" cy="432.315" rx="1.5748" ry="1.5748" class="st6"/>
				</g>
				<g id="shape22-79" v:mID="22" v:groupContext="shape" transform="translate(9.44882,-20.4724)">
					<title>工作表.22</title>
					<g id="shadow22-80" v:groupContext="shadow" v:shadowOffsetX="2.12132" v:shadowOffsetY="-2.12132"
							v:shadowType="1" transform="matrix(1,0,0,1,2.12132,2.12132)" class="st1">
						<ellipse cx="1.5748" cy="432.315" rx="1.5748" ry="1.5748" class="st2"/>
					</g>
					<ellipse cx="1.5748" cy="432.315" rx="1.5748" ry="1.5748" class="st6"/>
				</g>
				<g id="shape23-84" v:mID="23" v:groupContext="shape" transform="translate(17.3228,-20.4724)">
					<title>工作表.23</title>
					<g id="shadow23-85" v:groupContext="shadow" v:shadowOffsetX="2.12132" v:shadowOffsetY="-2.12132"
							v:shadowType="1" transform="matrix(1,0,0,1,2.12132,2.12132)" class="st1">
						<ellipse cx="1.5748" cy="432.315" rx="1.5748" ry="1.5748" class="st2"/>
					</g>
					<ellipse cx="1.5748" cy="432.315" rx="1.5748" ry="1.5748" class="st6"/>
				</g>
				<g id="shape24-89" v:mID="24" v:groupContext="shape" transform="translate(25.1969,-20.4724)">
					<title>工作表.24</title>
					<g id="shadow24-90" v:groupContext="shadow" v:shadowOffsetX="2.12132" v:shadowOffsetY="-2.12132"
							v:shadowType="1" transform="matrix(1,0,0,1,2.12132,2.12132)" class="st1">
						<ellipse cx="1.5748" cy="432.315" rx="1.5748" ry="1.5748" class="st2"/>
					</g>
					<ellipse cx="1.5748" cy="432.315" rx="1.5748" ry="1.5748" class="st6"/>
				</g>
			</g>
		</g>
		<g id="group25-94" transform="translate(128.784,-151.747)" v:mID="25" v:groupContext="group">
			<title>工作表.25</title>
			<g id="group26-95" transform="translate(52.8466,-118.489) scale(-1,1)" v:mID="26" v:groupContext="group">
				<title>框</title>
				<g id="shape27-96" v:mID="27" v:groupContext="shape">
					<title>工作表.27</title>
					<g id="shadow27-97" v:groupContext="shadow" v:shadowOffsetX="2.12132" v:shadowOffsetY="-2.12132"
							v:shadowType="1" transform="matrix(1,0,0,1,-2.12132,2.12132)" class="st1">
						<path d="M15.1 418.71 L28.47 410.62 L28.47 425.8 L15.1 433.89 L15.1 418.71 ZM19.84 421.07 L19.84 418.06 L16.82
									 419.78 L16.82 422.79 L19.84 421.07 ZM0 412.04 L0 410.62 L13.37 418.71 L13.37 433.89 L0 425.8
									 L0 412.04 ZM28.47 408.6 L22.34 412.3 L8.11 403.7 L14.23 400 L28.47 408.6 ZM6.47 404.69 L20.7
									 413.29 L14.23 417.2 L0 408.6 L6.47 404.69 Z" class="st2"/>
					</g>
					<path d="M15.1 418.71 L28.47 410.62 L28.47 425.8 L15.1 433.89 L15.1 418.71 ZM19.84 421.07 L19.84 418.06 L16.82
								 419.78 L16.82 422.79 L19.84 421.07 ZM0 412.04 L0 410.62 L13.37 418.71 L13.37 433.89 L0 425.8 L0
								 412.04 ZM28.47 408.6 L22.34 412.3 L8.11 403.7 L14.23 400 L28.47 408.6 ZM6.47 404.69 L20.7 413.29
								 L14.23 417.2 L0 408.6 L6.47 404.69 Z" class="st6"/>
				</g>
			</g>
			<g id="group28-101" transform="translate(110.876,-118.489) scale(-1,1)" v:mID="28" v:groupContext="group">
				<title>框.61</title>
				<g id="shape29-102" v:mID="29" v:groupContext="shape">
					<title>工作表.29</title>
					<g id="shadow29-103" v:groupContext="shadow" v:shadowOffsetX="2.12132" v:shadowOffsetY="-2.12132"
							v:shadowType="1" transform="matrix(1,0,0,1,-2.12132,2.12132)" class="st1">
						<path d="M15.1 418.71 L28.47 410.62 L28.47 425.8 L15.1 433.89 L15.1 418.71 ZM19.84 421.07 L19.84 418.06 L16.82
									 419.78 L16.82 422.79 L19.84 421.07 ZM0 412.04 L0 410.62 L13.37 418.71 L13.37 433.89 L0 425.8
									 L0 412.04 ZM28.47 408.6 L22.34 412.3 L8.11 403.7 L14.23 400 L28.47 408.6 ZM6.47 404.69 L20.7
									 413.29 L14.23 417.2 L0 408.6 L6.47 404.69 Z" class="st2"/>
					</g>
					<path d="M15.1 418.71 L28.47 410.62 L28.47 425.8 L15.1 433.89 L15.1 418.71 ZM19.84 421.07 L19.84 418.06 L16.82
								 419.78 L16.82 422.79 L19.84 421.07 ZM0 412.04 L0 410.62 L13.37 418.71 L13.37 433.89 L0 425.8 L0
								 412.04 ZM28.47 408.6 L22.34 412.3 L8.11 403.7 L14.23 400 L28.47 408.6 ZM6.47 404.69 L20.7 413.29
								 L14.23 417.2 L0 408.6 L6.47 404.69 Z" class="st6"/>
				</g>
			</g>
			<g id="shape30-107" v:mID="30" v:groupContext="shape" transform="translate(28.4671,-58.3688) scale(-1,1)">
				<title>工作表.30</title>
				<g id="shadow30-108" v:groupContext="shadow" v:shadowOffsetX="2.12132" v:shadowOffsetY="-2.12132" v:shadowType="1"
						transform="matrix(1,0,0,1,-2.12132,2.12132)" class="st1">
					<path d="M15.1 418.71 L28.47 410.62 L28.47 425.8 L15.1 433.89 L15.1 418.71 ZM19.84 421.07 L19.84 418.06 L16.82
								 419.78 L16.82 422.79 L19.84 421.07 ZM0 412.04 L0 410.62 L13.37 418.71 L13.37 433.89 L0 425.8 L0
								 412.04 ZM28.47 408.6 L22.34 412.3 L8.11 403.7 L14.23 400 L28.47 408.6 ZM6.47 404.69 L20.7 413.29
								 L14.23 417.2 L0 408.6 L6.47 404.69 Z" class="st2"/>
				</g>
				<path d="M15.1 418.71 L28.47 410.62 L28.47 425.8 L15.1 433.89 L15.1 418.71 ZM19.84 421.07 L19.84 418.06 L16.82 419.78
							 L16.82 422.79 L19.84 421.07 ZM0 412.04 L0 410.62 L13.37 418.71 L13.37 433.89 L0 425.8 L0 412.04 ZM28.47
							 408.6 L22.34 412.3 L8.11 403.7 L14.23 400 L28.47 408.6 ZM6.47 404.69 L20.7 413.29 L14.23 417.2 L0 408.6
							 L6.47 404.69 Z" class="st6"/>
			</g>
			<g id="group31-112" transform="translate(88.832,-58.3688) scale(-1,1)" v:mID="31" v:groupContext="group">
				<title>框.65</title>
				<g id="shape32-113" v:mID="32" v:groupContext="shape">
					<title>工作表.32</title>
					<g id="shadow32-114" v:groupContext="shadow" v:shadowOffsetX="2.12132" v:shadowOffsetY="-2.12132"
							v:shadowType="1" transform="matrix(1,0,0,1,-2.12132,2.12132)" class="st1">
						<path d="M15.1 418.71 L28.47 410.62 L28.47 425.8 L15.1 433.89 L15.1 418.71 ZM19.84 421.07 L19.84 418.06 L16.82
									 419.78 L16.82 422.79 L19.84 421.07 ZM0 412.04 L0 410.62 L13.37 418.71 L13.37 433.89 L0 425.8
									 L0 412.04 ZM28.47 408.6 L22.34 412.3 L8.11 403.7 L14.23 400 L28.47 408.6 ZM6.47 404.69 L20.7
									 413.29 L14.23 417.2 L0 408.6 L6.47 404.69 Z" class="st2"/>
					</g>
					<path d="M15.1 418.71 L28.47 410.62 L28.47 425.8 L15.1 433.89 L15.1 418.71 ZM19.84 421.07 L19.84 418.06 L16.82
								 419.78 L16.82 422.79 L19.84 421.07 ZM0 412.04 L0 410.62 L13.37 418.71 L13.37 433.89 L0 425.8 L0
								 412.04 ZM28.47 408.6 L22.34 412.3 L8.11 403.7 L14.23 400 L28.47 408.6 ZM6.47 404.69 L20.7 413.29
								 L14.23 417.2 L0 408.6 L6.47 404.69 Z" class="st6"/>
				</g>
			</g>
			<g id="group33-118" transform="translate(149.197,-58.3688) scale(-1,1)" v:mID="33" v:groupContext="group">
				<title>框.67</title>
				<g id="shape34-119" v:mID="34" v:groupContext="shape">
					<title>工作表.34</title>
					<g id="shadow34-120" v:groupContext="shadow" v:shadowOffsetX="2.12132" v:shadowOffsetY="-2.12132"
							v:shadowType="1" transform="matrix(1,0,0,1,-2.12132,2.12132)" class="st1">
						<path d="M15.1 418.71 L28.47 410.62 L28.47 425.8 L15.1 433.89 L15.1 418.71 ZM19.84 421.07 L19.84 418.06 L16.82
									 419.78 L16.82 422.79 L19.84 421.07 ZM0 412.04 L0 410.62 L13.37 418.71 L13.37 433.89 L0 425.8
									 L0 412.04 ZM28.47 408.6 L22.34 412.3 L8.11 403.7 L14.23 400 L28.47 408.6 ZM6.47 404.69 L20.7
									 413.29 L14.23 417.2 L0 408.6 L6.47 404.69 Z" class="st2"/>
					</g>
					<path d="M15.1 418.71 L28.47 410.62 L28.47 425.8 L15.1 433.89 L15.1 418.71 ZM19.84 421.07 L19.84 418.06 L16.82
								 419.78 L16.82 422.79 L19.84 421.07 ZM0 412.04 L0 410.62 L13.37 418.71 L13.37 433.89 L0 425.8 L0
								 412.04 ZM28.47 408.6 L22.34 412.3 L8.11 403.7 L14.23 400 L28.47 408.6 ZM6.47 404.69 L20.7 413.29
								 L14.23 417.2 L0 408.6 L6.47 404.69 Z" class="st6"/>
				</g>
			</g>
			<g id="group35-124" transform="translate(52.8466,-7.38964E-13) scale(-1,1)" v:mID="35" v:groupContext="group">
				<title>框.69</title>
				<g id="shape36-125" v:mID="36" v:groupContext="shape">
					<title>工作表.36</title>
					<g id="shadow36-126" v:groupContext="shadow" v:shadowOffsetX="2.12132" v:shadowOffsetY="-2.12132"
							v:shadowType="1" transform="matrix(1,0,0,1,-2.12132,2.12132)" class="st1">
						<path d="M15.1 418.71 L28.47 410.62 L28.47 425.8 L15.1 433.89 L15.1 418.71 ZM19.84 421.07 L19.84 418.06 L16.82
									 419.78 L16.82 422.79 L19.84 421.07 ZM0 412.04 L0 410.62 L13.37 418.71 L13.37 433.89 L0 425.8
									 L0 412.04 ZM28.47 408.6 L22.34 412.3 L8.11 403.7 L14.23 400 L28.47 408.6 ZM6.47 404.69 L20.7
									 413.29 L14.23 417.2 L0 408.6 L6.47 404.69 Z" class="st2"/>
					</g>
					<path d="M15.1 418.71 L28.47 410.62 L28.47 425.8 L15.1 433.89 L15.1 418.71 ZM19.84 421.07 L19.84 418.06 L16.82
								 419.78 L16.82 422.79 L19.84 421.07 ZM0 412.04 L0 410.62 L13.37 418.71 L13.37 433.89 L0 425.8 L0
								 412.04 ZM28.47 408.6 L22.34 412.3 L8.11 403.7 L14.23 400 L28.47 408.6 ZM6.47 404.69 L20.7 413.29
								 L14.23 417.2 L0 408.6 L6.47 404.69 Z" class="st6"/>
				</g>
			</g>
			<g id="group37-130" transform="translate(110.876,-7.38964E-13) scale(-1,1)" v:mID="37" v:groupContext="group">
				<title>框.71</title>
				<g id="shape38-131" v:mID="38" v:groupContext="shape">
					<title>工作表.38</title>
					<g id="shadow38-132" v:groupContext="shadow" v:shadowOffsetX="2.12132" v:shadowOffsetY="-2.12132"
							v:shadowType="1" transform="matrix(1,0,0,1,-2.12132,2.12132)" class="st1">
						<path d="M15.1 418.71 L28.47 410.62 L28.47 425.8 L15.1 433.89 L15.1 418.71 ZM19.84 421.07 L19.84 418.06 L16.82
									 419.78 L16.82 422.79 L19.84 421.07 ZM0 412.04 L0 410.62 L13.37 418.71 L13.37 433.89 L0 425.8
									 L0 412.04 ZM28.47 408.6 L22.34 412.3 L8.11 403.7 L14.23 400 L28.47 408.6 ZM6.47 404.69 L20.7
									 413.29 L14.23 417.2 L0 408.6 L6.47 404.69 Z" class="st2"/>
					</g>
					<path d="M15.1 418.71 L28.47 410.62 L28.47 425.8 L15.1 433.89 L15.1 418.71 ZM19.84 421.07 L19.84 418.06 L16.82
								 419.78 L16.82 422.79 L19.84 421.07 ZM0 412.04 L0 410.62 L13.37 418.71 L13.37 433.89 L0 425.8 L0
								 412.04 ZM28.47 408.6 L22.34 412.3 L8.11 403.7 L14.23 400 L28.47 408.6 ZM6.47 404.69 L20.7 413.29
								 L14.23 417.2 L0 408.6 L6.47 404.69 Z" class="st6"/>
				</g>
			</g>
			<g id="shape39-136" v:mID="39" v:groupContext="shape" transform="translate(256.079,3.54959) rotate(33.0034)">
				<title>工作表.39</title>
				<g id="shadow39-137" v:groupContext="shadow" v:shadowOffsetX="2.12132" v:shadowOffsetY="-2.12132" v:shadowType="1"
						transform="matrix(1,0,0,1,2.93448,0.623563)" class="st1">
					<path d="M0 433.89 L76.32 433.89" class="st7"/>
				</g>
				<path d="M0 433.89 L76.32 433.89" class="st8"/>
			</g>
			<g id="shape40-144" v:mID="40" v:groupContext="shape" transform="translate(-143.12,-14.4319) rotate(-32.3159)">
				<title>工作表.40</title>
				<g id="shadow40-145" v:groupContext="shadow" v:shadowOffsetX="2.12132" v:shadowOffsetY="-2.12132" v:shadowType="1"
						transform="matrix(1,0,0,1,0.658727,2.92679)" class="st1">
					<path d="M0 433.89 L53.4 433.89" class="st7"/>
				</g>
				<path d="M0 433.89 L53.4 433.89" class="st8"/>
			</g>
			<g id="shape41-152" v:mID="41" v:groupContext="shape" transform="translate(-121.734,43.2689) rotate(-32.3023)">
				<title>工作表.41</title>
				<g id="shadow41-153" v:groupContext="shadow" v:shadowOffsetX="2.12132" v:shadowOffsetY="-2.12132" v:shadowType="1"
						transform="matrix(1,5.55112E-17,-5.55112E-17,1,0.659422,2.92663)" class="st1">
					<path d="M0 433.89 L25.49 433.89" class="st7"/>
				</g>
				<path d="M0 433.89 L25.49 433.89" class="st8"/>
			</g>
			<g id="shape42-160" v:mID="42" v:groupContext="shape" transform="translate(317.375,-0.25618) rotate(32.9052)">
				<title>工作表.42</title>
				<g id="shadow42-161" v:groupContext="shadow" v:shadowOffsetX="2.12132" v:shadowOffsetY="-2.12132" v:shadowType="1"
						transform="matrix(1,0,0,1,2.93341,0.628587)" class="st1">
					<path d="M0 433.89 L59.57 433.89" class="st7"/>
				</g>
				<path d="M0 433.89 L59.57 433.89" class="st8"/>
			</g>
			<g id="shape43-168" v:mID="43" v:groupContext="shape" transform="translate(-180.609,43.6891) rotate(-32.3573)">
				<title>工作表.43</title>
				<g id="shadow43-169" v:groupContext="shadow" v:shadowOffsetX="2.12132" v:shadowOffsetY="-2.12132" v:shadowType="1"
						transform="matrix(1,-5.55112E-17,5.55112E-17,1,0.656609,2.92726)" class="st1">
					<path d="M0 433.89 L88.08 433.89" class="st7"/>
				</g>
				<path d="M0 433.89 L88.08 433.89" class="st8"/>
			</g>
			<g id="shape44-176" v:mID="44" v:groupContext="shape" transform="translate(281.989,-60.2017) rotate(32.9052)">
				<title>工作表.44</title>
				<g id="shadow44-177" v:groupContext="shadow" v:shadowOffsetX="2.12132" v:shadowOffsetY="-2.12132" v:shadowType="1"
						transform="matrix(1,0,0,1,2.93341,0.628587)" class="st1">
					<path d="M0 433.89 L88.68 433.89" class="st7"/>
				</g>
				<path d="M0 433.89 L88.68 433.89" class="st8"/>
			</g>
			<g id="shape45-184" v:mID="45" v:groupContext="shape" transform="translate(340.018,-59.7608) rotate(32.9052)">
				<title>工作表.45</title>
				<g id="shadow45-185" v:groupContext="shadow" v:shadowOffsetX="2.12132" v:shadowOffsetY="-2.12132" v:shadowType="1"
						transform="matrix(1,0,0,1,2.93341,0.628587)" class="st1">
					<path d="M0 433.89 L35.32 433.89" class="st7"/>
				</g>
				<path d="M0 433.89 L35.32 433.89" class="st8"/>
			</g>
			<g id="shape46-192" v:mID="46" v:groupContext="shape" transform="translate(-218.356,-14.8003) rotate(-32.3573)">
				<title>工作表.46</title>
				<g id="shadow46-193" v:groupContext="shadow" v:shadowOffsetX="2.12132" v:shadowOffsetY="-2.12132" v:shadowType="1"
						transform="matrix(1,-5.55112E-17,5.55112E-17,1,0.656609,2.92726)" class="st1">
					<path d="M0 433.89 L88.08 433.89" class="st7"/>
				</g>
				<path d="M0 433.89 L88.08 433.89" class="st8"/>
			</g>
			<g id="shape47-200" v:mID="47" v:groupContext="shape" transform="translate(-197.389,18.9519) rotate(-33.3581)">
				<title>工作表.47</title>
				<g id="shadow47-201" v:groupContext="shadow" v:shadowOffsetX="2.12132" v:shadowOffsetY="-2.12132" v:shadowType="1"
						transform="matrix(1,0,0,1,0.60538,2.93828)" class="st1">
					<path d="M0 433.89 L28.97 433.89" class="st7"/>
				</g>
				<path d="M0 433.89 L28.97 433.89" class="st8"/>
			</g>
		</g>
		<g id="group48-208" transform="translate(19.8787,-217.227)" v:mID="48" v:groupContext="group">
			<title>工作表.48</title>
			<g id="group49-209" v:mID="49" v:groupContext="group">
				<title>工作表.49</title>
				<g id="group50-210" v:mID="50" v:groupContext="group">
					<title>Icons</title>
					<g id="shape51-211" v:mID="51" v:groupContext="shape" transform="translate(11.8459,-26.6533)">
						<title>工作表.51</title>
						<g id="shadow51-212" v:groupContext="shadow" v:shadowOffsetX="2.12132" v:shadowOffsetY="-2.12132"
								v:shadowType="1" transform="matrix(1,0,0,1,2.12132,2.12132)" class="st1">
							<path d="M11.85 411.68 C17.57 411.68 22.21 416.32 22.21 422.04 C22.21 427.77 17.57 432.41 11.85 432.41
										 C6.12 432.41 1.48 427.77 1.48 422.04 C1.49 416.32 6.12 411.68 11.85 411.68 ZM11.85 410.2
										 C5.3 410.2 0 415.5 0 422.04 C0 428.59 5.3 433.89 11.85 433.89 C18.39 433.89 23.69 428.59
										 23.69 422.04 C23.69 415.5 18.39 410.2 11.85 410.2 Z" class="st2"/>
						</g>
						<path d="M11.85 411.68 C17.57 411.68 22.21 416.32 22.21 422.04 C22.21 427.77 17.57 432.41 11.85 432.41 C6.12
									 432.41 1.48 427.77 1.48 422.04 C1.49 416.32 6.12 411.68 11.85 411.68 ZM11.85 410.2 C5.3 410.2
									 0 415.5 0 422.04 C0 428.59 5.3 433.89 11.85 433.89 C18.39 433.89 23.69 428.59 23.69 422.04 C23.69
									 415.5 18.39 410.2 11.85 410.2 Z" class="st5"/>
					</g>
					<g id="shape52-216" v:mID="52" v:groupContext="shape">
						<title>工作表.52</title>
						<g id="shadow52-217" v:groupContext="shadow" v:shadowOffsetX="2.12132" v:shadowOffsetY="-2.12132"
								v:shadowType="1" transform="matrix(1,0,0,1,2.12132,2.12132)" class="st1">
							<path d="M47.38 433.89 L45.9 433.89 L45.9 422.41 C45.87 420.84 45.13 419.37 43.89 418.4 C40.64 415.91
										 36.92 414.1 32.96 413.09 C29.95 412.16 26.83 411.69 23.69 411.68 C20.55 411.73 17.43 412.21
										 14.42 413.09 C10.5 414.23 6.79 416.04 3.47 418.42 C2.24 419.38 1.51 420.85 1.48 422.41 L1.48
										 433.89 L0 433.89 L0 422.41 C0.04 420.39 0.98 418.49 2.57 417.25 C6.05 414.75 9.92 412.86
										 14.02 411.66 C17.16 410.75 20.42 410.25 23.69 410.2 C26.97 410.21 30.24 410.7 33.37 411.66
										 C37.53 412.73 41.42 414.63 44.82 417.25 C46.41 418.5 47.35 420.39 47.38 422.41 L47.38 433.89
										 Z" class="st2"/>
						</g>
						<path d="M47.38 433.89 L45.9 433.89 L45.9 422.41 C45.87 420.84 45.13 419.37 43.89 418.4 C40.64 415.91 36.92
									 414.1 32.96 413.09 C29.95 412.16 26.83 411.69 23.69 411.68 C20.55 411.73 17.43 412.21 14.42
									 413.09 C10.5 414.23 6.79 416.04 3.47 418.42 C2.24 419.38 1.51 420.85 1.48 422.41 L1.48 433.89
									 L0 433.89 L0 422.41 C0.04 420.39 0.98 418.49 2.57 417.25 C6.05 414.75 9.92 412.86 14.02 411.66
									 C17.16 410.75 20.42 410.25 23.69 410.2 C26.97 410.21 30.24 410.7 33.37 411.66 C37.53 412.73
									 41.42 414.63 44.82 417.25 C46.41 418.5 47.35 420.39 47.38 422.41 L47.38 433.89 Z" class="st5"/>
					</g>
				</g>
			</g>
			<g id="group53-221" transform="translate(27.9283,-5.11591E-13)" v:mID="53" v:groupContext="group">
				<title>工作表.53</title>
				<g id="shape54-222" v:mID="54" v:groupContext="shape" transform="translate(0,-1.03257)">
					<title>工作表.54</title>
					<g id="shadow54-223" v:groupContext="shadow" v:shadowOffsetX="2.12132" v:shadowOffsetY="-2.12132"
							v:shadowType="1" transform="matrix(1,0,0,1,2.12132,2.12132)" class="st1">
						<path d="M7.34 420.54 L25.81 420.54 L25.81 418.7 C25.81 417.89 25.15 417.22 24.34 417.22 L13.28 417.22 L9.22
									 414.53 C8.96 414.38 8.7 414.27 8.41 414.27 L1.48 414.27 C0.66 414.27 0 414.94 0 415.75 L0 433.82
									 C0 433.89 4.76 422.27 4.76 422.27 C5.2 421.24 6.2 420.54 7.34 420.54 Z" class="st2"/>
					</g>
					<path d="M7.34 420.54 L25.81 420.54 L25.81 418.7 C25.81 417.89 25.15 417.22 24.34 417.22 L13.28 417.22 L9.22
								 414.53 C8.96 414.38 8.7 414.27 8.41 414.27 L1.48 414.27 C0.66 414.27 0 414.94 0 415.75 L0 433.82
								 C0 433.89 4.76 422.27 4.76 422.27 C5.2 421.24 6.2 420.54 7.34 420.54 Z" class="st5"/>
				</g>
				<g id="shape55-227" v:mID="55" v:groupContext="shape" transform="translate(1.10633,0)">
					<title>工作表.55</title>
					<g id="shadow55-228" v:groupContext="shadow" v:shadowOffsetX="2.12132" v:shadowOffsetY="-2.12132"
							v:shadowType="1" transform="matrix(1,0,0,1,2.12132,2.12132)" class="st1">
						<path d="M27.66 422.46 C27.66 421.68 27.11 421.06 26.33 420.98 L6.23 420.98 C5.68 420.98 5.2 421.31 4.98
									 421.79 L0 433.89 L22.5 433.89 L27.51 423.12 C27.62 422.9 27.66 422.68 27.66 422.46 Z"
								class="st2"/>
					</g>
					<path d="M27.66 422.46 C27.66 421.68 27.11 421.06 26.33 420.98 L6.23 420.98 C5.68 420.98 5.2 421.31 4.98 421.79
								 L0 433.89 L22.5 433.89 L27.51 423.12 C27.62 422.9 27.66 422.68 27.66 422.46 Z" class="st5"/>
				</g>
			</g>
		</g>
		<g id="shape56-232" v:mID="56" v:groupContext="shape" transform="translate(23.0192,-184.025)">
			<title>矩形.160</title>
			<desc>User</desc>
			<v:userDefs>
				<v:ud v:nameU="visVersion" v:val="VT0(15):26"/>
			</v:userDefs>
			<v:textBlock v:margins="rect(4,4,4,4)" v:tabSpace="42.5197"/>
			<v:textRect cx="19.9843" cy="419.717" width="39.97" height="28.3465"/>
			<rect x="0" y="405.544" width="39.9685" height="28.3465" class="st9"/>
			<text x="8.71" y="423.32" class="st10" v:langID="2052"><v:paragraph v:horizAlign="1"/><v:tabList/>User</text>		</g>
		<g id="shape57-235" v:mID="57" v:groupContext="shape" transform="translate(162.357,-324.265)">
			<title>矩形.104</title>
			<desc>CESS Portal</desc>
			<v:userDefs>
				<v:ud v:nameU="visVersion" v:val="VT0(15):26"/>
			</v:userDefs>
			<v:textBlock v:margins="rect(4,4,4,4)" v:tabSpace="42.5197"/>
			<v:textRect cx="42.1467" cy="419.717" width="84.3" height="28.3465"/>
			<rect x="0" y="405.544" width="84.2934" height="28.3465" class="st9"/>
			<text x="9.93" y="423.92" class="st11" v:langID="2052"><v:paragraph v:horizAlign="1"/><v:tabList/>CESS Portal</text>		</g>
		<g id="shape58-238" v:mID="58" v:groupContext="shape" transform="translate(317.516,-185.142)">
			<title>矩形.105</title>
			<desc>CESS Scheduler</desc>
			<v:userDefs>
				<v:ud v:nameU="visVersion" v:val="VT0(15):26"/>
			</v:userDefs>
			<v:textBlock v:margins="rect(4,4,4,4)" v:tabSpace="42.5197"/>
			<v:textRect cx="52.5143" cy="419.717" width="105.03" height="28.3465"/>
			<rect x="0" y="405.544" width="105.029" height="28.3465" class="st9"/>
			<text x="9.13" y="423.92" class="st11" v:langID="2052"><v:paragraph v:horizAlign="1"/><v:tabList/>CESS Scheduler</text>		</g>
		<g id="shape59-241" v:mID="59" v:groupContext="shape" transform="translate(161.611,-18.25)">
			<title>矩形.106</title>
			<desc>CESS Bucket</desc>
			<v:userDefs>
				<v:ud v:nameU="visVersion" v:val="VT0(15):26"/>
			</v:userDefs>
			<v:textBlock v:margins="rect(4,4,4,4)" v:tabSpace="42.5197"/>
			<v:textRect cx="42.1467" cy="419.717" width="84.3" height="28.3465"/>
			<rect x="0" y="405.544" width="84.2934" height="28.3465" class="st9"/>
			<text x="7.53" y="423.92" class="st11" v:langID="2052"><v:paragraph v:horizAlign="1"/><v:tabList/>CESS Bucket</text>		</g>
		<g id="shape60-244" v:mID="60" v:groupContext="shape" transform="translate(144.078,-120.618)">
			<title>矩形.107</title>
			<desc>CESS Network</desc>
			<v:userDefs>
				<v:ud v:nameU="visVersion" v:val="VT0(15):26"/>
			</v:userDefs>
			<v:textBlock v:margins="rect(4,4,4,4)" v:tabSpace="42.5197"/>
			<v:textRect cx="52.5143" cy="419.717" width="105.03" height="28.3465"/>
			<rect x="0" y="405.544" width="105.029" height="28.3465" class="st9"/>
			<text x="12.69" y="423.92" class="st11" v:langID="2052"><v:paragraph v:horizAlign="1"/><v:tabList/>CESS Network</text>		</g>
		<g id="group61-247" transform="translate(727.963,70.4707) rotate(90)" v:mID="61" v:groupContext="group">
			<title>方向.186</title>
			<g id="shape62-248" v:mID="62" v:groupContext="shape">
				<title>工作表.62</title>
				<path d="M21.45 410.46 L4.99 416.47 L12.09 419.25 L13.06 419.64 L13.42 420.7 L15.96 428.47 L21.45 410.46 ZM23.61
							 407.24 C23.89 407.24 24.11 407.4 24.22 407.56 C24.36 407.75 24.4 408.03 24.32 408.3 L16.72 433.3 C16.61
							 433.65 16.32 433.89 16 433.89 C15.68 433.89 15.39 433.65 15.28 433.3 L11.37 421.45 L0.54 417.17 C0.22
							 417.05 0 416.74 0 416.39 C0 416.03 0.22 415.72 0.54 415.6 L23.36 407.28 C23.43 407.24 23.53 407.24 23.61
							 407.24 Z" class="st12"/>
			</g>
		</g>
		<g id="group63-250" transform="translate(454.021,712.608) rotate(165)" v:mID="63" v:groupContext="group">
			<title>方向.188</title>
			<g id="shape64-251" v:mID="64" v:groupContext="shape">
				<title>工作表.64</title>
				<path d="M23.47 412.47 L5.46 417.96 L13.23 420.51 L14.29 420.87 L14.68 421.84 L17.46 428.94 L23.47 412.47 ZM25.82
							 409.53 C26.14 409.53 26.37 409.67 26.49 409.82 C26.65 410 26.69 410.25 26.61 410.5 L18.29 433.35 C18.17
							 433.68 17.86 433.89 17.5 433.89 C17.15 433.89 16.84 433.68 16.72 433.35 L12.44 422.52 L0.59 418.61 C0.24
							 418.5 0 418.21 0 417.89 C0 417.57 0.24 417.28 0.59 417.17 L25.55 409.57 C25.63 409.53 25.75 409.53 25.82
							 409.53 Z" class="st12"/>
			</g>
		</g>
		<g id="group65-253" transform="translate(-46.0916,-293.813) rotate(-15)" v:mID="65" v:groupContext="group">
			<title>方向.192</title>
			<g id="shape66-254" v:mID="66" v:groupContext="shape">
				<title>工作表.66</title>
				<path d="M23.47 412.47 L5.46 417.96 L13.23 420.51 L14.29 420.87 L14.68 421.84 L17.46 428.94 L23.47 412.47 ZM25.82
							 409.53 C26.14 409.53 26.37 409.67 26.49 409.82 C26.65 410 26.69 410.25 26.61 410.5 L18.29 433.35 C18.17
							 433.68 17.86 433.89 17.5 433.89 C17.15 433.89 16.84 433.68 16.72 433.35 L12.44 422.52 L0.59 418.61 C0.24
							 418.5 0 418.21 0 417.89 C0 417.57 0.24 417.28 0.59 417.17 L25.55 409.57 C25.63 409.53 25.75 409.53 25.82
							 409.53 Z" class="st12"/>
			</g>
		</g>
		<g id="group67-256" transform="translate(-329.668,214.636) rotate(-75)" v:mID="67" v:groupContext="group">
			<title>方向.221</title>
			<g id="shape68-257" v:mID="68" v:groupContext="shape">
				<title>工作表.68</title>
				<path d="M21.45 410.46 L4.99 416.47 L12.09 419.25 L13.06 419.64 L13.42 420.7 L15.96 428.47 L21.45 410.46 ZM23.61
							 407.24 C23.89 407.24 24.11 407.4 24.22 407.56 C24.36 407.75 24.4 408.03 24.32 408.3 L16.72 433.3 C16.61
							 433.65 16.32 433.89 16 433.89 C15.68 433.89 15.39 433.65 15.28 433.3 L11.37 421.45 L0.54 417.17 C0.22
							 417.05 0 416.74 0 416.39 C0 416.03 0.22 415.72 0.54 415.6 L23.36 407.28 C23.43 407.24 23.53 407.24 23.61
							 407.24 Z" class="st12"/>
			</g>
		</g>
	</g>
</svg>
