<?xml version="1.0" encoding="UTF-8" standalone="no"?>
<!DOCTYPE svg PUBLIC "-//W3C//DTD SVG 1.1//EN" "http://www.w3.org/Graphics/SVG/1.1/DTD/svg11.dtd">
<!-- 由 Microsoft Visio, SVG Export 生成 podr2-4.svg Page-1 -->
<svg xmlns="http://www.w3.org/2000/svg" xmlns:xlink="http://www.w3.org/1999/xlink" xmlns:ev="http://www.w3.org/2001/xml-events"
		xmlns:v="http://schemas.microsoft.com/visio/2003/SVGExtensions/" width="11.6822in" height="7.86322in"
		viewBox="0 0 841.119 566.152" xml:space="preserve" color-interpolation-filters="sRGB" class="st24">
	<v:documentProperties v:langID="2052" v:metric="true" v:viewMarkup="false"/>

	<style type="text/css">
	<![CDATA[
		.st1 {visibility:visible}
		.st2 {fill:#000000;fill-opacity:0.4;filter:url(#filter_2.6666667461395);stroke:none;stroke-linecap:butt}
		.st3 {fill:#bf9000;stroke:none;stroke-linecap:butt;stroke-width:0.75}
		.st4 {fill:#0070c0;stroke:none;stroke-linecap:butt;stroke-width:6.375}
		.st5 {fill:none;stroke:none;stroke-width:0.25}
		.st6 {fill:#000000;font-family:Calibri;font-size:1.16666em}
		.st7 {stroke:#bf9000;stroke-linecap:round;stroke-linejoin:round;stroke-width:3}
		.st8 {stroke:#4672c4;stroke-linecap:round;stroke-linejoin:round;stroke-width:3}
		.st9 {fill:#538135;stroke:none;stroke-linecap:butt;stroke-width:0.75}
		.st10 {stroke:#538135;stroke-linecap:round;stroke-linejoin:round;stroke-width:3}
		.st11 {marker-start:url(#mrkr5-82);stroke:#bf9000;stroke-dasharray:10.5,7.5,0,7.5;stroke-linecap:round;stroke-linejoin:round;stroke-width:1.5}
		.st12 {fill:#bf9000;fill-opacity:1;stroke:#bf9000;stroke-opacity:1;stroke-width:0.37313432835821}
		.st13 {fill:#000000;font-family:Calibri;font-size:1.16666em;font-weight:bold}
		.st14 {marker-end:url(#mrkr5-91);stroke:#4672c4;stroke-dasharray:10.5,7.5,0.01,7.5;stroke-width:1.5}
		.st15 {fill:#4672c4;fill-opacity:1;stroke:#4672c4;stroke-opacity:1;stroke-width:0.37313432835821}
		.st16 {font-size:1em;font-style:italic}
		.st17 {marker-start:url(#mrkr5-121);stroke:#4672c4;stroke-dasharray:10.5,7.5,0,7.5;stroke-linecap:round;stroke-linejoin:round;stroke-width:1.5}
		.st18 {fill:#7030a0;stroke:none;stroke-linecap:butt;stroke-width:6.375}
		.st19 {stroke:#7030a0;stroke-linecap:round;stroke-linejoin:round;stroke-width:3}
		.st20 {marker-start:url(#mrkr5-167);stroke:#538135;stroke-dasharray:10.5,7.5,0,7.5;stroke-linecap:round;stroke-linejoin:round;stroke-width:1.5}
		.st21 {fill:#538135;fill-opacity:1;stroke:#538135;stroke-opacity:1;stroke-width:0.37313432835821}
		.st22 {marker-end:url(#mrkr5-184);stroke:#538135;stroke-dasharray:10.5,7.5,0.01,7.5;stroke-width:1.5}
		.st23 {fill:#7f7f7f;stroke:none;stroke-linecap:butt;stroke-width:6.375}
		.st24 {fill:none;fill-rule:evenodd;font-size:12px;overflow:visible;stroke-linecap:square;stroke-miterlimit:3}
	]]>
	</style>

	<defs id="Markers">
		<g id="lend5">
			<path d="M 2 1 L 0 0 L 1.98117 -0.993387 C 1.67173 -0.364515 1.67301 0.372641 1.98465 1.00043 " style="stroke:none"/>
		</g>
		<marker id="mrkr5-82" class="st12" v:arrowType="5" v:arrowSize="2" v:setback="4.45" refX="4.45" orient="auto"
				markerUnits="strokeWidth" overflow="visible">
			<use xlink:href="#lend5" transform="scale(2.68) "/>
		</marker>
		<marker id="mrkr5-91" class="st15" v:arrowType="5" v:arrowSize="2" v:setback="4.45" refX="-4.45" orient="auto"
				markerUnits="strokeWidth" overflow="visible">
			<use xlink:href="#lend5" transform="scale(-2.68,-2.68) "/>
		</marker>
		<marker id="mrkr5-121" class="st15" v:arrowType="5" v:arrowSize="2" v:setback="4.45" refX="4.45" orient="auto"
				markerUnits="strokeWidth" overflow="visible">
			<use xlink:href="#lend5" transform="scale(2.68) "/>
		</marker>
		<marker id="mrkr5-167" class="st21" v:arrowType="5" v:arrowSize="2" v:setback="4.45" refX="4.45" orient="auto"
				markerUnits="strokeWidth" overflow="visible">
			<use xlink:href="#lend5" transform="scale(2.68) "/>
		</marker>
		<marker id="mrkr5-184" class="st21" v:arrowType="5" v:arrowSize="2" v:setback="4.45" refX="-4.45" orient="auto"
				markerUnits="strokeWidth" overflow="visible">
			<use xlink:href="#lend5" transform="scale(-2.68,-2.68) "/>
		</marker>
	</defs>
	<defs id="Filters">
		<filter id="filter_2.6666667461395">
			<feGaussianBlur stdDeviation="2.6666667461395"/>
		</filter>
	</defs>
	<g v:mID="0" v:index="1" v:groupContext="foregroundPage">
		<title>页-1</title>
		<v:pageProperties v:drawingScale="0.0393701" v:pageScale="0.0393701" v:drawingUnits="24" v:shadowOffsetX="9"
				v:shadowOffsetY="-9"/>
		<g id="group1-1" transform="translate(45.2525,-489.451)" v:mID="1" v:groupContext="group">
			<title>工作表.1</title>
			<g id="group2-2" v:mID="2" v:groupContext="group">
				<title>工作表.2</title>
				<g id="group3-3" v:mID="3" v:groupContext="group">
					<title>Icons</title>
					<g id="shape4-4" v:mID="4" v:groupContext="shape" transform="translate(11.8459,-26.6533)">
						<title>工作表.4</title>
						<g id="shadow4-5" v:groupContext="shadow" v:shadowOffsetX="2.12132" v:shadowOffsetY="-2.12132"
								v:shadowType="1" transform="matrix(1,0,0,1,2.12132,2.12132)" class="st1">
							<path d="M11.85 543.94 C17.57 543.94 22.21 548.58 22.21 554.31 C22.21 560.03 17.57 564.67 11.85 564.67
										 C6.12 564.67 1.48 560.03 1.48 554.31 C1.49 548.58 6.12 543.95 11.85 543.94 ZM11.85 542.46
										 C5.3 542.46 0 547.76 0 554.31 C0 560.85 5.3 566.15 11.85 566.15 C18.39 566.15 23.69 560.85
										 23.69 554.31 C23.69 547.76 18.39 542.46 11.85 542.46 Z" class="st2"/>
						</g>
						<path d="M11.85 543.94 C17.57 543.94 22.21 548.58 22.21 554.31 C22.21 560.03 17.57 564.67 11.85 564.67 C6.12
									 564.67 1.48 560.03 1.48 554.31 C1.49 548.58 6.12 543.95 11.85 543.94 ZM11.85 542.46 C5.3 542.46
									 0 547.76 0 554.31 C0 560.85 5.3 566.15 11.85 566.15 C18.39 566.15 23.69 560.85 23.69 554.31
									 C23.69 547.76 18.39 542.46 11.85 542.46 Z" class="st3"/>
					</g>
					<g id="shape5-9" v:mID="5" v:groupContext="shape">
						<title>工作表.5</title>
						<g id="shadow5-10" v:groupContext="shadow" v:shadowOffsetX="2.12132" v:shadowOffsetY="-2.12132"
								v:shadowType="1" transform="matrix(1,0,0,1,2.12132,2.12132)" class="st1">
							<path d="M47.38 566.15 L45.9 566.15 L45.9 554.68 C45.87 553.1 45.13 551.63 43.89 550.66 C40.64 548.17
										 36.92 546.36 32.96 545.35 C29.95 544.42 26.83 543.95 23.69 543.94 C20.55 544 17.43 544.47
										 14.42 545.35 C10.5 546.5 6.79 548.3 3.47 550.68 C2.24 551.65 1.51 553.11 1.48 554.68 L1.48
										 566.15 L0 566.15 L0 554.68 C0.04 552.65 0.98 550.76 2.57 549.51 C6.05 547.01 9.92 545.13
										 14.02 543.92 C17.16 543.01 20.42 542.52 23.69 542.46 C26.97 542.47 30.24 542.96 33.37 543.93
										 C37.53 545 41.42 546.9 44.82 549.51 C46.41 550.76 47.35 552.66 47.38 554.68 L47.38 566.15
										 Z" class="st2"/>
						</g>
						<path d="M47.38 566.15 L45.9 566.15 L45.9 554.68 C45.87 553.1 45.13 551.63 43.89 550.66 C40.64 548.17 36.92
									 546.36 32.96 545.35 C29.95 544.42 26.83 543.95 23.69 543.94 C20.55 544 17.43 544.47 14.42 545.35
									 C10.5 546.5 6.79 548.3 3.47 550.68 C2.24 551.65 1.51 553.11 1.48 554.68 L1.48 566.15 L0 566.15
									 L0 554.68 C0.04 552.65 0.98 550.76 2.57 549.51 C6.05 547.01 9.92 545.13 14.02 543.92 C17.16
									 543.01 20.42 542.52 23.69 542.46 C26.97 542.47 30.24 542.96 33.37 543.93 C37.53 545 41.42 546.9
									 44.82 549.51 C46.41 550.76 47.35 552.66 47.38 554.68 L47.38 566.15 Z" class="st3"/>
					</g>
				</g>
			</g>
			<g id="group6-14" transform="translate(27.9283,-4.54747E-13)" v:mID="6" v:groupContext="group">
				<title>工作表.6</title>
				<g id="shape7-15" v:mID="7" v:groupContext="shape" transform="translate(0,-1.03257)">
					<title>工作表.7</title>
					<g id="shadow7-16" v:groupContext="shadow" v:shadowOffsetX="2.12132" v:shadowOffsetY="-2.12132"
							v:shadowType="1" transform="matrix(1,0,0,1,2.12132,2.12132)" class="st1">
						<path d="M7.34 552.8 L25.81 552.8 L25.81 550.96 C25.81 550.15 25.15 549.48 24.34 549.48 L13.28 549.48 L9.22
									 546.79 C8.96 546.64 8.7 546.53 8.41 546.53 L1.48 546.53 C0.66 546.53 0 547.2 0 548.01 L0 566.08
									 C0 566.15 4.76 554.54 4.76 554.54 C5.2 553.5 6.2 552.8 7.34 552.8 Z" class="st2"/>
					</g>
					<path d="M7.34 552.8 L25.81 552.8 L25.81 550.96 C25.81 550.15 25.15 549.48 24.34 549.48 L13.28 549.48 L9.22 546.79
								 C8.96 546.64 8.7 546.53 8.41 546.53 L1.48 546.53 C0.66 546.53 0 547.2 0 548.01 L0 566.08 C0 566.15
								 4.76 554.54 4.76 554.54 C5.2 553.5 6.2 552.8 7.34 552.8 Z" class="st3"/>
				</g>
				<g id="shape8-20" v:mID="8" v:groupContext="shape" transform="translate(1.10633,0)">
					<title>工作表.8</title>
					<g id="shadow8-21" v:groupContext="shadow" v:shadowOffsetX="2.12132" v:shadowOffsetY="-2.12132"
							v:shadowType="1" transform="matrix(1,0,0,1,2.12132,2.12132)" class="st1">
						<path d="M27.66 554.72 C27.66 553.95 27.11 553.32 26.33 553.24 L6.23 553.24 C5.68 553.24 5.2 553.58 4.98
									 554.06 L0 566.15 L22.5 566.15 L27.51 555.38 C27.62 555.16 27.66 554.94 27.66 554.72 Z"
								class="st2"/>
					</g>
					<path d="M27.66 554.72 C27.66 553.95 27.11 553.32 26.33 553.24 L6.23 553.24 C5.68 553.24 5.2 553.58 4.98 554.06
								 L0 566.15 L22.5 566.15 L27.51 555.38 C27.62 555.16 27.66 554.94 27.66 554.72 Z" class="st3"/>
				</g>
			</g>
		</g>
		<g id="group9-25" transform="translate(282.693,-485.084)" v:mID="9" v:groupContext="group">
			<title>工作表.9</title>
			<g id="group10-26" v:mID="10" v:groupContext="group">
				<title>Icons</title>
				<g id="shape11-27" v:mID="11" v:groupContext="shape" transform="translate(14.9606,-14.9606)">
					<title>工作表.11</title>
					<g id="shadow11-28" v:groupContext="shadow" v:shadowOffsetX="2.12132" v:shadowOffsetY="-2.12132"
							v:shadowType="1" transform="matrix(1,0,0,1,2.12132,2.12132)" class="st1">
						<path d="M0 566.15 L26.77 566.15 L26.77 539.38 L0 539.38 L0 566.15 ZM1.57 540.95 L25.2 540.95 L25.2 564.58
									 L1.57 564.58 L1.57 540.95 Z" class="st2"/>
					</g>
					<path d="M0 566.15 L26.77 566.15 L26.77 539.38 L0 539.38 L0 566.15 ZM1.57 540.95 L25.2 540.95 L25.2 564.58 L1.57
								 564.58 L1.57 540.95 Z" class="st4"/>
				</g>
				<g id="shape12-32" v:mID="12" v:groupContext="shape">
					<title>工作表.12</title>
					<g id="shadow12-33" v:groupContext="shadow" v:shadowOffsetX="2.12132" v:shadowOffsetY="-2.12132"
							v:shadowType="1" transform="matrix(1,0,0,1,2.12132,2.12132)" class="st1">
						<path d="M56.69 522.84 L56.69 521.27 L49.61 521.27 L49.61 520.48 C49.6 518.31 47.84 516.55 45.67 516.55 L44.88
									 516.55 L44.88 509.46 L43.31 509.46 L43.31 516.55 L38.58 516.55 L38.58 509.46 L37.01 509.46 L37.01
									 516.55 L32.28 516.55 L32.28 509.46 L30.71 509.46 L30.71 516.55 L25.98 516.55 L25.98 509.46 L24.41
									 509.46 L24.41 516.55 L19.69 516.55 L19.69 509.46 L18.11 509.46 L18.11 516.55 L13.39 516.55 L13.39
									 509.46 L11.81 509.46 L11.81 516.55 L11.02 516.55 C8.85 516.55 7.09 518.31 7.09 520.48 L7.09
									 521.27 L0 521.27 L0 522.84 L7.09 522.84 L7.09 527.57 L0 527.57 L0 529.14 L7.09 529.14 L7.09
									 533.87 L0 533.87 L0 535.44 L7.09 535.44 L7.09 540.17 L0 540.17 L0 541.74 L7.09 541.74 L7.09
									 546.47 L0 546.47 L0 548.04 L7.09 548.04 L7.09 552.77 L0 552.77 L0 554.34 L7.09 554.34 L7.09
									 555.13 C7.09 557.3 8.85 559.06 11.02 559.07 L11.81 559.07 L11.81 566.15 L13.39 566.15 L13.39
									 559.07 L18.11 559.07 L18.11 566.15 L19.69 566.15 L19.69 559.07 L24.41 559.07 L24.41 566.15 L25.98
									 566.15 L25.98 559.07 L30.71 559.07 L30.71 566.15 L32.28 566.15 L32.28 559.07 L37.01 559.07 L37.01
									 566.15 L38.58 566.15 L38.58 559.07 L43.31 559.07 L43.31 566.15 L44.88 566.15 L44.88 559.07 L45.67
									 559.07 C47.84 559.06 49.6 557.3 49.61 555.13 L49.61 554.34 L56.69 554.34 L56.69 552.77 L49.61
									 552.77 L49.61 548.04 L56.69 548.04 L56.69 546.47 L49.61 546.47 L49.61 541.74 L56.69 541.74 L56.69
									 540.17 L49.61 540.17 L49.61 535.44 L56.69 535.44 L56.69 533.87 L49.61 533.87 L49.61 529.14 L56.69
									 529.14 L56.69 527.57 L49.61 527.57 L49.61 522.84 L56.69 522.84 ZM48.03 555.13 C48.03 556.43
									 46.97 557.49 45.67 557.49 L11.02 557.49 C9.72 557.49 8.66 556.43 8.66 555.13 L8.66 520.48 C8.66
									 519.18 9.72 518.12 11.02 518.12 L45.67 518.12 C46.97 518.12 48.03 519.18 48.03 520.48 L48.03
									 555.13 Z" class="st2"/>
					</g>
					<path d="M56.69 522.84 L56.69 521.27 L49.61 521.27 L49.61 520.48 C49.6 518.31 47.84 516.55 45.67 516.55 L44.88
								 516.55 L44.88 509.46 L43.31 509.46 L43.31 516.55 L38.58 516.55 L38.58 509.46 L37.01 509.46 L37.01
								 516.55 L32.28 516.55 L32.28 509.46 L30.71 509.46 L30.71 516.55 L25.98 516.55 L25.98 509.46 L24.41
								 509.46 L24.41 516.55 L19.69 516.55 L19.69 509.46 L18.11 509.46 L18.11 516.55 L13.39 516.55 L13.39
								 509.46 L11.81 509.46 L11.81 516.55 L11.02 516.55 C8.85 516.55 7.09 518.31 7.09 520.48 L7.09 521.27
								 L0 521.27 L0 522.84 L7.09 522.84 L7.09 527.57 L0 527.57 L0 529.14 L7.09 529.14 L7.09 533.87 L0 533.87
								 L0 535.44 L7.09 535.44 L7.09 540.17 L0 540.17 L0 541.74 L7.09 541.74 L7.09 546.47 L0 546.47 L0 548.04
								 L7.09 548.04 L7.09 552.77 L0 552.77 L0 554.34 L7.09 554.34 L7.09 555.13 C7.09 557.3 8.85 559.06
								 11.02 559.07 L11.81 559.07 L11.81 566.15 L13.39 566.15 L13.39 559.07 L18.11 559.07 L18.11 566.15
								 L19.69 566.15 L19.69 559.07 L24.41 559.07 L24.41 566.15 L25.98 566.15 L25.98 559.07 L30.71 559.07
								 L30.71 566.15 L32.28 566.15 L32.28 559.07 L37.01 559.07 L37.01 566.15 L38.58 566.15 L38.58 559.07
								 L43.31 559.07 L43.31 566.15 L44.88 566.15 L44.88 559.07 L45.67 559.07 C47.84 559.06 49.6 557.3 49.61
								 555.13 L49.61 554.34 L56.69 554.34 L56.69 552.77 L49.61 552.77 L49.61 548.04 L56.69 548.04 L56.69
								 546.47 L49.61 546.47 L49.61 541.74 L56.69 541.74 L56.69 540.17 L49.61 540.17 L49.61 535.44 L56.69
								 535.44 L56.69 533.87 L49.61 533.87 L49.61 529.14 L56.69 529.14 L56.69 527.57 L49.61 527.57 L49.61
								 522.84 L56.69 522.84 ZM48.03 555.13 C48.03 556.43 46.97 557.49 45.67 557.49 L11.02 557.49 C9.72
								 557.49 8.66 556.43 8.66 555.13 L8.66 520.48 C8.66 519.18 9.72 518.12 11.02 518.12 L45.67 518.12
								 C46.97 518.12 48.03 519.18 48.03 520.48 L48.03 555.13 Z" class="st4"/>
				</g>
			</g>
		</g>
		<g id="shape13-37" v:mID="13" v:groupContext="shape" transform="translate(259.195,-457.347)">
			<title>矩形.85</title>
			<desc>CESS Schedulers</desc>
			<v:userDefs>
				<v:ud v:nameU="visVersion" v:val="VT0(15):26"/>
			</v:userDefs>
			<v:textBlock v:margins="rect(4,4,4,4)" v:tabSpace="42.5197"/>
			<v:textRect cx="52.5143" cy="551.978" width="105.03" height="28.3465"/>
			<rect x="0" y="537.805" width="105.029" height="28.3465" class="st5"/>
			<text x="6.39" y="556.18" class="st6" v:langID="2052"><v:paragraph v:horizAlign="1"/><v:tabList/>CESS Schedulers</text>		</g>
		<g id="shape14-40" v:mID="14" v:groupContext="shape" transform="translate(-495.387,546.652) rotate(-90)">
			<title>工作表.14</title>
			<path d="M0 566.15 L438.92 566.15" class="st7"/>
		</g>
		<g id="shape15-43" v:mID="15" v:groupContext="shape" transform="translate(18.25,-458.423)">
			<title>矩形.104</title>
			<desc>Users</desc>
			<v:userDefs>
				<v:ud v:nameU="visVersion" v:val="VT0(15):26"/>
			</v:userDefs>
			<v:textBlock v:margins="rect(4,4,4,4)" v:tabSpace="42.5197"/>
			<v:textRect cx="52.5143" cy="551.978" width="105.03" height="28.3465"/>
			<rect x="0" y="537.805" width="105.029" height="28.3465" class="st5"/>
			<text x="36.62" y="556.18" class="st6" v:langID="2052"><v:paragraph v:horizAlign="1"/><v:tabList/>Users</text>		</g>
		<g id="shape16-46" v:mID="16" v:groupContext="shape" transform="translate(-254.442,546.652) rotate(-90)">
			<title>工作表.16</title>
			<path d="M0 566.15 L437.85 566.15" class="st8"/>
		</g>
		<g id="group17-49" transform="translate(520.133,-487.322)" v:mID="17" v:groupContext="group">
			<title>工作表.17</title>
			<g id="group18-50" v:mID="18" v:groupContext="group">
				<title>工作表.18</title>
				<g id="shape19-51" v:mID="19" v:groupContext="shape" transform="translate(0,-41.5606)">
					<title>工作表.19</title>
					<g id="shadow19-52" v:groupContext="shadow" v:shadowOffsetX="2.12132" v:shadowOffsetY="-2.12132"
							v:shadowType="1" transform="matrix(1,0,0,1,2.12132,2.12132)" class="st1">
						<ellipse cx="19.3949" cy="560.61" rx="19.3949" ry="5.54141" class="st2"/>
					</g>
					<ellipse cx="19.3949" cy="560.61" rx="19.3949" ry="5.54141" class="st9"/>
				</g>
				<g id="shape20-56" v:mID="20" v:groupContext="shape" transform="translate(0,-27.7071)">
					<title>工作表.20</title>
					<g id="shadow20-57" v:groupContext="shadow" v:shadowOffsetX="2.12132" v:shadowOffsetY="-2.12132"
							v:shadowType="1" transform="matrix(1,0,0,1,2.12132,2.12132)" class="st1">
						<path d="M33.25 560.61 C32.42 560.61 31.86 560.06 31.86 559.22 C31.86 558.39 32.42 557.84 33.25 557.84 C34.08
									 557.84 34.63 558.39 34.63 559.22 C34.63 560.06 34.08 560.61 33.25 560.61 ZM19.39 555.07 C8.73
									 555.07 0 552.58 0 549.53 L0 560.61 C0 563.66 8.73 566.15 19.39 566.15 C30.06 566.15 38.79 563.66
									 38.79 560.61 L38.79 549.53 C38.79 552.58 30.06 555.07 19.39 555.07 Z" class="st2"/>
					</g>
					<path d="M33.25 560.61 C32.42 560.61 31.86 560.06 31.86 559.22 C31.86 558.39 32.42 557.84 33.25 557.84 C34.08
								 557.84 34.63 558.39 34.63 559.22 C34.63 560.06 34.08 560.61 33.25 560.61 ZM19.39 555.07 C8.73 555.07
								 0 552.58 0 549.53 L0 560.61 C0 563.66 8.73 566.15 19.39 566.15 C30.06 566.15 38.79 563.66 38.79
								 560.61 L38.79 549.53 C38.79 552.58 30.06 555.07 19.39 555.07 Z" class="st9"/>
				</g>
				<g id="shape21-61" v:mID="21" v:groupContext="shape" transform="translate(0,-13.8535)">
					<title>工作表.21</title>
					<g id="shadow21-62" v:groupContext="shadow" v:shadowOffsetX="2.12132" v:shadowOffsetY="-2.12132"
							v:shadowType="1" transform="matrix(1,0,0,1,2.12132,2.12132)" class="st1">
						<path d="M33.25 560.61 C32.42 560.61 31.86 560.06 31.86 559.22 C31.86 558.39 32.42 557.84 33.25 557.84 C34.08
									 557.84 34.63 558.39 34.63 559.22 C34.63 560.06 34.08 560.61 33.25 560.61 ZM19.39 555.07 C8.73
									 555.07 0 552.58 0 549.53 L0 560.61 C0 563.66 8.73 566.15 19.39 566.15 C30.06 566.15 38.79 563.66
									 38.79 560.61 L38.79 549.53 C38.79 552.58 30.06 555.07 19.39 555.07 Z" class="st2"/>
					</g>
					<path d="M33.25 560.61 C32.42 560.61 31.86 560.06 31.86 559.22 C31.86 558.39 32.42 557.84 33.25 557.84 C34.08
								 557.84 34.63 558.39 34.63 559.22 C34.63 560.06 34.08 560.61 33.25 560.61 ZM19.39 555.07 C8.73 555.07
								 0 552.58 0 549.53 L0 560.61 C0 563.66 8.73 566.15 19.39 566.15 C30.06 566.15 38.79 563.66 38.79
								 560.61 L38.79 549.53 C38.79 552.58 30.06 555.07 19.39 555.07 Z" class="st9"/>
				</g>
				<g id="shape22-66" v:mID="22" v:groupContext="shape">
					<title>工作表.22</title>
					<g id="shadow22-67" v:groupContext="shadow" v:shadowOffsetX="2.12132" v:shadowOffsetY="-2.12132"
							v:shadowType="1" transform="matrix(1,0,0,1,2.12132,2.12132)" class="st1">
						<path d="M33.25 560.61 C32.42 560.61 31.86 560.06 31.86 559.22 C31.86 558.39 32.42 557.84 33.25 557.84 C34.08
									 557.84 34.63 558.39 34.63 559.22 C34.63 560.06 34.08 560.61 33.25 560.61 ZM19.39 555.07 C8.73
									 555.07 0 552.58 0 549.53 L0 560.61 C0 563.66 8.73 566.15 19.39 566.15 C30.06 566.15 38.79 563.66
									 38.79 560.61 L38.79 549.53 C38.79 552.58 30.06 555.07 19.39 555.07 Z" class="st2"/>
					</g>
					<path d="M33.25 560.61 C32.42 560.61 31.86 560.06 31.86 559.22 C31.86 558.39 32.42 557.84 33.25 557.84 C34.08
								 557.84 34.63 558.39 34.63 559.22 C34.63 560.06 34.08 560.61 33.25 560.61 ZM19.39 555.07 C8.73 555.07
								 0 552.58 0 549.53 L0 560.61 C0 563.66 8.73 566.15 19.39 566.15 C30.06 566.15 38.79 563.66 38.79
								 560.61 L38.79 549.53 C38.79 552.58 30.06 555.07 19.39 555.07 Z" class="st9"/>
				</g>
			</g>
		</g>
		<g id="shape23-71" v:mID="23" v:groupContext="shape" transform="translate(487.013,-457.742)">
			<title>矩形.118</title>
			<desc>CESS Buckets</desc>
			<v:userDefs>
				<v:ud v:nameU="visVersion" v:val="VT0(15):26"/>
			</v:userDefs>
			<v:textBlock v:margins="rect(4,4,4,4)" v:tabSpace="42.5197"/>
			<v:textRect cx="52.5143" cy="551.978" width="105.03" height="28.3465"/>
			<rect x="0" y="537.805" width="105.029" height="28.3465" class="st5"/>
			<text x="15.16" y="556.18" class="st6" v:langID="2052"><v:paragraph v:horizAlign="1"/><v:tabList/>CESS Buckets</text>		</g>
		<g id="shape24-74" v:mID="24" v:groupContext="shape" transform="translate(-26.6239,546.652) rotate(-90)">
			<title>工作表.24</title>
			<path d="M0 566.15 L438.24 566.15" class="st10"/>
		</g>
		<g id="shape25-77" v:mID="25" v:groupContext="shape" transform="translate(291.867,698.872) rotate(180)">
			<title>工作表.25</title>
			<path d="M6.67 566.15 L7.03 566.15 L199.23 566.15" class="st11"/>
		</g>
		<g id="shape26-83" v:mID="26" v:groupContext="shape" transform="translate(152.969,-437.228)">
			<title>矩形.125</title>
			<desc>① upload</desc>
			<v:userDefs>
				<v:ud v:nameU="visVersion" v:val="VT0(15):26"/>
			</v:userDefs>
			<v:textBlock v:margins="rect(4,4,4,4)" v:tabSpace="42.5197"/>
			<v:textRect cx="36.8504" cy="558.129" width="73.71" height="16.046"/>
			<rect x="0" y="550.106" width="73.7008" height="16.046" class="st5"/>
			<text x="5.76" y="562.33" class="st13" v:langID="2052"><v:paragraph v:horizAlign="1"/><v:tabList/>① upload</text>		</g>
		<g id="shape27-86" v:mID="27" v:groupContext="shape" transform="translate(311.709,-390.003)">
			<title>工作表.27</title>
			<path d="M-0 532.72 A42.5197 19.2589 0 0 1 42.52 551.98 A42.5197 14.1732 0 0 1 7.03 565.96 L6.67 565.97" class="st14"/>
		</g>
		<g id="shape28-92" v:mID="28" v:groupContext="shape" transform="translate(311.456,-332.93)">
			<title>矩形.127</title>
			<desc>② duplicate</desc>
			<v:userDefs>
				<v:ud v:nameU="visVersion" v:val="VT0(15):26"/>
			</v:userDefs>
			<v:textBlock v:margins="rect(4,4,4,4)" v:tabSpace="42.5197"/>
			<v:textRect cx="47.4803" cy="558.129" width="94.97" height="16.046"/>
			<rect x="0" y="550.106" width="94.9607" height="16.046" class="st5"/>
			<text x="4" y="562.33" class="st13" v:langID="2052"><v:paragraph/><v:tabList/>② <tspan class="st16" v:langID="1033">duplicate</tspan></text>		</g>
		<g id="shape29-96" v:mID="29" v:groupContext="shape" transform="translate(311.709,-375.694)">
			<title>工作表.29</title>
			<path d="M-0 532.72 A42.5197 19.2589 0 0 1 42.52 551.98 A42.5197 14.1732 0 0 1 7.03 565.96 L6.67 565.97" class="st14"/>
		</g>
		<g id="shape30-101" v:mID="30" v:groupContext="shape" transform="translate(311.557,-313.332)">
			<title>矩形.130</title>
			<desc>③ rand-encode</desc>
			<v:userDefs>
				<v:ud v:nameU="visVersion" v:val="VT0(15):26"/>
			</v:userDefs>
			<v:textBlock v:margins="rect(4,4,4,4)" v:tabSpace="42.5197"/>
			<v:textRect cx="59.5369" cy="558.129" width="119.08" height="16.046"/>
			<rect x="0" y="550.106" width="119.074" height="16.046" class="st5"/>
			<text x="4" y="562.33" class="st13" v:langID="2052"><v:paragraph/><v:tabList/>③ <tspan class="st16" v:langID="1033">rand</tspan><tspan
						class="st16" v:langID="1033">-</tspan><tspan class="st16" v:langID="1033">encode</tspan></text>		</g>
		<g id="shape31-107" v:mID="31" v:groupContext="shape" transform="translate(311.705,-293.167)">
			<title>矩形.131</title>
			<desc>④ slice</desc>
			<v:userDefs>
				<v:ud v:nameU="visVersion" v:val="VT0(15):26"/>
			</v:userDefs>
			<v:textBlock v:margins="rect(4,4,4,4)" v:tabSpace="42.5197"/>
			<v:textRect cx="30.8075" cy="558.129" width="61.62" height="16.046"/>
			<rect x="0" y="550.106" width="61.615" height="16.046" class="st5"/>
			<text x="4" y="562.33" class="st13" v:langID="2052"><v:paragraph/><v:tabList/>④ <tspan class="st16" v:langID="1033">slice</tspan></text>		</g>
		<g id="shape32-111" v:mID="32" v:groupContext="shape" transform="translate(311.709,-358.978)">
			<title>工作表.32</title>
			<path d="M-0 532.72 A42.5197 19.2589 0 0 1 42.52 551.98 A42.5197 14.1732 0 0 1 7.03 565.96 L6.67 565.97" class="st14"/>
		</g>
		<g id="shape33-116" v:mID="33" v:groupContext="shape" transform="translate(524.308,938.325) rotate(180)">
			<title>工作表.33</title>
			<path d="M6.67 566.15 L7.03 566.15 L199.23 566.15" class="st17"/>
		</g>
		<g id="shape34-122" v:mID="34" v:groupContext="shape" transform="translate(381.68,-197.775)">
			<title>矩形.137</title>
			<desc>⑥ distribute</desc>
			<v:userDefs>
				<v:ud v:nameU="visVersion" v:val="VT0(15):26"/>
			</v:userDefs>
			<v:textBlock v:margins="rect(4,4,4,4)" v:tabSpace="42.5197"/>
			<v:textRect cx="47.4803" cy="558.129" width="94.97" height="16.046"/>
			<rect x="0" y="550.106" width="94.9607" height="16.046" class="st5"/>
			<text x="8.57" y="562.33" class="st13" v:langID="2052"><v:paragraph v:horizAlign="1"/><v:tabList/>⑥ <tspan class="st16"
						v:langID="1033">distribute</tspan></text>		</g>
		<g id="shape35-126" v:mID="35" v:groupContext="shape" transform="translate(311.709,-242.179)">
			<title>工作表.35</title>
			<path d="M-0 532.72 A42.5197 19.2589 0 0 1 42.52 551.98 A42.5197 14.1732 0 0 1 7.03 565.96 L6.67 565.97" class="st14"/>
		</g>
		<g id="shape36-131" v:mID="36" v:groupContext="shape" transform="translate(311.709,-218.491)">
			<title>Rectangle.124</title>
			<desc>⑤ sign-gen</desc>
			<v:userDefs>
				<v:ud v:nameU="visVersion" v:val="VT0(15):26"/>
			</v:userDefs>
			<v:textBlock v:margins="rect(4,4,4,4)" v:tabSpace="42.5197"/>
			<v:textRect cx="47.4803" cy="558.129" width="94.97" height="16.046"/>
			<rect x="0" y="550.106" width="94.9607" height="16.046" class="st5"/>
			<text x="4" y="562.33" class="st13" v:langID="2052"><v:paragraph/><v:tabList/>⑤ <tspan class="st16" v:langID="1033">sign</tspan><tspan
						class="st16" v:langID="1033">-</tspan><tspan class="st16" v:langID="1033">gen</tspan></text>		</g>
		<g id="shape37-137" v:mID="37" v:groupContext="shape" transform="translate(604.386,-108.51)">
			<title>Rectangle.145</title>
			<desc>⑧ gen-proof</desc>
			<v:userDefs>
				<v:ud v:nameU="visVersion" v:val="VT0(15):26"/>
			</v:userDefs>
			<v:textBlock v:margins="rect(4,4,4,4)" v:tabSpace="42.5197"/>
			<v:textRect cx="47.4803" cy="558.129" width="94.97" height="16.046"/>
			<rect x="0" y="550.106" width="94.9607" height="16.046" class="st5"/>
			<text x="7.88" y="562.33" class="st13" v:langID="2052"><v:paragraph v:horizAlign="1"/><v:tabList/>⑧ <tspan class="st16"
						v:langID="1033">gen</tspan><tspan class="st16" v:langID="1033">-</tspan><tspan class="st16" v:langID="1033">proof</tspan></text>		</g>
		<g id="group38-143" transform="translate(742.008,-487.322)" v:mID="38" v:groupContext="group">
			<title>工作表.38</title>
			<g id="shape39-144" v:mID="39" v:groupContext="shape">
				<title>工作表.39</title>
				<path d="M55.45 531.95 C54.2 528.94 50.76 527.55 47.76 528.8 C45.27 529.82 43.8 532.46 44.17 535.02 L34.72 538.98
							 C33.69 537.22 31.86 535.9 29.81 535.53 L29.81 525.35 C32.3 524.69 34.21 522.42 34.21 519.71 C34.21 516.49
							 31.57 513.85 28.35 513.85 C25.12 513.85 22.49 516.49 22.49 519.71 C22.49 522.42 24.39 524.69 26.88 525.35
							 L26.88 535.46 C24.76 535.83 23 537.15 21.97 538.9 L12.53 534.95 C12.89 532.38 11.5 529.75 8.94 528.72
							 C5.93 527.48 2.49 528.87 1.25 531.87 C0 534.88 1.39 538.32 4.39 539.56 C6.89 540.59 9.74 539.78 11.28
							 537.66 L20.95 541.61 C20.88 541.91 20.88 542.27 20.88 542.57 C20.88 544.18 21.39 545.72 22.34 546.96
							 L14.72 554.65 C12.45 553.33 9.52 553.63 7.62 555.53 C5.35 557.8 5.35 561.54 7.62 563.81 C9.89 566.08
							 13.62 566.08 15.89 563.81 C17.8 561.9 18.09 558.97 16.77 556.7 L24.54 548.94 C25.64 549.6 26.88 549.96
							 28.2 549.96 C28.27 549.96 28.27 549.96 28.35 549.96 C28.42 549.96 28.42 549.96 28.49 549.96 C29.81 549.96
							 31.06 549.6 32.16 548.94 L39.92 556.7 C38.6 558.97 38.89 561.9 40.8 563.88 C43.07 566.15 46.8 566.15
							 49.08 563.88 C51.35 561.61 51.35 557.87 49.08 555.6 C47.17 553.7 44.24 553.41 41.97 554.73 L34.35 547.03
							 C35.3 545.79 35.82 544.32 35.82 542.64 C35.82 542.35 35.82 541.98 35.74 541.69 L45.41 537.73 C46.95
							 539.78 49.81 540.66 52.3 539.64 C55.23 538.32 56.69 534.95 55.45 531.95 Z" class="st18"/>
			</g>
		</g>
		<g id="shape40-146" v:mID="40" v:groupContext="shape" transform="translate(204.637,547.212) rotate(-90.0567)">
			<title>工作表.40</title>
			<path d="M0 566.15 L438.25 566.15" class="st19"/>
		</g>
		<g id="shape41-149" v:mID="41" v:groupContext="shape" transform="translate(717.841,-457.748)">
			<title>矩形.151</title>
			<desc>CESS Network</desc>
			<v:userDefs>
				<v:ud v:nameU="visVersion" v:val="VT0(15):26"/>
			</v:userDefs>
			<v:textBlock v:margins="rect(4,4,4,4)" v:tabSpace="42.5197"/>
			<v:textRect cx="52.5143" cy="551.978" width="105.03" height="28.3465"/>
			<rect x="0" y="537.805" width="105.029" height="28.3465" class="st5"/>
			<text x="12.69" y="556.18" class="st6" v:langID="2052"><v:paragraph v:horizAlign="1"/><v:tabList/>CESS Network</text>		</g>
		<g id="shape42-152" v:mID="42" v:groupContext="shape" transform="translate(750.137,773.121) rotate(180)">
			<title>工作表.42</title>
			<path d="M6.67 566.15 L7.03 566.15 L431.11 566.15" class="st17"/>
		</g>
		<g id="shape43-157" v:mID="43" v:groupContext="shape" transform="translate(751.169,889.849) rotate(180)">
			<title>工作表.43</title>
			<path d="M6.67 566.15 L7.03 566.15 L431.11 566.15" class="st17"/>
		</g>
		<g id="shape44-162" v:mID="44" v:groupContext="shape" transform="translate(751.079,1027.51) rotate(180)">
			<title>工作表.44</title>
			<path d="M6.67 566.15 L7.03 566.15 L199.23 566.15" class="st20"/>
		</g>
		<g id="shape45-168" v:mID="45" v:groupContext="shape" transform="translate(752.211,1057.38) rotate(180)">
			<title>工作表.45</title>
			<path d="M6.67 566.15 L7.03 566.15 L431.11 566.15" class="st17"/>
		</g>
		<g id="shape46-173" v:mID="46" v:groupContext="shape" transform="translate(382.575,-78.672)">
			<title>Rectangle.157</title>
			<desc>⑨ verify-proof</desc>
			<v:userDefs>
				<v:ud v:nameU="visVersion" v:val="VT0(15):26"/>
			</v:userDefs>
			<v:textBlock v:margins="rect(4,4,4,4)" v:tabSpace="42.5197"/>
			<v:textRect cx="52.5143" cy="558.129" width="105.03" height="16.046"/>
			<rect x="0" y="550.106" width="105.029" height="16.046" class="st5"/>
			<text x="7.32" y="562.33" class="st13" v:langID="2052"><v:paragraph v:horizAlign="1"/><v:tabList/>⑨ <tspan class="st16"
						v:langID="1033">verify</tspan><tspan class="st16" v:langID="1033">-</tspan><tspan class="st16"
						v:langID="1033">proof</tspan></text>		</g>
		<g id="shape47-179" v:mID="47" v:groupContext="shape" transform="translate(539.973,-145.756)">
			<title>工作表.47</title>
			<path d="M-0 532.72 A42.5197 19.2589 0 0 1 42.52 551.98 A42.5197 14.1732 0 0 1 7.03 565.96 L6.67 565.97" class="st22"/>
		</g>
		<g id="shape48-185" v:mID="48" v:groupContext="shape" transform="translate(539.973,-122.068)">
			<title>Rectangle.160</title>
			<desc>⑦ replace</desc>
			<v:userDefs>
				<v:ud v:nameU="visVersion" v:val="VT0(15):26"/>
			</v:userDefs>
			<v:textBlock v:margins="rect(4,4,4,4)" v:tabSpace="42.5197"/>
			<v:textRect cx="36.8504" cy="558.129" width="73.71" height="16.046"/>
			<rect x="0" y="550.106" width="73.7008" height="16.046" class="st5"/>
			<text x="4" y="562.33" class="st13" v:langID="2052"><v:paragraph/><v:tabList/>⑦ <tspan class="st16">replace</tspan></text>		</g>
		<g id="group49-189" transform="translate(779.223,-66.6111)" v:mID="49" v:groupContext="group">
			<title>工作表.49</title>
			<g id="shape50-190" v:mID="50" v:groupContext="shape">
				<title>工作表.50</title>
				<path d="M19.87 545.63 C21.88 547.23 23.78 550.01 25.2 553.14 L7.93 553.14 C9.4 550.01 11.24 547.17 13.25 545.63
							 C14.19 544.86 14.79 543.74 14.79 542.49 C14.79 541.25 14.19 540.13 13.25 539.36 C9.23 536.22 5.74 528.18
							 5.15 522.39 L28.03 522.39 C27.38 528.18 23.95 536.22 19.93 539.36 C18.93 540.13 18.33 541.25 18.33 542.49
							 C18.33 543.74 18.93 544.86 19.87 545.63 ZM31.52 522.39 L33.12 522.39 L33.12 518.84 L0 518.84 L0 522.39
							 L1.54 522.39 C2.19 528.95 5.97 538.53 11.47 542.49 C5.97 546.46 2.13 556.04 1.54 562.6 L0 562.6 L0 566.15
							 L33.12 566.15 L33.12 562.6 L31.52 562.6 C30.93 556.04 27.09 546.46 21.59 542.49 C27.09 538.53 30.93
							 528.95 31.52 522.39 Z" class="st23"/>
			</g>
		</g>
	</g>
</svg>
