<?xml version="1.0" encoding="UTF-8" standalone="no"?>
<!DOCTYPE svg PUBLIC "-//W3C//DTD SVG 1.1//EN" "http://www.w3.org/Graphics/SVG/1.1/DTD/svg11.dtd">
<!-- 由 Microsoft Visio, SVG Export 生成 podr2-3.svg Page-1 -->
<svg xmlns="http://www.w3.org/2000/svg" xmlns:xlink="http://www.w3.org/1999/xlink" xmlns:ev="http://www.w3.org/2001/xml-events"
		xmlns:v="http://schemas.microsoft.com/visio/2003/SVGExtensions/" width="8.33575in" height="7.3425in"
		viewBox="0 0 600.174 528.66" xml:space="preserve" color-interpolation-filters="sRGB" class="st20">
	<v:documentProperties v:langID="2052" v:metric="true" v:viewMarkup="false"/>

	<style type="text/css">
	<![CDATA[
		.st1 {visibility:visible}
		.st2 {fill:#000000;fill-opacity:0.4;filter:url(#filter_2.6666667461395);stroke:none;stroke-linecap:butt}
		.st3 {fill:#0070c0;stroke:none;stroke-linecap:butt;stroke-width:6.375}
		.st4 {fill:none;stroke:none;stroke-width:0.25}
		.st5 {fill:#000000;font-family:Calibri;font-size:1.16666em}
		.st6 {stroke:#4672c4;stroke-linecap:round;stroke-linejoin:round;stroke-width:3}
		.st7 {fill:#538135;stroke:none;stroke-linecap:butt;stroke-width:0.75}
		.st8 {stroke:#538135;stroke-linecap:round;stroke-linejoin:round;stroke-width:3}
		.st9 {marker-end:url(#mrkr5-52);stroke:#4672c4;stroke-dasharray:10.5,7.5,0.01,7.5;stroke-width:1.5}
		.st10 {fill:#4672c4;fill-opacity:1;stroke:#4672c4;stroke-opacity:1;stroke-width:0.37313432835821}
		.st11 {fill:#000000;font-family:Calibri;font-size:1.16666em;font-weight:bold}
		.st12 {font-size:1em;font-style:italic}
		.st13 {marker-start:url(#mrkr5-69);stroke:#4672c4;stroke-dasharray:10.5,7.5,0,7.5;stroke-linecap:round;stroke-linejoin:round;stroke-width:1.5}
		.st14 {fill:#7030a0;stroke:none;stroke-linecap:butt;stroke-width:6.375}
		.st15 {stroke:#7030a0;stroke-linecap:round;stroke-linejoin:round;stroke-width:3}
		.st16 {marker-start:url(#mrkr5-115);stroke:#538135;stroke-dasharray:10.5,7.5,0,7.5;stroke-linecap:round;stroke-linejoin:round;stroke-width:1.5}
		.st17 {fill:#538135;fill-opacity:1;stroke:#538135;stroke-opacity:1;stroke-width:0.37313432835821}
		.st18 {marker-end:url(#mrkr5-132);stroke:#538135;stroke-dasharray:10.5,7.5,0.01,7.5;stroke-width:1.5}
		.st19 {fill:#7f7f7f;stroke:none;stroke-linecap:butt;stroke-width:6.375}
		.st20 {fill:none;fill-rule:evenodd;font-size:12px;overflow:visible;stroke-linecap:square;stroke-miterlimit:3}
	]]>
	</style>

	<defs id="Markers">
		<g id="lend5">
			<path d="M 2 1 L 0 0 L 1.98117 -0.993387 C 1.67173 -0.364515 1.67301 0.372641 1.98465 1.00043 " style="stroke:none"/>
		</g>
		<marker id="mrkr5-52" class="st10" v:arrowType="5" v:arrowSize="2" v:setback="4.45" refX="-4.45" orient="auto"
				markerUnits="strokeWidth" overflow="visible">
			<use xlink:href="#lend5" transform="scale(-2.68,-2.68) "/>
		</marker>
		<marker id="mrkr5-69" class="st10" v:arrowType="5" v:arrowSize="2" v:setback="4.45" refX="4.45" orient="auto"
				markerUnits="strokeWidth" overflow="visible">
			<use xlink:href="#lend5" transform="scale(2.68) "/>
		</marker>
		<marker id="mrkr5-115" class="st17" v:arrowType="5" v:arrowSize="2" v:setback="4.45" refX="4.45" orient="auto"
				markerUnits="strokeWidth" overflow="visible">
			<use xlink:href="#lend5" transform="scale(2.68) "/>
		</marker>
		<marker id="mrkr5-132" class="st17" v:arrowType="5" v:arrowSize="2" v:setback="4.45" refX="-4.45" orient="auto"
				markerUnits="strokeWidth" overflow="visible">
			<use xlink:href="#lend5" transform="scale(-2.68,-2.68) "/>
		</marker>
	</defs>
	<defs id="Filters">
		<filter id="filter_2.6666667461395">
			<feGaussianBlur stdDeviation="2.6666667461395"/>
		</filter>
	</defs>
	<g v:mID="0" v:index="1" v:groupContext="foregroundPage">
		<title>页-1</title>
		<v:pageProperties v:drawingScale="0.0393701" v:pageScale="0.0393701" v:drawingUnits="24" v:shadowOffsetX="9"
				v:shadowOffsetY="-9"/>
		<g id="group1-1" transform="translate(41.7477,-447.592)" v:mID="1" v:groupContext="group">
			<title>工作表.1</title>
			<g id="group2-2" v:mID="2" v:groupContext="group">
				<title>Icons</title>
				<g id="shape3-3" v:mID="3" v:groupContext="shape" transform="translate(14.9606,-14.9606)">
					<title>工作表.3</title>
					<g id="shadow3-4" v:groupContext="shadow" v:shadowOffsetX="2.12132" v:shadowOffsetY="-2.12132" v:shadowType="1"
							transform="matrix(1,0,0,1,2.12132,2.12132)" class="st1">
						<path d="M0 528.66 L26.77 528.66 L26.77 501.89 L0 501.89 L0 528.66 ZM1.57 503.46 L25.2 503.46 L25.2 527.08
									 L1.57 527.08 L1.57 503.46 Z" class="st2"/>
					</g>
					<path d="M0 528.66 L26.77 528.66 L26.77 501.89 L0 501.89 L0 528.66 ZM1.57 503.46 L25.2 503.46 L25.2 527.08 L1.57
								 527.08 L1.57 503.46 Z" class="st3"/>
				</g>
				<g id="shape4-8" v:mID="4" v:groupContext="shape">
					<title>工作表.4</title>
					<g id="shadow4-9" v:groupContext="shadow" v:shadowOffsetX="2.12132" v:shadowOffsetY="-2.12132" v:shadowType="1"
							transform="matrix(1,0,0,1,2.12132,2.12132)" class="st1">
						<path d="M56.69 485.35 L56.69 483.78 L49.61 483.78 L49.61 482.99 C49.6 480.82 47.84 479.06 45.67 479.05 L44.88
									 479.05 L44.88 471.97 L43.31 471.97 L43.31 479.05 L38.58 479.05 L38.58 471.97 L37.01 471.97 L37.01
									 479.05 L32.28 479.05 L32.28 471.97 L30.71 471.97 L30.71 479.05 L25.98 479.05 L25.98 471.97 L24.41
									 471.97 L24.41 479.05 L19.69 479.05 L19.69 471.97 L18.11 471.97 L18.11 479.05 L13.39 479.05 L13.39
									 471.97 L11.81 471.97 L11.81 479.05 L11.02 479.05 C8.85 479.06 7.09 480.82 7.09 482.99 L7.09
									 483.78 L0 483.78 L0 485.35 L7.09 485.35 L7.09 490.08 L0 490.08 L0 491.65 L7.09 491.65 L7.09
									 496.38 L0 496.38 L0 497.95 L7.09 497.95 L7.09 502.68 L0 502.68 L0 504.25 L7.09 504.25 L7.09
									 508.97 L0 508.97 L0 510.55 L7.09 510.55 L7.09 515.27 L0 515.27 L0 516.85 L7.09 516.85 L7.09
									 517.64 C7.09 519.81 8.85 521.57 11.02 521.57 L11.81 521.57 L11.81 528.66 L13.39 528.66 L13.39
									 521.57 L18.11 521.57 L18.11 528.66 L19.69 528.66 L19.69 521.57 L24.41 521.57 L24.41 528.66 L25.98
									 528.66 L25.98 521.57 L30.71 521.57 L30.71 528.66 L32.28 528.66 L32.28 521.57 L37.01 521.57 L37.01
									 528.66 L38.58 528.66 L38.58 521.57 L43.31 521.57 L43.31 528.66 L44.88 528.66 L44.88 521.57 L45.67
									 521.57 C47.84 521.57 49.6 519.81 49.61 517.64 L49.61 516.85 L56.69 516.85 L56.69 515.27 L49.61
									 515.27 L49.61 510.55 L56.69 510.55 L56.69 508.97 L49.61 508.97 L49.61 504.25 L56.69 504.25 L56.69
									 502.68 L49.61 502.68 L49.61 497.95 L56.69 497.95 L56.69 496.38 L49.61 496.38 L49.61 491.65 L56.69
									 491.65 L56.69 490.08 L49.61 490.08 L49.61 485.35 L56.69 485.35 ZM48.03 517.64 C48.03 518.94
									 46.97 520 45.67 520 L11.02 520 C9.72 520 8.66 518.94 8.66 517.64 L8.66 482.99 C8.66 481.69 9.72
									 480.63 11.02 480.63 L45.67 480.63 C46.97 480.63 48.03 481.69 48.03 482.99 L48.03 517.64 Z"
								class="st2"/>
					</g>
					<path d="M56.69 485.35 L56.69 483.78 L49.61 483.78 L49.61 482.99 C49.6 480.82 47.84 479.06 45.67 479.05 L44.88
								 479.05 L44.88 471.97 L43.31 471.97 L43.31 479.05 L38.58 479.05 L38.58 471.97 L37.01 471.97 L37.01
								 479.05 L32.28 479.05 L32.28 471.97 L30.71 471.97 L30.71 479.05 L25.98 479.05 L25.98 471.97 L24.41
								 471.97 L24.41 479.05 L19.69 479.05 L19.69 471.97 L18.11 471.97 L18.11 479.05 L13.39 479.05 L13.39
								 471.97 L11.81 471.97 L11.81 479.05 L11.02 479.05 C8.85 479.06 7.09 480.82 7.09 482.99 L7.09 483.78
								 L0 483.78 L0 485.35 L7.09 485.35 L7.09 490.08 L0 490.08 L0 491.65 L7.09 491.65 L7.09 496.38 L0 496.38
								 L0 497.95 L7.09 497.95 L7.09 502.68 L0 502.68 L0 504.25 L7.09 504.25 L7.09 508.97 L0 508.97 L0 510.55
								 L7.09 510.55 L7.09 515.27 L0 515.27 L0 516.85 L7.09 516.85 L7.09 517.64 C7.09 519.81 8.85 521.57
								 11.02 521.57 L11.81 521.57 L11.81 528.66 L13.39 528.66 L13.39 521.57 L18.11 521.57 L18.11 528.66
								 L19.69 528.66 L19.69 521.57 L24.41 521.57 L24.41 528.66 L25.98 528.66 L25.98 521.57 L30.71 521.57
								 L30.71 528.66 L32.28 528.66 L32.28 521.57 L37.01 521.57 L37.01 528.66 L38.58 528.66 L38.58 521.57
								 L43.31 521.57 L43.31 528.66 L44.88 528.66 L44.88 521.57 L45.67 521.57 C47.84 521.57 49.6 519.81
								 49.61 517.64 L49.61 516.85 L56.69 516.85 L56.69 515.27 L49.61 515.27 L49.61 510.55 L56.69 510.55
								 L56.69 508.97 L49.61 508.97 L49.61 504.25 L56.69 504.25 L56.69 502.68 L49.61 502.68 L49.61 497.95
								 L56.69 497.95 L56.69 496.38 L49.61 496.38 L49.61 491.65 L56.69 491.65 L56.69 490.08 L49.61 490.08
								 L49.61 485.35 L56.69 485.35 ZM48.03 517.64 C48.03 518.94 46.97 520 45.67 520 L11.02 520 C9.72 520
								 8.66 518.94 8.66 517.64 L8.66 482.99 C8.66 481.69 9.72 480.63 11.02 480.63 L45.67 480.63 C46.97
								 480.63 48.03 481.69 48.03 482.99 L48.03 517.64 Z" class="st3"/>
				</g>
			</g>
		</g>
		<g id="shape5-13" v:mID="5" v:groupContext="shape" transform="translate(18.25,-419.855)">
			<title>矩形.85</title>
			<desc>CESS Schedulers</desc>
			<v:userDefs>
				<v:ud v:nameU="visVersion" v:val="VT0(15):26"/>
			</v:userDefs>
			<v:textBlock v:margins="rect(4,4,4,4)" v:tabSpace="42.5197"/>
			<v:textRect cx="52.5143" cy="514.486" width="105.03" height="28.3465"/>
			<rect x="0" y="500.313" width="105.029" height="28.3465" class="st4"/>
			<text x="6.39" y="518.69" class="st5" v:langID="2052"><v:paragraph v:horizAlign="1"/><v:tabList/>CESS Schedulers</text>		</g>
		<g id="shape6-16" v:mID="6" v:groupContext="shape" transform="translate(-457.895,498.716) rotate(-90)">
			<title>工作表.6</title>
			<path d="M0 528.66 L389.91 528.66" class="st6"/>
		</g>
		<g id="group7-19" transform="translate(279.188,-449.83)" v:mID="7" v:groupContext="group">
			<title>工作表.7</title>
			<g id="group8-20" v:mID="8" v:groupContext="group">
				<title>工作表.8</title>
				<g id="shape9-21" v:mID="9" v:groupContext="shape" transform="translate(0,-41.5606)">
					<title>工作表.9</title>
					<g id="shadow9-22" v:groupContext="shadow" v:shadowOffsetX="2.12132" v:shadowOffsetY="-2.12132"
							v:shadowType="1" transform="matrix(1,0,0,1,2.12132,2.12132)" class="st1">
						<ellipse cx="19.3949" cy="523.118" rx="19.3949" ry="5.54141" class="st2"/>
					</g>
					<ellipse cx="19.3949" cy="523.118" rx="19.3949" ry="5.54141" class="st7"/>
				</g>
				<g id="shape10-26" v:mID="10" v:groupContext="shape" transform="translate(0,-27.7071)">
					<title>工作表.10</title>
					<g id="shadow10-27" v:groupContext="shadow" v:shadowOffsetX="2.12132" v:shadowOffsetY="-2.12132"
							v:shadowType="1" transform="matrix(1,0,0,1,2.12132,2.12132)" class="st1">
						<path d="M33.25 523.12 C32.42 523.12 31.86 522.56 31.86 521.73 C31.86 520.9 32.42 520.35 33.25 520.35 C34.08
									 520.35 34.63 520.9 34.63 521.73 C34.63 522.56 34.08 523.12 33.25 523.12 ZM19.39 517.58 C8.73
									 517.58 0 515.08 0 512.04 L0 523.12 C0 526.17 8.73 528.66 19.39 528.66 C30.06 528.66 38.79 526.17
									 38.79 523.12 L38.79 512.04 C38.79 515.08 30.06 517.58 19.39 517.58 Z" class="st2"/>
					</g>
					<path d="M33.25 523.12 C32.42 523.12 31.86 522.56 31.86 521.73 C31.86 520.9 32.42 520.35 33.25 520.35 C34.08
								 520.35 34.63 520.9 34.63 521.73 C34.63 522.56 34.08 523.12 33.25 523.12 ZM19.39 517.58 C8.73 517.58
								 0 515.08 0 512.04 L0 523.12 C0 526.17 8.73 528.66 19.39 528.66 C30.06 528.66 38.79 526.17 38.79
								 523.12 L38.79 512.04 C38.79 515.08 30.06 517.58 19.39 517.58 Z" class="st7"/>
				</g>
				<g id="shape11-31" v:mID="11" v:groupContext="shape" transform="translate(0,-13.8535)">
					<title>工作表.11</title>
					<g id="shadow11-32" v:groupContext="shadow" v:shadowOffsetX="2.12132" v:shadowOffsetY="-2.12132"
							v:shadowType="1" transform="matrix(1,0,0,1,2.12132,2.12132)" class="st1">
						<path d="M33.25 523.12 C32.42 523.12 31.86 522.56 31.86 521.73 C31.86 520.9 32.42 520.35 33.25 520.35 C34.08
									 520.35 34.63 520.9 34.63 521.73 C34.63 522.56 34.08 523.12 33.25 523.12 ZM19.39 517.58 C8.73
									 517.58 0 515.08 0 512.04 L0 523.12 C0 526.17 8.73 528.66 19.39 528.66 C30.06 528.66 38.79 526.17
									 38.79 523.12 L38.79 512.04 C38.79 515.08 30.06 517.58 19.39 517.58 Z" class="st2"/>
					</g>
					<path d="M33.25 523.12 C32.42 523.12 31.86 522.56 31.86 521.73 C31.86 520.9 32.42 520.35 33.25 520.35 C34.08
								 520.35 34.63 520.9 34.63 521.73 C34.63 522.56 34.08 523.12 33.25 523.12 ZM19.39 517.58 C8.73 517.58
								 0 515.08 0 512.04 L0 523.12 C0 526.17 8.73 528.66 19.39 528.66 C30.06 528.66 38.79 526.17 38.79
								 523.12 L38.79 512.04 C38.79 515.08 30.06 517.58 19.39 517.58 Z" class="st7"/>
				</g>
				<g id="shape12-36" v:mID="12" v:groupContext="shape">
					<title>工作表.12</title>
					<g id="shadow12-37" v:groupContext="shadow" v:shadowOffsetX="2.12132" v:shadowOffsetY="-2.12132"
							v:shadowType="1" transform="matrix(1,0,0,1,2.12132,2.12132)" class="st1">
						<path d="M33.25 523.12 C32.42 523.12 31.86 522.56 31.86 521.73 C31.86 520.9 32.42 520.35 33.25 520.35 C34.08
									 520.35 34.63 520.9 34.63 521.73 C34.63 522.56 34.08 523.12 33.25 523.12 ZM19.39 517.58 C8.73
									 517.58 0 515.08 0 512.04 L0 523.12 C0 526.17 8.73 528.66 19.39 528.66 C30.06 528.66 38.79 526.17
									 38.79 523.12 L38.79 512.04 C38.79 515.08 30.06 517.58 19.39 517.58 Z" class="st2"/>
					</g>
					<path d="M33.25 523.12 C32.42 523.12 31.86 522.56 31.86 521.73 C31.86 520.9 32.42 520.35 33.25 520.35 C34.08
								 520.35 34.63 520.9 34.63 521.73 C34.63 522.56 34.08 523.12 33.25 523.12 ZM19.39 517.58 C8.73 517.58
								 0 515.08 0 512.04 L0 523.12 C0 526.17 8.73 528.66 19.39 528.66 C30.06 528.66 38.79 526.17 38.79
								 523.12 L38.79 512.04 C38.79 515.08 30.06 517.58 19.39 517.58 Z" class="st7"/>
				</g>
			</g>
		</g>
		<g id="shape13-41" v:mID="13" v:groupContext="shape" transform="translate(246.068,-420.25)">
			<title>矩形.118</title>
			<desc>CESS Buckets</desc>
			<v:userDefs>
				<v:ud v:nameU="visVersion" v:val="VT0(15):26"/>
			</v:userDefs>
			<v:textBlock v:margins="rect(4,4,4,4)" v:tabSpace="42.5197"/>
			<v:textRect cx="52.5143" cy="514.486" width="105.03" height="28.3465"/>
			<rect x="0" y="500.313" width="105.029" height="28.3465" class="st4"/>
			<text x="15.16" y="518.69" class="st5" v:langID="2052"><v:paragraph v:horizAlign="1"/><v:tabList/>CESS Buckets</text>		</g>
		<g id="shape14-44" v:mID="14" v:groupContext="shape" transform="translate(-230.077,504.132) rotate(-90)">
			<title>工作表.14</title>
			<path d="M0 528.66 L395.72 528.66" class="st8"/>
		</g>
		<g id="shape15-47" v:mID="15" v:groupContext="shape" transform="translate(70.7643,-386.423)">
			<title>工作表.15</title>
			<path d="M-0 495.23 A42.5197 19.2589 0 0 1 42.52 514.49 A42.5197 14.1732 0 0 1 7.03 528.46 L6.67 528.47" class="st9"/>
		</g>
		<g id="shape16-53" v:mID="16" v:groupContext="shape" transform="translate(70.7643,-362.735)">
			<title>矩形.124</title>
			<desc>① key-gen</desc>
			<v:userDefs>
				<v:ud v:nameU="visVersion" v:val="VT0(15):26"/>
			</v:userDefs>
			<v:textBlock v:margins="rect(4,4,4,4)" v:tabSpace="42.5197"/>
			<v:textRect cx="47.4803" cy="520.637" width="94.97" height="16.046"/>
			<rect x="0" y="512.614" width="94.9607" height="16.046" class="st4"/>
			<text x="4" y="524.84" class="st11" v:langID="2052"><v:paragraph/><v:tabList/>① <tspan class="st12" v:langID="1033">key</tspan><tspan
						class="st12" v:langID="1033">-</tspan><tspan class="st12" v:langID="1033">gen</tspan></text>		</g>
		<g id="shape17-59" v:mID="17" v:groupContext="shape" transform="translate(70.7643,-256.016)">
			<title>工作表.17</title>
			<path d="M-0 495.23 A42.5197 19.2589 0 0 1 42.52 514.49 A42.5197 14.1732 0 0 1 7.03 528.46 L6.67 528.47" class="st9"/>
		</g>
		<g id="shape18-64" v:mID="18" v:groupContext="shape" transform="translate(283.363,900.617) rotate(180)">
			<title>工作表.18</title>
			<path d="M6.67 528.66 L7.03 528.66 L199.23 528.66" class="st13"/>
		</g>
		<g id="shape19-70" v:mID="19" v:groupContext="shape" transform="translate(140.735,-160.499)">
			<title>矩形.137</title>
			<desc>⑥ distribute</desc>
			<v:userDefs>
				<v:ud v:nameU="visVersion" v:val="VT0(15):26"/>
			</v:userDefs>
			<v:textBlock v:margins="rect(4,4,4,4)" v:tabSpace="42.5197"/>
			<v:textRect cx="47.4803" cy="520.637" width="94.97" height="16.046"/>
			<rect x="0" y="512.614" width="94.9607" height="16.046" class="st4"/>
			<text x="8.57" y="524.84" class="st11" v:langID="2052"><v:paragraph v:horizAlign="1"/><v:tabList/>⑥ <tspan class="st12"
						v:langID="1033">distribute</tspan></text>		</g>
		<g id="shape20-74" v:mID="20" v:groupContext="shape" transform="translate(70.7643,-243.254)">
			<title>工作表.20</title>
			<path d="M-0 495.23 A42.5197 19.2589 0 0 1 42.52 514.49 A42.5197 14.1732 0 0 1 7.03 528.46 L6.67 528.47" class="st9"/>
		</g>
		<g id="shape21-79" v:mID="21" v:groupContext="shape" transform="translate(70.7643,-192.053)">
			<title>Rectangle.124</title>
			<desc>⑤ sign-gen</desc>
			<v:userDefs>
				<v:ud v:nameU="visVersion" v:val="VT0(15):26"/>
			</v:userDefs>
			<v:textBlock v:margins="rect(4,4,4,4)" v:tabSpace="42.5197"/>
			<v:textRect cx="47.4803" cy="520.637" width="94.97" height="16.046"/>
			<rect x="0" y="512.614" width="94.9607" height="16.046" class="st4"/>
			<text x="4" y="524.84" class="st11" v:langID="2052"><v:paragraph/><v:tabList/>⑤ <tspan class="st12" v:langID="1033">sign</tspan><tspan
						class="st12" v:langID="1033">-</tspan><tspan class="st12" v:langID="1033">gen</tspan></text>		</g>
		<g id="shape22-85" v:mID="22" v:groupContext="shape" transform="translate(363.441,-71.2347)">
			<title>Rectangle.145</title>
			<desc>⑧ gen-proof</desc>
			<v:userDefs>
				<v:ud v:nameU="visVersion" v:val="VT0(15):26"/>
			</v:userDefs>
			<v:textBlock v:margins="rect(4,4,4,4)" v:tabSpace="42.5197"/>
			<v:textRect cx="47.4803" cy="520.637" width="94.97" height="16.046"/>
			<rect x="0" y="512.614" width="94.9607" height="16.046" class="st4"/>
			<text x="7.88" y="524.84" class="st11" v:langID="2052"><v:paragraph v:horizAlign="1"/><v:tabList/>⑧ <tspan class="st12"
						v:langID="1033">gen</tspan><tspan class="st12" v:langID="1033">-</tspan><tspan class="st12" v:langID="1033">proof</tspan></text>		</g>
		<g id="group23-91" transform="translate(501.064,-449.83)" v:mID="23" v:groupContext="group">
			<title>工作表.23</title>
			<g id="shape24-92" v:mID="24" v:groupContext="shape">
				<title>工作表.24</title>
				<path d="M55.45 494.45 C54.2 491.45 50.76 490.06 47.76 491.3 C45.27 492.33 43.8 494.97 44.17 497.53 L34.72 501.49
							 C33.69 499.73 31.86 498.41 29.81 498.04 L29.81 487.86 C32.3 487.2 34.21 484.93 34.21 482.22 C34.21 479
							 31.57 476.36 28.35 476.36 C25.12 476.36 22.49 479 22.49 482.22 C22.49 484.93 24.39 487.2 26.88 487.86
							 L26.88 497.97 C24.76 498.34 23 499.65 21.97 501.41 L12.53 497.46 C12.89 494.89 11.5 492.26 8.94 491.23
							 C5.93 489.99 2.49 491.38 1.25 494.38 C0 497.38 1.39 500.83 4.39 502.07 C6.89 503.1 9.74 502.29 11.28
							 500.17 L20.95 504.12 C20.88 504.42 20.88 504.78 20.88 505.07 C20.88 506.69 21.39 508.22 22.34 509.47
							 L14.72 517.16 C12.45 515.84 9.52 516.13 7.62 518.04 C5.35 520.31 5.35 524.05 7.62 526.32 C9.89 528.59
							 13.62 528.59 15.89 526.32 C17.8 524.41 18.09 521.48 16.77 519.21 L24.54 511.45 C25.64 512.11 26.88 512.47
							 28.2 512.47 C28.27 512.47 28.27 512.47 28.35 512.47 C28.42 512.47 28.42 512.47 28.49 512.47 C29.81 512.47
							 31.06 512.11 32.16 511.45 L39.92 519.21 C38.6 521.48 38.89 524.41 40.8 526.39 C43.07 528.66 46.8 528.66
							 49.08 526.39 C51.35 524.12 51.35 520.38 49.08 518.11 C47.17 516.21 44.24 515.91 41.97 517.23 L34.35
							 509.54 C35.3 508.3 35.82 506.83 35.82 505.15 C35.82 504.85 35.82 504.49 35.74 504.2 L45.41 500.24 C46.95
							 502.29 49.81 503.17 52.3 502.14 C55.23 500.83 56.69 497.46 55.45 494.45 Z" class="st14"/>
			</g>
		</g>
		<g id="shape25-94" v:mID="25" v:groupContext="shape" transform="translate(0.750283,509.16) rotate(-90)">
			<title>工作表.25</title>
			<path d="M0 528.66 L400.76 528.66" class="st15"/>
		</g>
		<g id="shape26-97" v:mID="26" v:groupContext="shape" transform="translate(476.896,-420.256)">
			<title>矩形.151</title>
			<desc>CESS Network</desc>
			<v:userDefs>
				<v:ud v:nameU="visVersion" v:val="VT0(15):26"/>
			</v:userDefs>
			<v:textBlock v:margins="rect(4,4,4,4)" v:tabSpace="42.5197"/>
			<v:textRect cx="52.5143" cy="514.486" width="105.03" height="28.3465"/>
			<rect x="0" y="500.313" width="105.029" height="28.3465" class="st4"/>
			<text x="12.69" y="518.69" class="st5" v:langID="2052"><v:paragraph v:horizAlign="1"/><v:tabList/>CESS Network</text>		</g>
		<g id="shape27-100" v:mID="27" v:groupContext="shape" transform="translate(510.134,670.626) rotate(180)">
			<title>工作表.27</title>
			<path d="M6.67 528.66 L7.03 528.66 L431.11 528.66" class="st13"/>
		</g>
		<g id="shape28-105" v:mID="28" v:groupContext="shape" transform="translate(509.192,814.616) rotate(180)">
			<title>工作表.28</title>
			<path d="M6.68 528.66 L7.03 528.66 L431.11 528.66" class="st13"/>
		</g>
		<g id="shape29-110" v:mID="29" v:groupContext="shape" transform="translate(510.134,989.803) rotate(180)">
			<title>工作表.29</title>
			<path d="M6.67 528.66 L7.03 528.66 L199.23 528.66" class="st16"/>
		</g>
		<g id="shape30-116" v:mID="30" v:groupContext="shape" transform="translate(511.266,1019.68) rotate(180)">
			<title>工作表.30</title>
			<path d="M6.67 528.66 L7.03 528.66 L431.11 528.66" class="st13"/>
		</g>
		<g id="shape31-121" v:mID="31" v:groupContext="shape" transform="translate(141.63,-41.3963)">
			<title>Rectangle.157</title>
			<desc>⑨ verify-proof</desc>
			<v:userDefs>
				<v:ud v:nameU="visVersion" v:val="VT0(15):26"/>
			</v:userDefs>
			<v:textBlock v:margins="rect(4,4,4,4)" v:tabSpace="42.5197"/>
			<v:textRect cx="52.5143" cy="520.637" width="105.03" height="16.046"/>
			<rect x="0" y="512.614" width="105.029" height="16.046" class="st4"/>
			<text x="7.32" y="524.84" class="st11" v:langID="2052"><v:paragraph v:horizAlign="1"/><v:tabList/>⑨ <tspan class="st12"
						v:langID="1033">verify</tspan><tspan class="st12" v:langID="1033">-</tspan><tspan class="st12"
						v:langID="1033">proof</tspan></text>		</g>
		<g id="shape32-127" v:mID="32" v:groupContext="shape" transform="translate(299.028,-108.48)">
			<title>工作表.32</title>
			<path d="M-0 495.23 A42.5197 19.2589 0 0 1 42.52 514.49 A42.5197 14.1732 0 0 1 7.03 528.46 L6.67 528.47" class="st18"/>
		</g>
		<g id="shape33-133" v:mID="33" v:groupContext="shape" transform="translate(299.028,-84.7922)">
			<title>Rectangle.160</title>
			<desc>⑦ append</desc>
			<v:userDefs>
				<v:ud v:nameU="visVersion" v:val="VT0(15):26"/>
			</v:userDefs>
			<v:textBlock v:margins="rect(4,4,4,4)" v:tabSpace="42.5197"/>
			<v:textRect cx="36.8504" cy="520.637" width="73.71" height="16.046"/>
			<rect x="0" y="512.614" width="73.7008" height="16.046" class="st4"/>
			<text x="4" y="524.84" class="st11" v:langID="2052"><v:paragraph/><v:tabList/>⑦ <tspan class="st12">append</tspan></text>		</g>
		<g id="group34-137" transform="translate(538.278,-29.3355)" v:mID="34" v:groupContext="group">
			<title>工作表.34</title>
			<g id="shape35-138" v:mID="35" v:groupContext="shape">
				<title>工作表.35</title>
				<path d="M19.87 508.14 C21.88 509.73 23.78 512.51 25.2 515.65 L7.93 515.65 C9.4 512.51 11.24 509.67 13.25 508.14
							 C14.19 507.37 14.79 506.24 14.79 505 C14.79 503.76 14.19 502.64 13.25 501.87 C9.23 498.73 5.74 490.69
							 5.15 484.89 L28.03 484.89 C27.38 490.69 23.95 498.73 19.93 501.87 C18.93 502.64 18.33 503.76 18.33 505
							 C18.33 506.24 18.93 507.37 19.87 508.14 ZM31.52 484.89 L33.12 484.89 L33.12 481.34 L0 481.34 L0 484.89
							 L1.54 484.89 C2.19 491.46 5.97 501.04 11.47 505 C5.97 508.96 2.13 518.55 1.54 525.11 L0 525.11 L0 528.66
							 L33.12 528.66 L33.12 525.11 L31.52 525.11 C30.93 518.55 27.09 508.96 21.59 505 C27.09 501.04 30.93 491.46
							 31.52 484.89 Z" class="st19"/>
			</g>
		</g>
		<g id="shape36-140" v:mID="36" v:groupContext="shape" transform="translate(70.7643,-214.491)">
			<title>矩形.127</title>
			<desc>④ rand-pad</desc>
			<v:userDefs>
				<v:ud v:nameU="visVersion" v:val="VT0(15):26"/>
			</v:userDefs>
			<v:textBlock v:margins="rect(4,4,4,4)" v:tabSpace="42.5197"/>
			<v:textRect cx="47.4803" cy="520.637" width="94.97" height="16.046"/>
			<rect x="0" y="512.614" width="94.9607" height="16.046" class="st4"/>
			<text x="4" y="524.84" class="st11" v:langID="2052"><v:paragraph/><v:tabList/>④ <tspan class="st12">rand</tspan><tspan
						class="st12">-</tspan><tspan class="st12">pad</tspan></text>		</g>
		<g id="shape37-146" v:mID="37" v:groupContext="shape" transform="translate(347.777,-350.422)">
			<title>Rectangle.61</title>
			<desc>② declare storage</desc>
			<v:userDefs>
				<v:ud v:nameU="visVersion" v:val="VT0(15):26"/>
			</v:userDefs>
			<v:textBlock v:margins="rect(4,4,4,4)" v:tabSpace="42.5197"/>
			<v:textRect cx="66.2598" cy="520.637" width="132.52" height="16.046"/>
			<rect x="0" y="512.614" width="132.52" height="16.046" class="st4"/>
			<text x="10.63" y="524.84" class="st11" v:langID="2052"><v:paragraph v:horizAlign="1"/><v:tabList/>② declare storage</text>		</g>
		<g id="shape38-149" v:mID="38" v:groupContext="shape" transform="translate(510.668,710.615) rotate(180)">
			<title>工作表.38</title>
			<path d="M6.67 528.66 L7.03 528.66 L199.23 528.66" class="st16"/>
		</g>
		<g id="shape39-154" v:mID="39" v:groupContext="shape" transform="translate(71.2981,-298.208)">
			<title>矩形.63</title>
			<desc>③ check storage</desc>
			<v:userDefs>
				<v:ud v:nameU="visVersion" v:val="VT0(15):26"/>
			</v:userDefs>
			<v:textBlock v:margins="rect(4,4,4,4)" v:tabSpace="42.5197"/>
			<v:textRect cx="77.9527" cy="520.637" width="155.91" height="16.046"/>
			<rect x="0" y="512.614" width="155.905" height="16.046" class="st4"/>
			<text x="4" y="524.84" class="st11" v:langID="2052"><v:paragraph/><v:tabList/>③ check storage</text>		</g>
		<g id="shape40-157" v:mID="40" v:groupContext="shape" transform="translate(510.668,735.154) rotate(180)">
			<title>工作表.40</title>
			<path d="M6.67 528.66 L7.03 528.66 L431.11 528.66" class="st13"/>
		</g>
	</g>
</svg>
