<?xml version="1.0" encoding="UTF-8" standalone="no"?>
<!DOCTYPE svg PUBLIC "-//W3C//DTD SVG 1.1//EN" "http://www.w3.org/Graphics/SVG/1.1/DTD/svg11.dtd">
<!-- 由 Microsoft Visio, SVG Export 生成 podr2-1.svg Page-1 -->
<svg xmlns="http://www.w3.org/2000/svg" xmlns:xlink="http://www.w3.org/1999/xlink" xmlns:ev="http://www.w3.org/2001/xml-events"
		xmlns:v="http://schemas.microsoft.com/visio/2003/SVGExtensions/" width="6.97011in" height="4.23771in"
		viewBox="0 0 501.848 305.115" xml:space="preserve" color-interpolation-filters="sRGB" class="st20">
	<v:documentProperties v:langID="2052" v:metric="true" v:viewMarkup="false"/>

	<style type="text/css">
	<![CDATA[
		.st1 {visibility:visible}
		.st2 {fill:#000000;fill-opacity:0.4;filter:url(#filter_2.6666667461395);stroke:none;stroke-linecap:butt}
		.st3 {fill:#0070c0;stroke:none;stroke-linecap:butt;stroke-width:0.75}
		.st4 {fill:#0070c0;stroke:none;stroke-linecap:butt;stroke-width:6.375}
		.st5 {fill:none;stroke:none;stroke-width:0.25}
		.st6 {fill:#000000;font-family:Calibri;font-size:1.16666em}
		.st7 {font-size:1em}
		.st8 {fill:#fee599;stroke:none;stroke-width:6.375}
		.st9 {fill:#7f7f7f;stroke:none;stroke-linecap:butt;stroke-width:6.375}
		.st10 {marker-end:url(#mrkr5-94);stroke:#000000;stroke-linecap:round;stroke-linejoin:round;stroke-width:1.5}
		.st11 {fill:#000000;fill-opacity:1;stroke:#000000;stroke-opacity:1;stroke-width:0.37313432835821}
		.st12 {fill:#538135;stroke:none;stroke-linecap:butt;stroke-width:6.375}
		.st13 {fill:#2e75b5;stroke:none;stroke-linecap:butt;stroke-width:6.375}
		.st14 {fill:#bf9000;stroke:none;stroke-linecap:butt;stroke-width:6.375}
		.st15 {fill:#538135;stroke:none;stroke-linecap:butt;stroke-width:0.75}
		.st16 {fill:#2e75b5;stroke:none;stroke-linecap:butt;stroke-width:0.75}
		.st17 {fill:#bf9000;stroke:none;stroke-linecap:butt;stroke-width:0.75}
		.st18 {marker-end:url(#mrkr5-94);marker-start:url(#mrkr5-233);stroke:#000000;stroke-linecap:round;stroke-linejoin:round;stroke-width:1.5}
		.st19 {fill:#000000;font-family:Calibri;font-size:1.00001em}
		.st20 {fill:none;fill-rule:evenodd;font-size:12px;overflow:visible;stroke-linecap:square;stroke-miterlimit:3}
	]]>
	</style>

	<defs id="Markers">
		<g id="lend5">
			<path d="M 2 1 L 0 0 L 1.98117 -0.993387 C 1.67173 -0.364515 1.67301 0.372641 1.98465 1.00043 " style="stroke:none"/>
		</g>
		<marker id="mrkr5-94" class="st11" v:arrowType="5" v:arrowSize="2" v:setback="4.69" refX="-4.69" orient="auto"
				markerUnits="strokeWidth" overflow="visible">
			<use xlink:href="#lend5" transform="scale(-2.68,-2.68) "/>
		</marker>
		<marker id="mrkr5-233" class="st11" v:arrowType="5" v:arrowSize="2" v:setback="4.45" refX="4.45" orient="auto"
				markerUnits="strokeWidth" overflow="visible">
			<use xlink:href="#lend5" transform="scale(2.68) "/>
		</marker>
	</defs>
	<defs id="Filters">
		<filter id="filter_2.6666667461395">
			<feGaussianBlur stdDeviation="2.6666667461395"/>
		</filter>
	</defs>
	<g v:mID="0" v:index="1" v:groupContext="foregroundPage">
		<title>页-1</title>
		<v:pageProperties v:drawingScale="0.0393701" v:pageScale="0.0393701" v:drawingUnits="24" v:shadowOffsetX="9"
				v:shadowOffsetY="-9"/>
		<g id="group1-1" transform="translate(404.802,-59.0408)" v:mID="1" v:groupContext="group">
			<title>工作表.1</title>
			<g id="group2-2" v:mID="2" v:groupContext="group">
				<title>工作表.2</title>
				<g id="shape3-3" v:mID="3" v:groupContext="shape" transform="translate(0,-41.5606)">
					<title>工作表.3</title>
					<g id="shadow3-4" v:groupContext="shadow" v:shadowOffsetX="2.12132" v:shadowOffsetY="-2.12132" v:shadowType="1"
							transform="matrix(1,0,0,1,2.12132,2.12132)" class="st1">
						<ellipse cx="19.3949" cy="299.574" rx="19.3949" ry="5.54141" class="st2"/>
					</g>
					<ellipse cx="19.3949" cy="299.574" rx="19.3949" ry="5.54141" class="st3"/>
				</g>
				<g id="shape4-8" v:mID="4" v:groupContext="shape" transform="translate(0,-27.7071)">
					<title>工作表.4</title>
					<g id="shadow4-9" v:groupContext="shadow" v:shadowOffsetX="2.12132" v:shadowOffsetY="-2.12132" v:shadowType="1"
							transform="matrix(1,0,0,1,2.12132,2.12132)" class="st1">
						<path d="M33.25 299.57 C32.42 299.57 31.86 299.02 31.86 298.19 C31.86 297.36 32.42 296.8 33.25 296.8 C34.08
									 296.8 34.63 297.36 34.63 298.19 C34.63 299.02 34.08 299.57 33.25 299.57 ZM19.39 294.03 C8.73
									 294.03 0 291.54 0 288.49 L0 299.57 C0 302.62 8.73 305.12 19.39 305.12 C30.06 305.12 38.79 302.62
									 38.79 299.57 L38.79 288.49 C38.79 291.54 30.06 294.03 19.39 294.03 Z" class="st2"/>
					</g>
					<path d="M33.25 299.57 C32.42 299.57 31.86 299.02 31.86 298.19 C31.86 297.36 32.42 296.8 33.25 296.8 C34.08 296.8
								 34.63 297.36 34.63 298.19 C34.63 299.02 34.08 299.57 33.25 299.57 ZM19.39 294.03 C8.73 294.03 0
								 291.54 0 288.49 L0 299.57 C0 302.62 8.73 305.12 19.39 305.12 C30.06 305.12 38.79 302.62 38.79 299.57
								 L38.79 288.49 C38.79 291.54 30.06 294.03 19.39 294.03 Z" class="st3"/>
				</g>
				<g id="shape5-13" v:mID="5" v:groupContext="shape" transform="translate(0,-13.8535)">
					<title>工作表.5</title>
					<g id="shadow5-14" v:groupContext="shadow" v:shadowOffsetX="2.12132" v:shadowOffsetY="-2.12132"
							v:shadowType="1" transform="matrix(1,0,0,1,2.12132,2.12132)" class="st1">
						<path d="M33.25 299.57 C32.42 299.57 31.86 299.02 31.86 298.19 C31.86 297.36 32.42 296.8 33.25 296.8 C34.08
									 296.8 34.63 297.36 34.63 298.19 C34.63 299.02 34.08 299.57 33.25 299.57 ZM19.39 294.03 C8.73
									 294.03 0 291.54 0 288.49 L0 299.57 C0 302.62 8.73 305.12 19.39 305.12 C30.06 305.12 38.79 302.62
									 38.79 299.57 L38.79 288.49 C38.79 291.54 30.06 294.03 19.39 294.03 Z" class="st2"/>
					</g>
					<path d="M33.25 299.57 C32.42 299.57 31.86 299.02 31.86 298.19 C31.86 297.36 32.42 296.8 33.25 296.8 C34.08 296.8
								 34.63 297.36 34.63 298.19 C34.63 299.02 34.08 299.57 33.25 299.57 ZM19.39 294.03 C8.73 294.03 0
								 291.54 0 288.49 L0 299.57 C0 302.62 8.73 305.12 19.39 305.12 C30.06 305.12 38.79 302.62 38.79 299.57
								 L38.79 288.49 C38.79 291.54 30.06 294.03 19.39 294.03 Z" class="st3"/>
				</g>
				<g id="shape6-18" v:mID="6" v:groupContext="shape">
					<title>工作表.6</title>
					<g id="shadow6-19" v:groupContext="shadow" v:shadowOffsetX="2.12132" v:shadowOffsetY="-2.12132"
							v:shadowType="1" transform="matrix(1,0,0,1,2.12132,2.12132)" class="st1">
						<path d="M33.25 299.57 C32.42 299.57 31.86 299.02 31.86 298.19 C31.86 297.36 32.42 296.8 33.25 296.8 C34.08
									 296.8 34.63 297.36 34.63 298.19 C34.63 299.02 34.08 299.57 33.25 299.57 ZM19.39 294.03 C8.73
									 294.03 0 291.54 0 288.49 L0 299.57 C0 302.62 8.73 305.12 19.39 305.12 C30.06 305.12 38.79 302.62
									 38.79 299.57 L38.79 288.49 C38.79 291.54 30.06 294.03 19.39 294.03 Z" class="st2"/>
					</g>
					<path d="M33.25 299.57 C32.42 299.57 31.86 299.02 31.86 298.19 C31.86 297.36 32.42 296.8 33.25 296.8 C34.08 296.8
								 34.63 297.36 34.63 298.19 C34.63 299.02 34.08 299.57 33.25 299.57 ZM19.39 294.03 C8.73 294.03 0
								 291.54 0 288.49 L0 299.57 C0 302.62 8.73 305.12 19.39 305.12 C30.06 305.12 38.79 302.62 38.79 299.57
								 L38.79 288.49 C38.79 291.54 30.06 294.03 19.39 294.03 Z" class="st3"/>
				</g>
			</g>
		</g>
		<g id="group7-23" transform="translate(199.282,-54.9913)" v:mID="7" v:groupContext="group">
			<title>工作表.7</title>
			<g id="group8-24" v:mID="8" v:groupContext="group">
				<title>Icons</title>
				<g id="shape9-25" v:mID="9" v:groupContext="shape" transform="translate(14.9606,-14.9606)">
					<title>工作表.9</title>
					<g id="shadow9-26" v:groupContext="shadow" v:shadowOffsetX="2.12132" v:shadowOffsetY="-2.12132"
							v:shadowType="1" transform="matrix(1,0,0,1,2.12132,2.12132)" class="st1">
						<path d="M0 305.12 L26.77 305.12 L26.77 278.34 L0 278.34 L0 305.12 ZM1.57 279.92 L25.2 279.92 L25.2 303.54
									 L1.57 303.54 L1.57 279.92 Z" class="st2"/>
					</g>
					<path d="M0 305.12 L26.77 305.12 L26.77 278.34 L0 278.34 L0 305.12 ZM1.57 279.92 L25.2 279.92 L25.2 303.54 L1.57
								 303.54 L1.57 279.92 Z" class="st4"/>
				</g>
				<g id="shape10-30" v:mID="10" v:groupContext="shape">
					<title>工作表.10</title>
					<g id="shadow10-31" v:groupContext="shadow" v:shadowOffsetX="2.12132" v:shadowOffsetY="-2.12132"
							v:shadowType="1" transform="matrix(1,0,0,1,2.12132,2.12132)" class="st1">
						<path d="M56.69 261.81 L56.69 260.23 L49.61 260.23 L49.61 259.45 C49.6 257.27 47.84 255.51 45.67 255.51 L44.88
									 255.51 L44.88 248.42 L43.31 248.42 L43.31 255.51 L38.58 255.51 L38.58 248.42 L37.01 248.42 L37.01
									 255.51 L32.28 255.51 L32.28 248.42 L30.71 248.42 L30.71 255.51 L25.98 255.51 L25.98 248.42 L24.41
									 248.42 L24.41 255.51 L19.69 255.51 L19.69 248.42 L18.11 248.42 L18.11 255.51 L13.39 255.51 L13.39
									 248.42 L11.81 248.42 L11.81 255.51 L11.02 255.51 C8.85 255.51 7.09 257.27 7.09 259.45 L7.09
									 260.23 L0 260.23 L0 261.81 L7.09 261.81 L7.09 266.53 L0 266.53 L0 268.11 L7.09 268.11 L7.09
									 272.83 L0 272.83 L0 274.41 L7.09 274.41 L7.09 279.13 L0 279.13 L0 280.71 L7.09 280.71 L7.09
									 285.43 L0 285.43 L0 287.01 L7.09 287.01 L7.09 291.73 L0 291.73 L0 293.3 L7.09 293.3 L7.09 294.09
									 C7.09 296.26 8.85 298.03 11.02 298.03 L11.81 298.03 L11.81 305.12 L13.39 305.12 L13.39 298.03
									 L18.11 298.03 L18.11 305.12 L19.69 305.12 L19.69 298.03 L24.41 298.03 L24.41 305.12 L25.98 305.12
									 L25.98 298.03 L30.71 298.03 L30.71 305.12 L32.28 305.12 L32.28 298.03 L37.01 298.03 L37.01 305.12
									 L38.58 305.12 L38.58 298.03 L43.31 298.03 L43.31 305.12 L44.88 305.12 L44.88 298.03 L45.67 298.03
									 C47.84 298.03 49.6 296.26 49.61 294.09 L49.61 293.3 L56.69 293.3 L56.69 291.73 L49.61 291.73
									 L49.61 287.01 L56.69 287.01 L56.69 285.43 L49.61 285.43 L49.61 280.71 L56.69 280.71 L56.69 279.13
									 L49.61 279.13 L49.61 274.41 L56.69 274.41 L56.69 272.83 L49.61 272.83 L49.61 268.11 L56.69 268.11
									 L56.69 266.53 L49.61 266.53 L49.61 261.81 L56.69 261.81 ZM48.03 294.09 C48.03 295.4 46.97 296.45
									 45.67 296.45 L11.02 296.45 C9.72 296.45 8.66 295.4 8.66 294.09 L8.66 259.45 C8.66 258.14 9.72
									 257.08 11.02 257.08 L45.67 257.08 C46.97 257.08 48.03 258.14 48.03 259.45 L48.03 294.09 Z"
								class="st2"/>
					</g>
					<path d="M56.69 261.81 L56.69 260.23 L49.61 260.23 L49.61 259.45 C49.6 257.27 47.84 255.51 45.67 255.51 L44.88
								 255.51 L44.88 248.42 L43.31 248.42 L43.31 255.51 L38.58 255.51 L38.58 248.42 L37.01 248.42 L37.01
								 255.51 L32.28 255.51 L32.28 248.42 L30.71 248.42 L30.71 255.51 L25.98 255.51 L25.98 248.42 L24.41
								 248.42 L24.41 255.51 L19.69 255.51 L19.69 248.42 L18.11 248.42 L18.11 255.51 L13.39 255.51 L13.39
								 248.42 L11.81 248.42 L11.81 255.51 L11.02 255.51 C8.85 255.51 7.09 257.27 7.09 259.45 L7.09 260.23
								 L0 260.23 L0 261.81 L7.09 261.81 L7.09 266.53 L0 266.53 L0 268.11 L7.09 268.11 L7.09 272.83 L0 272.83
								 L0 274.41 L7.09 274.41 L7.09 279.13 L0 279.13 L0 280.71 L7.09 280.71 L7.09 285.43 L0 285.43 L0 287.01
								 L7.09 287.01 L7.09 291.73 L0 291.73 L0 293.3 L7.09 293.3 L7.09 294.09 C7.09 296.26 8.85 298.03 11.02
								 298.03 L11.81 298.03 L11.81 305.12 L13.39 305.12 L13.39 298.03 L18.11 298.03 L18.11 305.12 L19.69
								 305.12 L19.69 298.03 L24.41 298.03 L24.41 305.12 L25.98 305.12 L25.98 298.03 L30.71 298.03 L30.71
								 305.12 L32.28 305.12 L32.28 298.03 L37.01 298.03 L37.01 305.12 L38.58 305.12 L38.58 298.03 L43.31
								 298.03 L43.31 305.12 L44.88 305.12 L44.88 298.03 L45.67 298.03 C47.84 298.03 49.6 296.26 49.61 294.09
								 L49.61 293.3 L56.69 293.3 L56.69 291.73 L49.61 291.73 L49.61 287.01 L56.69 287.01 L56.69 285.43
								 L49.61 285.43 L49.61 280.71 L56.69 280.71 L56.69 279.13 L49.61 279.13 L49.61 274.41 L56.69 274.41
								 L56.69 272.83 L49.61 272.83 L49.61 268.11 L56.69 268.11 L56.69 266.53 L49.61 266.53 L49.61 261.81
								 L56.69 261.81 ZM48.03 294.09 C48.03 295.4 46.97 296.45 45.67 296.45 L11.02 296.45 C9.72 296.45 8.66
								 295.4 8.66 294.09 L8.66 259.45 C8.66 258.14 9.72 257.08 11.02 257.08 L45.67 257.08 C46.97 257.08
								 48.03 258.14 48.03 259.45 L48.03 294.09 Z" class="st4"/>
				</g>
			</g>
		</g>
		<g id="group11-35" transform="translate(19.8787,-63.5446)" v:mID="11" v:groupContext="group">
			<title>工作表.11</title>
			<g id="group12-36" v:mID="12" v:groupContext="group">
				<title>工作表.12</title>
				<g id="group13-37" v:mID="13" v:groupContext="group">
					<title>Icons</title>
					<g id="shape14-38" v:mID="14" v:groupContext="shape" transform="translate(11.8459,-26.6533)">
						<title>工作表.14</title>
						<g id="shadow14-39" v:groupContext="shadow" v:shadowOffsetX="2.12132" v:shadowOffsetY="-2.12132"
								v:shadowType="1" transform="matrix(1,0,0,1,2.12132,2.12132)" class="st1">
							<path d="M11.85 282.9 C17.57 282.9 22.21 287.54 22.21 293.27 C22.21 298.99 17.57 303.63 11.85 303.63
										 C6.12 303.63 1.48 298.99 1.48 293.27 C1.49 287.55 6.12 282.91 11.85 282.9 ZM11.85 281.42
										 C5.3 281.42 0 286.73 0 293.27 C0 299.81 5.3 305.12 11.85 305.12 C18.39 305.12 23.69 299.81
										 23.69 293.27 C23.69 286.73 18.39 281.42 11.85 281.42 Z" class="st2"/>
						</g>
						<path d="M11.85 282.9 C17.57 282.9 22.21 287.54 22.21 293.27 C22.21 298.99 17.57 303.63 11.85 303.63 C6.12
									 303.63 1.48 298.99 1.48 293.27 C1.49 287.55 6.12 282.91 11.85 282.9 ZM11.85 281.42 C5.3 281.42
									 0 286.73 0 293.27 C0 299.81 5.3 305.12 11.85 305.12 C18.39 305.12 23.69 299.81 23.69 293.27
									 C23.69 286.73 18.39 281.42 11.85 281.42 Z" class="st3"/>
					</g>
					<g id="shape15-43" v:mID="15" v:groupContext="shape">
						<title>工作表.15</title>
						<g id="shadow15-44" v:groupContext="shadow" v:shadowOffsetX="2.12132" v:shadowOffsetY="-2.12132"
								v:shadowType="1" transform="matrix(1,0,0,1,2.12132,2.12132)" class="st1">
							<path d="M47.38 305.12 L45.9 305.12 L45.9 293.64 C45.87 292.07 45.13 290.59 43.89 289.63 C40.64 287.14
										 36.92 285.33 32.96 284.31 C29.95 283.39 26.83 282.91 23.69 282.9 C20.55 282.96 17.43 283.43
										 14.42 284.31 C10.5 285.46 6.79 287.26 3.47 289.64 C2.24 290.61 1.51 292.08 1.48 293.64 L1.48
										 305.12 L0 305.12 L0 293.64 C0.04 291.62 0.98 289.72 2.57 288.47 C6.05 285.98 9.92 284.09
										 14.02 282.89 C17.16 281.97 20.42 281.48 23.69 281.42 C26.97 281.43 30.24 281.93 33.37 282.89
										 C37.53 283.96 41.42 285.86 44.82 288.48 C46.41 289.72 47.35 291.62 47.38 293.64 L47.38 305.12
										 Z" class="st2"/>
						</g>
						<path d="M47.38 305.12 L45.9 305.12 L45.9 293.64 C45.87 292.07 45.13 290.59 43.89 289.63 C40.64 287.14 36.92
									 285.33 32.96 284.31 C29.95 283.39 26.83 282.91 23.69 282.9 C20.55 282.96 17.43 283.43 14.42
									 284.31 C10.5 285.46 6.79 287.26 3.47 289.64 C2.24 290.61 1.51 292.08 1.48 293.64 L1.48 305.12
									 L0 305.12 L0 293.64 C0.04 291.62 0.98 289.72 2.57 288.47 C6.05 285.98 9.92 284.09 14.02 282.89
									 C17.16 281.97 20.42 281.48 23.69 281.42 C26.97 281.43 30.24 281.93 33.37 282.89 C37.53 283.96
									 41.42 285.86 44.82 288.48 C46.41 289.72 47.35 291.62 47.38 293.64 L47.38 305.12 Z" class="st3"/>
					</g>
				</g>
			</g>
			<g id="group16-48" transform="translate(27.9283,-5.11591E-13)" v:mID="16" v:groupContext="group">
				<title>工作表.16</title>
				<g id="shape17-49" v:mID="17" v:groupContext="shape" transform="translate(0,-1.03257)">
					<title>工作表.17</title>
					<g id="shadow17-50" v:groupContext="shadow" v:shadowOffsetX="2.12132" v:shadowOffsetY="-2.12132"
							v:shadowType="1" transform="matrix(1,0,0,1,2.12132,2.12132)" class="st1">
						<path d="M7.34 291.77 L25.81 291.77 L25.81 289.92 C25.81 289.11 25.15 288.45 24.34 288.45 L13.28 288.45 L9.22
									 285.75 C8.96 285.61 8.7 285.5 8.41 285.5 L1.48 285.5 C0.66 285.5 0 286.16 0 286.97 L0 305.04
									 C0 305.12 4.76 293.5 4.76 293.5 C5.2 292.47 6.2 291.77 7.34 291.77 Z" class="st2"/>
					</g>
					<path d="M7.34 291.77 L25.81 291.77 L25.81 289.92 C25.81 289.11 25.15 288.45 24.34 288.45 L13.28 288.45 L9.22
								 285.75 C8.96 285.61 8.7 285.5 8.41 285.5 L1.48 285.5 C0.66 285.5 0 286.16 0 286.97 L0 305.04 C0
								 305.12 4.76 293.5 4.76 293.5 C5.2 292.47 6.2 291.77 7.34 291.77 Z" class="st3"/>
				</g>
				<g id="shape18-54" v:mID="18" v:groupContext="shape" transform="translate(1.10633,0)">
					<title>工作表.18</title>
					<g id="shadow18-55" v:groupContext="shadow" v:shadowOffsetX="2.12132" v:shadowOffsetY="-2.12132"
							v:shadowType="1" transform="matrix(1,0,0,1,2.12132,2.12132)" class="st1">
						<path d="M27.66 293.68 C27.66 292.91 27.11 292.28 26.33 292.21 L6.23 292.21 C5.68 292.21 5.2 292.54 4.98
									 293.02 L0 305.12 L22.5 305.12 L27.51 294.35 C27.62 294.13 27.66 293.9 27.66 293.68 Z"
								class="st2"/>
					</g>
					<path d="M27.66 293.68 C27.66 292.91 27.11 292.28 26.33 292.21 L6.23 292.21 C5.68 292.21 5.2 292.54 4.98 293.02
								 L0 305.12 L22.5 305.12 L27.51 294.35 C27.62 294.13 27.66 293.9 27.66 293.68 Z" class="st3"/>
				</g>
			</g>
		</g>
		<g id="shape19-59" v:mID="19" v:groupContext="shape" transform="translate(23.0192,-30.3422)">
			<title>矩形.160</title>
			<desc>User</desc>
			<v:userDefs>
				<v:ud v:nameU="visVersion" v:val="VT0(15):26"/>
			</v:userDefs>
			<v:textBlock v:margins="rect(4,4,4,4)" v:tabSpace="42.5197"/>
			<v:textRect cx="19.9843" cy="290.942" width="39.97" height="28.3465"/>
			<rect x="0" y="276.769" width="39.9685" height="28.3465" class="st5"/>
			<text x="6.83" y="295.14" class="st6" v:langID="2052"><v:paragraph v:horizAlign="1"/><v:tabList/>User</text>		</g>
		<g id="shape20-62" v:mID="20" v:groupContext="shape" transform="translate(120.94,-20.6267)">
			<title>矩形.20</title>
			<desc>CESS Consensus Node (Trust Execution Environment)</desc>
			<v:userDefs>
				<v:ud v:nameU="visVersion" v:val="VT0(15):26"/>
			</v:userDefs>
			<v:textBlock v:margins="rect(4,4,4,4)" v:tabSpace="42.5197"/>
			<v:textRect cx="106.607" cy="290.942" width="213.22" height="28.3465"/>
			<rect x="0" y="276.769" width="213.215" height="28.3465" class="st5"/>
			<text x="44.34" y="286.74" class="st6" v:langID="2052"><v:paragraph v:horizAlign="1"/><v:tabList/>CESS Consensus Node<v:newlineChar/><tspan
						x="19.92" dy="1.2em" class="st7">(Trust </tspan><tspan class="st7" v:langID="1033">Execution Environment</tspan>)</text>		</g>
		<g id="shape21-67" v:mID="21" v:groupContext="shape" transform="translate(363.117,-28.7111)">
			<title>矩形.21</title>
			<desc>CESS Storage Node</desc>
			<v:userDefs>
				<v:ud v:nameU="visVersion" v:val="VT0(15):26"/>
			</v:userDefs>
			<v:textBlock v:margins="rect(4,4,4,4)" v:tabSpace="42.5197"/>
			<v:textRect cx="60.2402" cy="290.942" width="120.49" height="28.3465"/>
			<rect x="0" y="276.769" width="120.48" height="28.3465" class="st5"/>
			<text x="6.3" y="295.14" class="st6" v:langID="2052"><v:paragraph v:horizAlign="1"/><v:tabList/>CESS Storage Node</text>		</g>
		<g id="group22-70" transform="translate(327.433,5.45542) rotate(45)" v:mID="22" v:groupContext="group">
			<title>方向.192</title>
			<g id="shape23-71" v:mID="23" v:groupContext="shape">
				<title>工作表.23</title>
				<path d="M23.47 283.7 L5.46 289.19 L13.23 291.73 L14.29 292.09 L14.68 293.06 L17.46 300.16 L23.47 283.7 ZM25.82 280.76
							 C26.14 280.76 26.37 280.9 26.49 281.04 C26.65 281.22 26.69 281.47 26.61 281.72 L18.29 304.58 C18.17
							 304.9 17.86 305.12 17.5 305.12 C17.15 305.12 16.84 304.9 16.72 304.58 L12.44 293.74 L0.59 289.83 C0.24
							 289.72 0 289.44 0 289.11 C0 288.79 0.24 288.5 0.59 288.4 L25.55 280.79 C25.63 280.76 25.75 280.76 25.82
							 280.76 Z" class="st8"/>
			</g>
		</g>
		<g id="group24-73" transform="translate(523.955,6.60153) rotate(45)" v:mID="24" v:groupContext="group">
			<title>方向.221</title>
			<g id="shape25-74" v:mID="25" v:groupContext="shape">
				<title>工作表.25</title>
				<path d="M21.45 281.69 L4.99 287.69 L12.09 290.48 L13.06 290.87 L13.42 291.93 L15.96 299.7 L21.45 281.69 ZM23.61
							 278.47 C23.89 278.47 24.11 278.62 24.22 278.78 C24.36 278.98 24.4 279.25 24.32 279.53 L16.72 304.53
							 C16.61 304.88 16.32 305.12 16 305.12 C15.68 305.12 15.39 304.88 15.28 304.53 L11.37 292.67 L0.54 288.4
							 C0.22 288.28 0 287.96 0 287.61 C0 287.26 0.22 286.94 0.54 286.83 L23.36 278.51 C23.43 278.47 23.53 278.47
							 23.61 278.47 Z" class="st8"/>
			</g>
		</g>
		<g id="group26-76" transform="translate(37.2409,-188.096)" v:mID="26" v:groupContext="group">
			<title>工作表.26</title>
			<g id="shape27-77" v:mID="27" v:groupContext="shape">
				<title>工作表.27</title>
				<path d="M2.13 302.99 L2.13 278.89 L10.98 278.89 L10.98 286.34 L19.84 286.34 L19.84 302.99 L2.13 302.99 ZM13.11 279.78
							 L17.54 284.21 L13.11 284.21 L13.11 279.78 ZM13.11 276.77 L0 276.77 L0 305.12 L21.97 305.12 L21.97 284.56
							 L13.11 276.77 Z" class="st9"/>
			</g>
			<g id="shape28-79" v:mID="28" v:groupContext="shape" transform="translate(4.25197,-13.8189)">
				<title>工作表.28</title>
				<rect x="0" y="303.698" width="13.4646" height="1.41732" class="st9"/>
			</g>
			<g id="shape29-81" v:mID="29" v:groupContext="shape" transform="translate(4.25197,-16.6535)">
				<title>工作表.29</title>
				<rect x="0" y="303.698" width="4.6063" height="1.41732" class="st9"/>
			</g>
			<g id="shape30-83" v:mID="30" v:groupContext="shape" transform="translate(4.25197,-10.9843)">
				<title>工作表.30</title>
				<rect x="0" y="303.698" width="13.4646" height="1.41732" class="st9"/>
			</g>
			<g id="shape31-85" v:mID="31" v:groupContext="shape" transform="translate(4.25197,-8.14961)">
				<title>工作表.31</title>
				<rect x="0" y="303.698" width="13.4646" height="1.41732" class="st9"/>
			</g>
			<g id="shape32-87" v:mID="32" v:groupContext="shape" transform="translate(4.25197,-5.31496)">
				<title>工作表.32</title>
				<rect x="0" y="303.698" width="13.4646" height="1.41732" class="st9"/>
			</g>
		</g>
		<g id="shape33-89" v:mID="33" v:groupContext="shape" transform="translate(79.4062,-198.572)">
			<title>工作表.33</title>
			<path d="M0 305.12 L83.67 305.12" class="st10"/>
		</g>
		<g id="group34-95" transform="translate(187.681,-236.778)" v:mID="34" v:groupContext="group">
			<title>工作表.34</title>
			<g id="shape35-96" v:mID="35" v:groupContext="shape">
				<title>工作表.35</title>
				<path d="M2.13 302.99 L2.13 278.89 L10.98 278.89 L10.98 286.34 L19.84 286.34 L19.84 302.99 L2.13 302.99 ZM13.11 279.78
							 L17.54 284.21 L13.11 284.21 L13.11 279.78 ZM13.11 276.77 L0 276.77 L0 305.12 L21.97 305.12 L21.97 284.56
							 L13.11 276.77 Z" class="st9"/>
			</g>
			<g id="shape36-98" v:mID="36" v:groupContext="shape" transform="translate(4.25197,-13.8189)">
				<title>工作表.36</title>
				<rect x="0" y="303.698" width="13.4646" height="1.41732" class="st9"/>
			</g>
			<g id="shape37-100" v:mID="37" v:groupContext="shape" transform="translate(4.25197,-16.6535)">
				<title>工作表.37</title>
				<rect x="0" y="303.698" width="4.6063" height="1.41732" class="st9"/>
			</g>
			<g id="shape38-102" v:mID="38" v:groupContext="shape" transform="translate(4.25197,-10.9843)">
				<title>工作表.38</title>
				<rect x="0" y="303.698" width="13.4646" height="1.41732" class="st9"/>
			</g>
			<g id="shape39-104" v:mID="39" v:groupContext="shape" transform="translate(4.25197,-8.14961)">
				<title>工作表.39</title>
				<rect x="0" y="303.698" width="13.4646" height="1.41732" class="st9"/>
			</g>
			<g id="shape40-106" v:mID="40" v:groupContext="shape" transform="translate(4.25197,-5.31496)">
				<title>工作表.40</title>
				<rect x="0" y="303.698" width="13.4646" height="1.41732" class="st9"/>
			</g>
		</g>
		<g id="group41-108" transform="translate(187.681,-187.172)" v:mID="41" v:groupContext="group">
			<title>工作表.41</title>
			<g id="shape42-109" v:mID="42" v:groupContext="shape">
				<title>工作表.42</title>
				<path d="M2.13 302.99 L2.13 278.89 L10.98 278.89 L10.98 286.34 L19.84 286.34 L19.84 302.99 L2.13 302.99 ZM13.11 279.78
							 L17.54 284.21 L13.11 284.21 L13.11 279.78 ZM13.11 276.77 L0 276.77 L0 305.12 L21.97 305.12 L21.97 284.56
							 L13.11 276.77 Z" class="st9"/>
			</g>
			<g id="shape43-111" v:mID="43" v:groupContext="shape" transform="translate(4.25197,-13.8189)">
				<title>工作表.43</title>
				<rect x="0" y="303.698" width="13.4646" height="1.41732" class="st9"/>
			</g>
			<g id="shape44-113" v:mID="44" v:groupContext="shape" transform="translate(4.25197,-16.6535)">
				<title>工作表.44</title>
				<rect x="0" y="303.698" width="4.6063" height="1.41732" class="st9"/>
			</g>
			<g id="shape45-115" v:mID="45" v:groupContext="shape" transform="translate(4.25197,-10.9843)">
				<title>工作表.45</title>
				<rect x="0" y="303.698" width="13.4646" height="1.41732" class="st9"/>
			</g>
			<g id="shape46-117" v:mID="46" v:groupContext="shape" transform="translate(4.25197,-8.14961)">
				<title>工作表.46</title>
				<rect x="0" y="303.698" width="13.4646" height="1.41732" class="st9"/>
			</g>
			<g id="shape47-119" v:mID="47" v:groupContext="shape" transform="translate(4.25197,-5.31496)">
				<title>工作表.47</title>
				<rect x="0" y="303.698" width="13.4646" height="1.41732" class="st9"/>
			</g>
		</g>
		<g id="group48-121" transform="translate(187.681,-137.566)" v:mID="48" v:groupContext="group">
			<title>工作表.48</title>
			<g id="shape49-122" v:mID="49" v:groupContext="shape">
				<title>工作表.49</title>
				<path d="M2.13 302.99 L2.13 278.89 L10.98 278.89 L10.98 286.34 L19.84 286.34 L19.84 302.99 L2.13 302.99 ZM13.11 279.78
							 L17.54 284.21 L13.11 284.21 L13.11 279.78 ZM13.11 276.77 L0 276.77 L0 305.12 L21.97 305.12 L21.97 284.56
							 L13.11 276.77 Z" class="st9"/>
			</g>
			<g id="shape50-124" v:mID="50" v:groupContext="shape" transform="translate(4.25197,-13.8189)">
				<title>工作表.50</title>
				<rect x="0" y="303.698" width="13.4646" height="1.41732" class="st9"/>
			</g>
			<g id="shape51-126" v:mID="51" v:groupContext="shape" transform="translate(4.25197,-16.6535)">
				<title>工作表.51</title>
				<rect x="0" y="303.698" width="4.6063" height="1.41732" class="st9"/>
			</g>
			<g id="shape52-128" v:mID="52" v:groupContext="shape" transform="translate(4.25197,-10.9843)">
				<title>工作表.52</title>
				<rect x="0" y="303.698" width="13.4646" height="1.41732" class="st9"/>
			</g>
			<g id="shape53-130" v:mID="53" v:groupContext="shape" transform="translate(4.25197,-8.14961)">
				<title>工作表.53</title>
				<rect x="0" y="303.698" width="13.4646" height="1.41732" class="st9"/>
			</g>
			<g id="shape54-132" v:mID="54" v:groupContext="shape" transform="translate(4.25197,-5.31496)">
				<title>工作表.54</title>
				<rect x="0" y="303.698" width="13.4646" height="1.41732" class="st9"/>
			</g>
		</g>
		<g id="group55-134" transform="translate(264.661,-236.778)" v:mID="55" v:groupContext="group">
			<title>工作表.55</title>
			<g id="shape56-135" v:mID="56" v:groupContext="shape">
				<title>工作表.56</title>
				<path d="M2.13 302.99 L2.13 278.89 L10.98 278.89 L10.98 286.34 L19.84 286.34 L19.84 302.99 L2.13 302.99 ZM13.11 279.78
							 L17.54 284.21 L13.11 284.21 L13.11 279.78 ZM13.11 276.77 L0 276.77 L0 305.12 L21.97 305.12 L21.97 284.56
							 L13.11 276.77 Z" class="st12"/>
			</g>
			<g id="shape57-137" v:mID="57" v:groupContext="shape" transform="translate(4.25197,-13.8189)">
				<title>工作表.57</title>
				<rect x="0" y="303.698" width="13.4646" height="1.41732" class="st12"/>
			</g>
			<g id="shape58-139" v:mID="58" v:groupContext="shape" transform="translate(4.25197,-16.6535)">
				<title>工作表.58</title>
				<rect x="0" y="303.698" width="4.6063" height="1.41732" class="st12"/>
			</g>
			<g id="shape59-141" v:mID="59" v:groupContext="shape" transform="translate(4.25197,-10.9843)">
				<title>工作表.59</title>
				<rect x="0" y="303.698" width="13.4646" height="1.41732" class="st12"/>
			</g>
			<g id="shape60-143" v:mID="60" v:groupContext="shape" transform="translate(4.25197,-8.14961)">
				<title>工作表.60</title>
				<rect x="0" y="303.698" width="13.4646" height="1.41732" class="st12"/>
			</g>
			<g id="shape61-145" v:mID="61" v:groupContext="shape" transform="translate(4.25197,-5.31496)">
				<title>工作表.61</title>
				<rect x="0" y="303.698" width="13.4646" height="1.41732" class="st12"/>
			</g>
		</g>
		<g id="group62-147" transform="translate(264.661,-187.172)" v:mID="62" v:groupContext="group">
			<title>工作表.62</title>
			<g id="shape63-148" v:mID="63" v:groupContext="shape">
				<title>工作表.63</title>
				<path d="M2.13 302.99 L2.13 278.89 L10.98 278.89 L10.98 286.34 L19.84 286.34 L19.84 302.99 L2.13 302.99 ZM13.11 279.78
							 L17.54 284.21 L13.11 284.21 L13.11 279.78 ZM13.11 276.77 L0 276.77 L0 305.12 L21.97 305.12 L21.97 284.56
							 L13.11 276.77 Z" class="st13"/>
			</g>
			<g id="shape64-150" v:mID="64" v:groupContext="shape" transform="translate(4.25197,-13.8189)">
				<title>工作表.64</title>
				<rect x="0" y="303.698" width="13.4646" height="1.41732" class="st13"/>
			</g>
			<g id="shape65-152" v:mID="65" v:groupContext="shape" transform="translate(4.25197,-16.6535)">
				<title>工作表.65</title>
				<rect x="0" y="303.698" width="4.6063" height="1.41732" class="st13"/>
			</g>
			<g id="shape66-154" v:mID="66" v:groupContext="shape" transform="translate(4.25197,-10.9843)">
				<title>工作表.66</title>
				<rect x="0" y="303.698" width="13.4646" height="1.41732" class="st13"/>
			</g>
			<g id="shape67-156" v:mID="67" v:groupContext="shape" transform="translate(4.25197,-8.14961)">
				<title>工作表.67</title>
				<rect x="0" y="303.698" width="13.4646" height="1.41732" class="st13"/>
			</g>
			<g id="shape68-158" v:mID="68" v:groupContext="shape" transform="translate(4.25197,-5.31496)">
				<title>工作表.68</title>
				<rect x="0" y="303.698" width="13.4646" height="1.41732" class="st13"/>
			</g>
		</g>
		<g id="group69-160" transform="translate(264.661,-137.566)" v:mID="69" v:groupContext="group">
			<title>工作表.69</title>
			<g id="shape70-161" v:mID="70" v:groupContext="shape">
				<title>工作表.70</title>
				<path d="M2.13 302.99 L2.13 278.89 L10.98 278.89 L10.98 286.34 L19.84 286.34 L19.84 302.99 L2.13 302.99 ZM13.11 279.78
							 L17.54 284.21 L13.11 284.21 L13.11 279.78 ZM13.11 276.77 L0 276.77 L0 305.12 L21.97 305.12 L21.97 284.56
							 L13.11 276.77 Z" class="st14"/>
			</g>
			<g id="shape71-163" v:mID="71" v:groupContext="shape" transform="translate(4.25197,-13.8189)">
				<title>工作表.71</title>
				<rect x="0" y="303.698" width="13.4646" height="1.41732" class="st14"/>
			</g>
			<g id="shape72-165" v:mID="72" v:groupContext="shape" transform="translate(4.25197,-16.6535)">
				<title>工作表.72</title>
				<rect x="0" y="303.698" width="4.6063" height="1.41732" class="st14"/>
			</g>
			<g id="shape73-167" v:mID="73" v:groupContext="shape" transform="translate(4.25197,-10.9843)">
				<title>工作表.73</title>
				<rect x="0" y="303.698" width="13.4646" height="1.41732" class="st14"/>
			</g>
			<g id="shape74-169" v:mID="74" v:groupContext="shape" transform="translate(4.25197,-8.14961)">
				<title>工作表.74</title>
				<rect x="0" y="303.698" width="13.4646" height="1.41732" class="st14"/>
			</g>
			<g id="shape75-171" v:mID="75" v:groupContext="shape" transform="translate(4.25197,-5.31496)">
				<title>工作表.75</title>
				<rect x="0" y="303.698" width="13.4646" height="1.41732" class="st14"/>
			</g>
		</g>
		<g id="shape76-173" v:mID="76" v:groupContext="shape" transform="translate(216.439,-248.844)">
			<title>工作表.76</title>
			<path d="M0 305.12 L30.26 305.12" class="st10"/>
		</g>
		<g id="shape77-178" v:mID="77" v:groupContext="shape" transform="translate(216.185,-200.453)">
			<title>工作表.77</title>
			<path d="M0 305.12 L30.52 305.12" class="st10"/>
		</g>
		<g id="shape78-183" v:mID="78" v:groupContext="shape" transform="translate(218.304,-149.728)">
			<title>工作表.78</title>
			<path d="M0 305.12 L28.4 305.12" class="st10"/>
		</g>
		<g id="group79-188" transform="translate(408.934,-234.991)" v:mID="79" v:groupContext="group">
			<title>工作表.79</title>
			<g id="shape80-189" v:mID="80" v:groupContext="shape">
				<title>工作表.80</title>
				<path d="M2.13 302.99 L2.13 278.89 L10.98 278.89 L10.98 286.34 L19.84 286.34 L19.84 302.99 L2.13 302.99 ZM13.11 279.78
							 L17.54 284.21 L13.11 284.21 L13.11 279.78 ZM13.11 276.77 L0 276.77 L0 305.12 L21.97 305.12 L21.97 284.56
							 L13.11 276.77 Z" class="st15"/>
			</g>
			<g id="shape81-191" v:mID="81" v:groupContext="shape" transform="translate(4.25197,-13.8189)">
				<title>工作表.81</title>
				<rect x="0" y="303.698" width="13.4646" height="1.41732" class="st15"/>
			</g>
			<g id="shape82-193" v:mID="82" v:groupContext="shape" transform="translate(4.25197,-16.6535)">
				<title>工作表.82</title>
				<rect x="0" y="303.698" width="4.6063" height="1.41732" class="st15"/>
			</g>
			<g id="shape83-195" v:mID="83" v:groupContext="shape" transform="translate(4.25197,-10.9843)">
				<title>工作表.83</title>
				<rect x="0" y="303.698" width="13.4646" height="1.41732" class="st15"/>
			</g>
			<g id="shape84-197" v:mID="84" v:groupContext="shape" transform="translate(4.25197,-8.14961)">
				<title>工作表.84</title>
				<rect x="0" y="303.698" width="13.4646" height="1.41732" class="st15"/>
			</g>
			<g id="shape85-199" v:mID="85" v:groupContext="shape" transform="translate(4.25197,-5.31496)">
				<title>工作表.85</title>
				<rect x="0" y="303.698" width="13.4646" height="1.41732" class="st15"/>
			</g>
		</g>
		<g id="group86-201" transform="translate(408.934,-185.385)" v:mID="86" v:groupContext="group">
			<title>工作表.86</title>
			<g id="shape87-202" v:mID="87" v:groupContext="shape">
				<title>工作表.87</title>
				<path d="M2.13 302.99 L2.13 278.89 L10.98 278.89 L10.98 286.34 L19.84 286.34 L19.84 302.99 L2.13 302.99 ZM13.11 279.78
							 L17.54 284.21 L13.11 284.21 L13.11 279.78 ZM13.11 276.77 L0 276.77 L0 305.12 L21.97 305.12 L21.97 284.56
							 L13.11 276.77 Z" class="st16"/>
			</g>
			<g id="shape88-204" v:mID="88" v:groupContext="shape" transform="translate(4.25197,-13.8189)">
				<title>工作表.88</title>
				<rect x="0" y="303.698" width="13.4646" height="1.41732" class="st16"/>
			</g>
			<g id="shape89-206" v:mID="89" v:groupContext="shape" transform="translate(4.25197,-16.6535)">
				<title>工作表.89</title>
				<rect x="0" y="303.698" width="4.6063" height="1.41732" class="st16"/>
			</g>
			<g id="shape90-208" v:mID="90" v:groupContext="shape" transform="translate(4.25197,-10.9843)">
				<title>工作表.90</title>
				<rect x="0" y="303.698" width="13.4646" height="1.41732" class="st16"/>
			</g>
			<g id="shape91-210" v:mID="91" v:groupContext="shape" transform="translate(4.25197,-8.14961)">
				<title>工作表.91</title>
				<rect x="0" y="303.698" width="13.4646" height="1.41732" class="st16"/>
			</g>
			<g id="shape92-212" v:mID="92" v:groupContext="shape" transform="translate(4.25197,-5.31496)">
				<title>工作表.92</title>
				<rect x="0" y="303.698" width="13.4646" height="1.41732" class="st16"/>
			</g>
		</g>
		<g id="group93-214" transform="translate(408.934,-135.779)" v:mID="93" v:groupContext="group">
			<title>工作表.93</title>
			<g id="shape94-215" v:mID="94" v:groupContext="shape">
				<title>工作表.94</title>
				<path d="M2.13 302.99 L2.13 278.89 L10.98 278.89 L10.98 286.34 L19.84 286.34 L19.84 302.99 L2.13 302.99 ZM13.11 279.78
							 L17.54 284.21 L13.11 284.21 L13.11 279.78 ZM13.11 276.77 L0 276.77 L0 305.12 L21.97 305.12 L21.97 284.56
							 L13.11 276.77 Z" class="st17"/>
			</g>
			<g id="shape95-217" v:mID="95" v:groupContext="shape" transform="translate(4.25197,-13.8189)">
				<title>工作表.95</title>
				<rect x="0" y="303.698" width="13.4646" height="1.41732" class="st17"/>
			</g>
			<g id="shape96-219" v:mID="96" v:groupContext="shape" transform="translate(4.25197,-16.6535)">
				<title>工作表.96</title>
				<rect x="0" y="303.698" width="4.6063" height="1.41732" class="st17"/>
			</g>
			<g id="shape97-221" v:mID="97" v:groupContext="shape" transform="translate(4.25197,-10.9843)">
				<title>工作表.97</title>
				<rect x="0" y="303.698" width="13.4646" height="1.41732" class="st17"/>
			</g>
			<g id="shape98-223" v:mID="98" v:groupContext="shape" transform="translate(4.25197,-8.14961)">
				<title>工作表.98</title>
				<rect x="0" y="303.698" width="13.4646" height="1.41732" class="st17"/>
			</g>
			<g id="shape99-225" v:mID="99" v:groupContext="shape" transform="translate(4.25197,-5.31496)">
				<title>工作表.99</title>
				<rect x="0" y="303.698" width="13.4646" height="1.41732" class="st17"/>
			</g>
		</g>
		<g id="shape100-227" v:mID="100" v:groupContext="shape" transform="translate(300.509,-248.758)">
			<title>工作表.100</title>
			<path d="M6.67 305.12 L7.03 305.12 L90.47 305.12" class="st18"/>
		</g>
		<g id="shape101-235" v:mID="101" v:groupContext="shape" transform="translate(300.509,-200.367)">
			<title>工作表.101</title>
			<path d="M6.67 305.12 L7.03 305.12 L90.47 305.12" class="st18"/>
		</g>
		<g id="shape102-242" v:mID="102" v:groupContext="shape" transform="translate(300.509,-149.642)">
			<title>工作表.102</title>
			<path d="M6.67 305.12 L7.03 305.12 L90.47 305.12" class="st18"/>
		</g>
		<g id="shape103-249" v:mID="103" v:groupContext="shape" transform="translate(85.0755,-201.531)">
			<title>Rectangle.61</title>
			<desc>Send F</desc>
			<v:userDefs>
				<v:ud v:nameU="visVersion" v:val="VT0(15):26"/>
			</v:userDefs>
			<v:textBlock v:margins="rect(4,4,4,4)" v:tabSpace="42.5197"/>
			<v:textRect cx="34.8661" cy="297.092" width="69.74" height="16.046"/>
			<rect x="0" y="289.069" width="69.7323" height="16.046" class="st5"/>
			<text x="16.01" y="301.29" class="st6" v:langID="2052"><v:paragraph v:horizAlign="1"/><v:tabList/>Send F</text>		</g>
		<g id="shape104-252" v:mID="104" v:groupContext="shape" transform="translate(192.151,-270.819)">
			<title>Rectangle.151</title>
			<desc>Randomize</desc>
			<v:userDefs>
				<v:ud v:nameU="visVersion" v:val="VT0(15):26"/>
			</v:userDefs>
			<v:textBlock v:margins="rect(4,4,4,4)" v:tabSpace="42.5197"/>
			<v:textRect cx="42.1701" cy="297.092" width="84.35" height="16.046"/>
			<rect x="0" y="289.069" width="84.3403" height="16.046" class="st5"/>
			<text x="15.04" y="300.69" class="st19" v:langID="2052"><v:paragraph v:horizAlign="1"/><v:tabList/>R<tspan class="st7"
						v:langID="1033">andomiz</tspan>e</text>		</g>
		<g id="shape105-256" v:mID="105" v:groupContext="shape" transform="translate(192.151,-252.579)">
			<title>Rectangle.152</title>
			<desc>Sign</desc>
			<v:userDefs>
				<v:ud v:nameU="visVersion" v:val="VT0(15):26"/>
			</v:userDefs>
			<v:textBlock v:margins="rect(4,4,4,4)" v:tabSpace="42.5197"/>
			<v:textRect cx="42.1701" cy="297.092" width="84.35" height="16.046"/>
			<rect x="0" y="289.069" width="84.3403" height="16.046" class="st5"/>
			<text x="32.06" y="300.69" class="st19" v:langID="2052"><v:paragraph v:horizAlign="1"/><v:tabList/>Sign</text>		</g>
		<g id="shape106-259" v:mID="106" v:groupContext="shape" transform="translate(306.745,-255.882)">
			<title>Rectangle.154</title>
			<desc>Challenge</desc>
			<v:userDefs>
				<v:ud v:nameU="visVersion" v:val="VT0(15):26"/>
			</v:userDefs>
			<v:textBlock v:margins="rect(4,4,4,4)" v:tabSpace="42.5197"/>
			<v:textRect cx="42.1701" cy="297.092" width="84.35" height="16.046"/>
			<rect x="0" y="289.069" width="84.3403" height="16.046" class="st5"/>
			<text x="18.24" y="300.69" class="st19" v:langID="1033"><v:paragraph v:horizAlign="1"/><v:tabList/>Challenge</text>		</g>
		<g id="shape107-262" v:mID="107" v:groupContext="shape" transform="translate(308.598,-224.812)">
			<title>Rectangle.155</title>
			<desc>Verify</desc>
			<v:userDefs>
				<v:ud v:nameU="visVersion" v:val="VT0(15):26"/>
			</v:userDefs>
			<v:textBlock v:margins="rect(4,4,4,4)" v:tabSpace="42.5197"/>
			<v:textRect cx="42.1701" cy="297.092" width="84.35" height="16.046"/>
			<rect x="0" y="289.069" width="84.3403" height="16.046" class="st5"/>
			<text x="27.76" y="300.69" class="st19" v:langID="2052"><v:paragraph v:horizAlign="1"/><v:tabList/>Verify</text>		</g>
	</g>
</svg>
