<?xml version="1.0" encoding="UTF-8" standalone="no"?>
<!DOCTYPE svg PUBLIC "-//W3C//DTD SVG 1.1//EN" "http://www.w3.org/Graphics/SVG/1.1/DTD/svg11.dtd">
<!-- 由 Microsoft Visio, SVG Export 生成 05.svg Page-7 -->
<svg xmlns="http://www.w3.org/2000/svg" xmlns:xlink="http://www.w3.org/1999/xlink" xmlns:ev="http://www.w3.org/2001/xml-events"
		xmlns:v="http://schemas.microsoft.com/visio/2003/SVGExtensions/" width="11.6929in" height="8.26772in"
		viewBox="0 0 841.89 595.276" xml:space="preserve" color-interpolation-filters="sRGB" class="st19">
	<v:documentProperties v:langID="2052" v:metric="true" v:viewMarkup="false">
		<v:userDefs>
			<v:ud v:nameU="msvSubprocessMaster" v:prompt="" v:val="VT4(Rectangle)"/>
			<v:ud v:nameU="msvNoAutoConnect" v:val="VT0(1):26"/>
		</v:userDefs>
	</v:documentProperties>

	<style type="text/css">
	<![CDATA[
		.st1 {fill:#fff2cc;stroke:#bf9000;stroke-dasharray:1.75,1.25,0.01,1.25;stroke-width:0.25}
		.st2 {fill:#7f6000;font-family:Calibri;font-size:0.916672em}
		.st3 {fill:#595959;stroke:none;stroke-linecap:butt;stroke-width:6.375}
		.st4 {fill:#ffd965;stroke:#bf9000;stroke-width:0.25}
		.st5 {fill:#deebf6;stroke:#2e75b5;stroke-dasharray:1.75,1.25,0.01,1.25;stroke-width:0.25}
		.st6 {fill:#1e4e79;font-family:Calibri;font-size:1.00001em}
		.st7 {font-size:1em}
		.st8 {fill:#9cc3e5;stroke:#4672c4;stroke-width:0.25}
		.st9 {fill:#1e4e79;font-family:Calibri;font-size:0.916672em}
		.st10 {fill:#e2efd9;stroke:#538135;stroke-dasharray:1.75,1.25,0.01,1.25;stroke-width:0.25}
		.st11 {fill:#375623;font-family:Calibri;font-size:0.916672em}
		.st12 {fill:#a8d08d;stroke:#538135;stroke-width:0.25}
		.st13 {fill:#595959;stroke:none;stroke-linecap:butt;stroke-width:0.75}
		.st14 {marker-end:url(#mrkr5-58);stroke:#7f7f7f;stroke-linecap:round;stroke-linejoin:round;stroke-width:2.25}
		.st15 {fill:#7f7f7f;fill-opacity:1;stroke:#7f7f7f;stroke-opacity:1;stroke-width:0.47169811320755}
		.st16 {marker-end:url(#mrkr5-58);marker-start:url(#mrkr5-80);stroke:#7f7f7f;stroke-linecap:round;stroke-linejoin:round;stroke-width:2.25}
		.st17 {fill:none;stroke:none;stroke-width:0.25}
		.st18 {fill:#000000;font-family:Calibri;font-size:1.00001em}
		.st19 {fill:none;fill-rule:evenodd;font-size:12px;overflow:visible;stroke-linecap:square;stroke-miterlimit:3}
	]]>
	</style>

	<defs id="Markers">
		<g id="lend5">
			<path d="M 2 1 L 0 0 L 1.98117 -0.993387 C 1.67173 -0.364515 1.67301 0.372641 1.98465 1.00043 " style="stroke:none"/>
		</g>
		<marker id="mrkr5-58" class="st15" v:arrowType="5" v:arrowSize="2" v:setback="3.71" refX="-3.71" orient="auto"
				markerUnits="strokeWidth" overflow="visible">
			<use xlink:href="#lend5" transform="scale(-2.12,-2.12) "/>
		</marker>
		<marker id="mrkr5-80" class="st15" v:arrowType="5" v:arrowSize="2" v:setback="3.55" refX="3.55" orient="auto"
				markerUnits="strokeWidth" overflow="visible">
			<use xlink:href="#lend5" transform="scale(2.12) "/>
		</marker>
	</defs>
	<g v:mID="17" v:index="7" v:groupContext="foregroundPage">
		<v:userDefs>
			<v:ud v:nameU="msvThemeOrder" v:val="VT0(0):26"/>
		</v:userDefs>
		<title>页-7</title>
		<v:pageProperties v:drawingScale="0.0393701" v:pageScale="0.0393701" v:drawingUnits="24" v:shadowOffsetX="8.50394"
				v:shadowOffsetY="-8.50394"/>
		<g id="shape1-1" v:mID="1" v:groupContext="shape" transform="translate(297.638,-219.738)">
			<title>矩形.88</title>
			<desc>Custom-built Storage Sidecar</desc>
			<v:userDefs>
				<v:ud v:nameU="visVersion" v:val="VT0(15):26"/>
			</v:userDefs>
			<v:textBlock v:margins="rect(4,4,4,4)" v:tabSpace="42.5197" v:verticalAlign="2"/>
			<v:textRect cx="71.7415" cy="544.845" width="143.49" height="100.861"/>
			<path d="M0 595.28 L143.48 595.28 L143.48 494.41 L0 494.41 L0 595.28 Z" class="st1"/>
			<text x="6.87" y="587.98" class="st2" v:langID="1033"><v:paragraph v:horizAlign="1"/><v:tabList/>Custom-built Storage Sidecar</text>		</g>
		<g id="group2-4" transform="translate(757.559,-265.756)" v:mID="2" v:groupContext="group">
			<title>工作表.2</title>
			<g id="shape3-5" v:mID="3" v:groupContext="shape">
				<title>工作表.3</title>
				<path d="M2.13 593.15 L2.13 569.06 L10.98 569.06 L10.98 576.5 L19.84 576.5 L19.84 593.15 L2.13 593.15 ZM13.11 569.94
							 L17.54 574.37 L13.11 574.37 L13.11 569.94 ZM13.11 566.93 L0 566.93 L0 595.28 L21.97 595.28 L21.97 574.72
							 L13.11 566.93 Z" class="st3"/>
			</g>
			<g id="shape4-7" v:mID="4" v:groupContext="shape" transform="translate(4.25197,-13.8189)">
				<title>工作表.4</title>
				<rect x="0" y="593.858" width="13.4646" height="1.41732" class="st3"/>
			</g>
			<g id="shape5-9" v:mID="5" v:groupContext="shape" transform="translate(4.25197,-16.6535)">
				<title>工作表.5</title>
				<rect x="0" y="593.858" width="4.6063" height="1.41732" class="st3"/>
			</g>
			<g id="shape6-11" v:mID="6" v:groupContext="shape" transform="translate(4.25197,-10.9843)">
				<title>工作表.6</title>
				<rect x="0" y="593.858" width="13.4646" height="1.41732" class="st3"/>
			</g>
			<g id="shape7-13" v:mID="7" v:groupContext="shape" transform="translate(4.25197,-8.14961)">
				<title>工作表.7</title>
				<rect x="0" y="593.858" width="13.4646" height="1.41732" class="st3"/>
			</g>
			<g id="shape8-15" v:mID="8" v:groupContext="shape" transform="translate(4.25197,-5.31496)">
				<title>工作表.8</title>
				<rect x="0" y="593.858" width="13.4646" height="1.41732" class="st3"/>
			</g>
		</g>
		<g id="shape9-17" v:mID="9" v:groupContext="shape" transform="translate(308.434,-282.389)">
			<title>矩形.4</title>
			<desc>Call store</desc>
			<v:userDefs>
				<v:ud v:nameU="visVersion" v:val="VT0(15):26"/>
			</v:userDefs>
			<v:textBlock v:margins="rect(4,4,4,4)" v:tabSpace="42.5197"/>
			<v:textRect cx="60.9449" cy="581.102" width="121.89" height="28.3465"/>
			<rect x="0" y="566.929" width="121.89" height="28.3465" rx="14.1732" ry="14.1732" class="st4"/>
			<text x="40.06" y="584.4" class="st2" v:langID="2052"><v:paragraph v:horizAlign="1"/><v:tabList/>Call store</text>		</g>
		<g id="shape10-20" v:mID="10" v:groupContext="shape" transform="translate(308.434,-246.77)">
			<title>矩形.10</title>
			<desc>Call retrieve</desc>
			<v:userDefs>
				<v:ud v:nameU="visVersion" v:val="VT0(15):26"/>
			</v:userDefs>
			<v:textBlock v:margins="rect(4,4,4,4)" v:tabSpace="42.5197"/>
			<v:textRect cx="60.9449" cy="581.102" width="121.89" height="28.3465"/>
			<rect x="0" y="566.929" width="121.89" height="28.3465" rx="14.1732" ry="14.1732" class="st4"/>
			<text x="33.98" y="584.4" class="st2" v:langID="2052"><v:paragraph v:horizAlign="1"/><v:tabList/>Call retrieve</text>		</g>
		<g id="shape14-23" v:mID="14" v:groupContext="shape" transform="translate(459.213,-106.866)">
			<title>矩形.14</title>
			<desc>Data Storage Pallet</desc>
			<v:userDefs>
				<v:ud v:nameU="visVersion" v:val="VT0(15):26"/>
			</v:userDefs>
			<v:textBlock v:margins="rect(4,4,4,4)" v:tabSpace="42.5197" v:verticalAlign="2"/>
			<v:textRect cx="31.1811" cy="453.543" width="62.37" height="283.465"/>
			<path d="M0 595.28 L62.36 595.28 L62.36 311.81 L0 311.81 L0 595.28 Z" class="st5"/>
			<text x="19.73" y="558.88" class="st6" v:langID="1033"><v:paragraph v:horizAlign="1"/><v:tabList/>Data <tspan x="12.47"
						dy="1.2em" class="st7">Storage </tspan><tspan x="17.46" dy="1.2em" class="st7">Pallet</tspan></text>		</g>
		<g id="shape15-28" v:mID="15" v:groupContext="shape" transform="translate(428.777,-342.797)">
			<title>矩形.15</title>
			<desc>Record data information</desc>
			<v:userDefs>
				<v:ud v:nameU="visVersion" v:val="VT0(15):26"/>
			</v:userDefs>
			<v:textBlock v:margins="rect(4,4,4,4)" v:tabSpace="42.5197"/>
			<v:textRect cx="60.9449" cy="581.102" width="121.89" height="28.3465"/>
			<rect x="0" y="566.929" width="121.89" height="28.3465" rx="14.1732" ry="14.1732" class="st8"/>
			<text x="6.13" y="584.4" class="st9" v:langID="2052"><v:paragraph v:horizAlign="1"/><v:tabList/>R<tspan class="st7"
						v:langID="1033">ecord data information</tspan></text>		</g>
		<g id="shape16-32" v:mID="16" v:groupContext="shape" transform="translate(429.449,-171.019)">
			<title>矩形.16</title>
			<desc>update data information</desc>
			<v:userDefs>
				<v:ud v:nameU="visVersion" v:val="VT0(15):26"/>
			</v:userDefs>
			<v:textBlock v:margins="rect(4,4,4,4)" v:tabSpace="42.5197"/>
			<v:textRect cx="60.9449" cy="581.102" width="121.89" height="28.3465"/>
			<rect x="0" y="566.929" width="121.89" height="28.3465" rx="14.1732" ry="14.1732" class="st8"/>
			<text x="6" y="584.4" class="st9" v:langID="2052"><v:paragraph v:horizAlign="1"/><v:tabList/>update<tspan class="st7"
						v:langID="1033"> </tspan><tspan class="st7" v:langID="1033">data information</tspan></text>		</g>
		<g id="shape18-37" v:mID="18" v:groupContext="shape" transform="translate(539.954,-220.252)">
			<title>矩形.18</title>
			<desc>CESS</desc>
			<v:userDefs>
				<v:ud v:nameU="visVersion" v:val="VT0(15):26"/>
			</v:userDefs>
			<v:textBlock v:margins="rect(4,4,4,4)" v:tabSpace="42.5197" v:verticalAlign="2"/>
			<v:textRect cx="71.7415" cy="544.845" width="143.49" height="100.861"/>
			<path d="M0 595.28 L143.48 595.28 L143.48 494.41 L0 494.41 L0 595.28 Z" class="st10"/>
			<text x="61.07" y="587.98" class="st11" v:langID="2052"><v:paragraph v:horizAlign="1"/><v:tabList/>CESS</text>		</g>
		<g id="shape19-40" v:mID="19" v:groupContext="shape" transform="translate(550.751,-282.903)">
			<title>矩形.19</title>
			<desc>Store data safely</desc>
			<v:userDefs>
				<v:ud v:nameU="visVersion" v:val="VT0(15):26"/>
			</v:userDefs>
			<v:textBlock v:margins="rect(4,4,4,4)" v:tabSpace="42.5197"/>
			<v:textRect cx="60.9449" cy="581.102" width="121.89" height="28.3465"/>
			<rect x="0" y="566.929" width="121.89" height="28.3465" rx="14.1732" ry="14.1732" class="st12"/>
			<text x="23.58" y="584.4" class="st11" v:langID="2052"><v:paragraph v:horizAlign="1"/><v:tabList/>Store data safely</text>		</g>
		<g id="shape20-43" v:mID="20" v:groupContext="shape" transform="translate(550.751,-247.284)">
			<title>矩形.20</title>
			<desc>Retrieve data reliably</desc>
			<v:userDefs>
				<v:ud v:nameU="visVersion" v:val="VT0(15):26"/>
			</v:userDefs>
			<v:textBlock v:margins="rect(4,4,4,4)" v:tabSpace="42.5197"/>
			<v:textRect cx="60.9449" cy="581.102" width="121.89" height="28.3465"/>
			<rect x="0" y="566.929" width="121.89" height="28.3465" rx="14.1732" ry="14.1732" class="st12"/>
			<text x="13.3" y="584.4" class="st11" v:langID="2052"><v:paragraph v:horizAlign="1"/><v:tabList/>Retrieve data <tspan
						class="st7" v:langID="1033">reliably</tspan></text>		</g>
		<g id="group22-47" transform="translate(194.901,-265.274)" v:mID="22" v:groupContext="group">
			<title>工作表.22</title>
			<g id="group23-48" v:mID="23" v:groupContext="group">
				<title>工作表.23</title>
				<g id="shape24-49" v:mID="24" v:groupContext="shape" transform="translate(5.49213,-12.3573)">
					<title>工作表.24</title>
					<ellipse cx="5.49213" cy="589.783" rx="5.49213" ry="5.49213" class="st13"/>
				</g>
				<g id="shape25-51" v:mID="25" v:groupContext="shape">
					<title>工作表.25</title>
					<path d="M21.97 595.28 L21.97 589.78 C21.97 588.96 21.56 588.14 20.87 587.59 C19.36 586.35 17.44 585.53 15.52
								 584.98 C14.14 584.57 12.63 584.29 10.98 584.29 C9.47 584.29 7.96 584.57 6.45 584.98 C4.53 585.53
								 2.61 586.49 1.1 587.59 C0.41 588.14 0 588.96 0 589.78 L0 595.28 L21.97 595.28 Z" class="st13"/>
				</g>
			</g>
		</g>
		<g id="shape26-53" v:mID="26" v:groupContext="shape" transform="translate(228.617,-296.562)">
			<title>工作表.26</title>
			<path d="M0 595.28 L71.47 595.28" class="st14"/>
		</g>
		<g id="shape27-59" v:mID="27" v:groupContext="shape" transform="translate(64.6828,-171.03) rotate(-37.8966)">
			<title>工作表.27</title>
			<path d="M0 595.28 L66.92 595.28" class="st14"/>
		</g>
		<g id="shape28-64" v:mID="28" v:groupContext="shape" transform="translate(427.781,-296.557) rotate(-0.244761)">
			<title>工作表.28</title>
			<path d="M0 595.28 L112.08 595.28" class="st14"/>
		</g>
		<g id="shape29-69" v:mID="29" v:groupContext="shape" transform="translate(674.879,-297.076)">
			<title>工作表.29</title>
			<path d="M0 595.28 L70.19 595.28" class="st14"/>
		</g>
		<g id="shape30-74" v:mID="30" v:groupContext="shape" transform="translate(226.379,-260.943)">
			<title>工作表.30</title>
			<path d="M7.99 595.28 L8.35 595.28 L71.47 595.28" class="st16"/>
		</g>
		<g id="shape31-82" v:mID="31" v:groupContext="shape" transform="translate(672.641,-261.457)">
			<title>工作表.31</title>
			<path d="M7.99 595.28 L8.35 595.28 L70.19 595.28" class="st16"/>
		</g>
		<g id="shape32-89" v:mID="32" v:groupContext="shape" transform="translate(427.781,-260.937) rotate(-0.244761)">
			<title>工作表.32</title>
			<path d="M7.99 595.28 L8.35 595.28 L112.08 595.28" class="st16"/>
		</g>
		<g id="shape33-96" v:mID="33" v:groupContext="shape" transform="translate(64.2841,811.583) rotate(-134.29)">
			<title>工作表.33</title>
			<path d="M7.99 595.28 L8.35 595.28 L77.68 595.28" class="st16"/>
		</g>
		<g id="shape35-103" v:mID="35" v:groupContext="shape" transform="translate(247.992,-297.459)">
			<title>工作表.35</title>
			<desc>①</desc>
			<v:textBlock v:margins="rect(4,4,4,4)" v:tabSpace="42.5197"/>
			<v:textRect cx="19.1339" cy="584.646" width="38.27" height="21.2598"/>
			<rect x="0" y="574.016" width="38.2677" height="21.2598" class="st17"/>
			<text x="11.17" y="588.25" class="st18" v:langID="2052"><v:paragraph v:horizAlign="1"/><v:tabList/>①</text>		</g>
		<g id="shape38-106" v:mID="38" v:groupContext="shape" transform="translate(471.26,-297.449)">
			<title>工作表.38</title>
			<desc>②</desc>
			<v:textBlock v:margins="rect(4,4,4,4)" v:tabSpace="42.5197"/>
			<v:textRect cx="19.1339" cy="584.646" width="38.27" height="21.2598"/>
			<rect x="0" y="574.016" width="38.2677" height="21.2598" class="st17"/>
			<text x="11.17" y="588.25" class="st18" v:langID="2052"><v:paragraph v:horizAlign="1"/><v:tabList/>②</text>		</g>
		<g id="shape41-109" v:mID="41" v:groupContext="shape" transform="translate(430.269,-316.592)">
			<title>工作表.41</title>
			<desc>③</desc>
			<v:textBlock v:margins="rect(4,4,4,4)" v:tabSpace="42.5197"/>
			<v:textRect cx="19.1339" cy="584.646" width="38.27" height="21.2598"/>
			<rect x="0" y="574.016" width="38.2677" height="21.2598" class="st17"/>
			<text x="11.17" y="588.25" class="st18" v:langID="2052"><v:paragraph v:horizAlign="1"/><v:tabList/>③</text>		</g>
		<g id="shape43-112" v:mID="43" v:groupContext="shape" transform="translate(695.048,-297.832)">
			<title>工作表.43</title>
			<desc>④</desc>
			<v:textBlock v:margins="rect(4,4,4,4)" v:tabSpace="42.5197"/>
			<v:textRect cx="19.1339" cy="584.646" width="38.27" height="21.2598"/>
			<rect x="0" y="574.016" width="38.2677" height="21.2598" class="st17"/>
			<text x="11.17" y="588.25" class="st18" v:langID="2052"><v:paragraph v:horizAlign="1"/><v:tabList/>④</text>		</g>
		<g id="shape46-115" v:mID="46" v:groupContext="shape" transform="translate(247.174,-261.544)">
			<title>工作表.46</title>
			<desc>⑤</desc>
			<v:textBlock v:margins="rect(4,4,4,4)" v:tabSpace="42.5197"/>
			<v:textRect cx="19.1339" cy="584.646" width="38.27" height="21.2598"/>
			<rect x="0" y="574.016" width="38.2677" height="21.2598" class="st17"/>
			<text x="11.17" y="588.25" class="st18" v:langID="2052"><v:paragraph v:horizAlign="1"/><v:tabList/>⑤</text>		</g>
		<g id="shape48-118" v:mID="48" v:groupContext="shape" transform="translate(471.26,-261.084)">
			<title>工作表.48</title>
			<desc>⑦</desc>
			<v:textBlock v:margins="rect(4,4,4,4)" v:tabSpace="42.5197"/>
			<v:textRect cx="19.1339" cy="584.646" width="38.27" height="21.2598"/>
			<rect x="0" y="574.016" width="38.2677" height="21.2598" class="st17"/>
			<text x="11.17" y="588.25" class="st18" v:langID="2052"><v:paragraph v:horizAlign="1"/><v:tabList/>⑦</text>		</g>
		<g id="shape50-121" v:mID="50" v:groupContext="shape" transform="translate(693.556,-259.788)">
			<title>工作表.50</title>
			<desc>⑧</desc>
			<v:textBlock v:margins="rect(4,4,4,4)" v:tabSpace="42.5197"/>
			<v:textRect cx="19.1339" cy="584.646" width="38.27" height="21.2598"/>
			<rect x="0" y="574.016" width="38.2677" height="21.2598" class="st17"/>
			<text x="11.17" y="588.25" class="st18" v:langID="2052"><v:paragraph v:horizAlign="1"/><v:tabList/>⑧</text>		</g>
		<g id="shape51-124" v:mID="51" v:groupContext="shape" transform="translate(459.213,-220.625)">
			<title>工作表.51</title>
			<desc>⑥</desc>
			<v:textBlock v:margins="rect(4,4,4,4)" v:tabSpace="42.5197"/>
			<v:textRect cx="19.1339" cy="584.646" width="38.27" height="21.2598"/>
			<rect x="0" y="574.016" width="38.2677" height="21.2598" class="st17"/>
			<text x="11.17" y="588.25" class="st18" v:langID="2052"><v:paragraph v:horizAlign="1"/><v:tabList/>⑥</text>		</g>
		<g id="shape56-127" v:mID="56" v:groupContext="shape" transform="translate(483.307,-237.969)">
			<title>工作表.56</title>
			<desc>⑨</desc>
			<v:textBlock v:margins="rect(4,4,4,4)" v:tabSpace="42.5197"/>
			<v:textRect cx="19.1339" cy="584.646" width="38.27" height="21.2598"/>
			<rect x="0" y="574.016" width="38.2677" height="21.2598" class="st17"/>
			<text x="11.17" y="588.25" class="st18" v:langID="2052"><v:paragraph v:horizAlign="1"/><v:tabList/>⑨</text>		</g>
		<g id="shape58-130" v:mID="58" v:groupContext="shape" transform="translate(435.509,-207.571)">
			<title>工作表.58</title>
			<desc>⑩</desc>
			<v:textBlock v:margins="rect(4,4,4,4)" v:tabSpace="42.5197"/>
			<v:textRect cx="19.1339" cy="584.646" width="38.27" height="21.2598"/>
			<rect x="0" y="574.016" width="38.2677" height="21.2598" class="st17"/>
			<text x="11.17" y="588.25" class="st18" v:langID="2052"><v:paragraph v:horizAlign="1"/><v:tabList/>⑩</text>		</g>
		<g id="shape60-133" v:mID="60" v:groupContext="shape" transform="translate(247.246,-236.477)">
			<title>工作表.60</title>
			<desc>⑪</desc>
			<v:textBlock v:margins="rect(4,4,4,4)" v:tabSpace="42.5197"/>
			<v:textRect cx="19.1339" cy="584.646" width="38.27" height="21.2598"/>
			<rect x="0" y="574.016" width="38.2677" height="21.2598" class="st17"/>
			<text x="11.17" y="588.25" class="st18" v:langID="2052"><v:paragraph v:horizAlign="1"/><v:tabList/>⑪</text>		</g>
	</g>
</svg>
